%FSLAX45Y45*%
G04 Gerber Fmt 4.5, Leading zero omitted, Abs format (unit mm)*
G04 Created by KiCad (PCBNEW (6.0.6)) date 2022-07-11 11:59:16*
%MOMM*%
%LPD*%
G01*
G04 APERTURE LIST*
%TA.AperFunction,Profile*%
%ADD10C,0.100000*%
%TD*%
%ADD11C,0.200000*%
%ADD12C,0.320000*%
G04 APERTURE END LIST*
D10*
X9906000Y-6604000D02*
X18542000Y-6604000D01*
X18542000Y-6604000D02*
X18542000Y-11557000D01*
X18542000Y-11557000D02*
X9906000Y-11557000D01*
X9906000Y-11557000D02*
X9906000Y-6604000D01*
D11*
D12*
X10129000Y-8555750D02*
X10449000Y-8875750D01*
X10449000Y-8555750D02*
X10129000Y-8875750D01*
X10129000Y-9698750D02*
X10449000Y-10018750D01*
X10449000Y-9698750D02*
X10129000Y-10018750D01*
D11*
X10158619Y-11872476D02*
X10158619Y-11672476D01*
X10206238Y-11672476D01*
X10234810Y-11682000D01*
X10253857Y-11701048D01*
X10263381Y-11720095D01*
X10272905Y-11758190D01*
X10272905Y-11786762D01*
X10263381Y-11824857D01*
X10253857Y-11843905D01*
X10234810Y-11862952D01*
X10206238Y-11872476D01*
X10158619Y-11872476D01*
X10358619Y-11872476D02*
X10358619Y-11739143D01*
X10358619Y-11777238D02*
X10368143Y-11758190D01*
X10377667Y-11748667D01*
X10396714Y-11739143D01*
X10415762Y-11739143D01*
X10482429Y-11872476D02*
X10482429Y-11739143D01*
X10482429Y-11672476D02*
X10472905Y-11682000D01*
X10482429Y-11691524D01*
X10491952Y-11682000D01*
X10482429Y-11672476D01*
X10482429Y-11691524D01*
X10606238Y-11872476D02*
X10587190Y-11862952D01*
X10577667Y-11843905D01*
X10577667Y-11672476D01*
X10711000Y-11872476D02*
X10691952Y-11862952D01*
X10682429Y-11843905D01*
X10682429Y-11672476D01*
X10939571Y-11872476D02*
X10939571Y-11672476D01*
X11006238Y-11815333D01*
X11072905Y-11672476D01*
X11072905Y-11872476D01*
X11253857Y-11872476D02*
X11253857Y-11767714D01*
X11244333Y-11748667D01*
X11225286Y-11739143D01*
X11187190Y-11739143D01*
X11168143Y-11748667D01*
X11253857Y-11862952D02*
X11234809Y-11872476D01*
X11187190Y-11872476D01*
X11168143Y-11862952D01*
X11158619Y-11843905D01*
X11158619Y-11824857D01*
X11168143Y-11805809D01*
X11187190Y-11796286D01*
X11234809Y-11796286D01*
X11253857Y-11786762D01*
X11349095Y-11739143D02*
X11349095Y-11939143D01*
X11349095Y-11748667D02*
X11368143Y-11739143D01*
X11406238Y-11739143D01*
X11425286Y-11748667D01*
X11434809Y-11758190D01*
X11444333Y-11777238D01*
X11444333Y-11834381D01*
X11434809Y-11853428D01*
X11425286Y-11862952D01*
X11406238Y-11872476D01*
X11368143Y-11872476D01*
X11349095Y-11862952D01*
X11530048Y-11853428D02*
X11539571Y-11862952D01*
X11530048Y-11872476D01*
X11520524Y-11862952D01*
X11530048Y-11853428D01*
X11530048Y-11872476D01*
X11530048Y-11748667D02*
X11539571Y-11758190D01*
X11530048Y-11767714D01*
X11520524Y-11758190D01*
X11530048Y-11748667D01*
X11530048Y-11767714D01*
X9701000Y-12102000D02*
X9901000Y-12302000D01*
X9901000Y-12102000D02*
X9701000Y-12302000D01*
X10139571Y-12092476D02*
X10263381Y-12092476D01*
X10196714Y-12168667D01*
X10225286Y-12168667D01*
X10244333Y-12178190D01*
X10253857Y-12187714D01*
X10263381Y-12206762D01*
X10263381Y-12254381D01*
X10253857Y-12273428D01*
X10244333Y-12282952D01*
X10225286Y-12292476D01*
X10168143Y-12292476D01*
X10149095Y-12282952D01*
X10139571Y-12273428D01*
X10349095Y-12273428D02*
X10358619Y-12282952D01*
X10349095Y-12292476D01*
X10339571Y-12282952D01*
X10349095Y-12273428D01*
X10349095Y-12292476D01*
X10434810Y-12111524D02*
X10444333Y-12102000D01*
X10463381Y-12092476D01*
X10511000Y-12092476D01*
X10530048Y-12102000D01*
X10539571Y-12111524D01*
X10549095Y-12130571D01*
X10549095Y-12149619D01*
X10539571Y-12178190D01*
X10425286Y-12292476D01*
X10549095Y-12292476D01*
X10672905Y-12092476D02*
X10691952Y-12092476D01*
X10711000Y-12102000D01*
X10720524Y-12111524D01*
X10730048Y-12130571D01*
X10739571Y-12168667D01*
X10739571Y-12216286D01*
X10730048Y-12254381D01*
X10720524Y-12273428D01*
X10711000Y-12282952D01*
X10691952Y-12292476D01*
X10672905Y-12292476D01*
X10653857Y-12282952D01*
X10644333Y-12273428D01*
X10634810Y-12254381D01*
X10625286Y-12216286D01*
X10625286Y-12168667D01*
X10634810Y-12130571D01*
X10644333Y-12111524D01*
X10653857Y-12102000D01*
X10672905Y-12092476D01*
X10863381Y-12092476D02*
X10882429Y-12092476D01*
X10901476Y-12102000D01*
X10911000Y-12111524D01*
X10920524Y-12130571D01*
X10930048Y-12168667D01*
X10930048Y-12216286D01*
X10920524Y-12254381D01*
X10911000Y-12273428D01*
X10901476Y-12282952D01*
X10882429Y-12292476D01*
X10863381Y-12292476D01*
X10844333Y-12282952D01*
X10834810Y-12273428D01*
X10825286Y-12254381D01*
X10815762Y-12216286D01*
X10815762Y-12168667D01*
X10825286Y-12130571D01*
X10834810Y-12111524D01*
X10844333Y-12102000D01*
X10863381Y-12092476D01*
X11015762Y-12292476D02*
X11015762Y-12159143D01*
X11015762Y-12178190D02*
X11025286Y-12168667D01*
X11044333Y-12159143D01*
X11072905Y-12159143D01*
X11091952Y-12168667D01*
X11101476Y-12187714D01*
X11101476Y-12292476D01*
X11101476Y-12187714D02*
X11111000Y-12168667D01*
X11130048Y-12159143D01*
X11158619Y-12159143D01*
X11177667Y-12168667D01*
X11187190Y-12187714D01*
X11187190Y-12292476D01*
X11282428Y-12292476D02*
X11282428Y-12159143D01*
X11282428Y-12178190D02*
X11291952Y-12168667D01*
X11311000Y-12159143D01*
X11339571Y-12159143D01*
X11358619Y-12168667D01*
X11368143Y-12187714D01*
X11368143Y-12292476D01*
X11368143Y-12187714D02*
X11377667Y-12168667D01*
X11396714Y-12159143D01*
X11425286Y-12159143D01*
X11444333Y-12168667D01*
X11453857Y-12187714D01*
X11453857Y-12292476D01*
X11844333Y-12082952D02*
X11672905Y-12340095D01*
X12101476Y-12092476D02*
X12120524Y-12092476D01*
X12139571Y-12102000D01*
X12149095Y-12111524D01*
X12158619Y-12130571D01*
X12168143Y-12168667D01*
X12168143Y-12216286D01*
X12158619Y-12254381D01*
X12149095Y-12273428D01*
X12139571Y-12282952D01*
X12120524Y-12292476D01*
X12101476Y-12292476D01*
X12082428Y-12282952D01*
X12072905Y-12273428D01*
X12063381Y-12254381D01*
X12053857Y-12216286D01*
X12053857Y-12168667D01*
X12063381Y-12130571D01*
X12072905Y-12111524D01*
X12082428Y-12102000D01*
X12101476Y-12092476D01*
X12253857Y-12273428D02*
X12263381Y-12282952D01*
X12253857Y-12292476D01*
X12244333Y-12282952D01*
X12253857Y-12273428D01*
X12253857Y-12292476D01*
X12453857Y-12292476D02*
X12339571Y-12292476D01*
X12396714Y-12292476D02*
X12396714Y-12092476D01*
X12377667Y-12121048D01*
X12358619Y-12140095D01*
X12339571Y-12149619D01*
X12530048Y-12111524D02*
X12539571Y-12102000D01*
X12558619Y-12092476D01*
X12606238Y-12092476D01*
X12625286Y-12102000D01*
X12634809Y-12111524D01*
X12644333Y-12130571D01*
X12644333Y-12149619D01*
X12634809Y-12178190D01*
X12520524Y-12292476D01*
X12644333Y-12292476D01*
X12815762Y-12092476D02*
X12777667Y-12092476D01*
X12758619Y-12102000D01*
X12749095Y-12111524D01*
X12730048Y-12140095D01*
X12720524Y-12178190D01*
X12720524Y-12254381D01*
X12730048Y-12273428D01*
X12739571Y-12282952D01*
X12758619Y-12292476D01*
X12796714Y-12292476D01*
X12815762Y-12282952D01*
X12825286Y-12273428D01*
X12834809Y-12254381D01*
X12834809Y-12206762D01*
X12825286Y-12187714D01*
X12815762Y-12178190D01*
X12796714Y-12168667D01*
X12758619Y-12168667D01*
X12739571Y-12178190D01*
X12730048Y-12187714D01*
X12720524Y-12206762D01*
X12958619Y-12092476D02*
X12977667Y-12092476D01*
X12996714Y-12102000D01*
X13006238Y-12111524D01*
X13015762Y-12130571D01*
X13025286Y-12168667D01*
X13025286Y-12216286D01*
X13015762Y-12254381D01*
X13006238Y-12273428D01*
X12996714Y-12282952D01*
X12977667Y-12292476D01*
X12958619Y-12292476D01*
X12939571Y-12282952D01*
X12930048Y-12273428D01*
X12920524Y-12254381D01*
X12911000Y-12216286D01*
X12911000Y-12168667D01*
X12920524Y-12130571D01*
X12930048Y-12111524D01*
X12939571Y-12102000D01*
X12958619Y-12092476D01*
X13101476Y-12092476D02*
X13101476Y-12130571D01*
X13177667Y-12092476D02*
X13177667Y-12130571D01*
X13472905Y-12368667D02*
X13463381Y-12359143D01*
X13444333Y-12330571D01*
X13434809Y-12311524D01*
X13425286Y-12282952D01*
X13415762Y-12235333D01*
X13415762Y-12197238D01*
X13425286Y-12149619D01*
X13434809Y-12121048D01*
X13444333Y-12102000D01*
X13463381Y-12073428D01*
X13472905Y-12063905D01*
X13539571Y-12111524D02*
X13549095Y-12102000D01*
X13568143Y-12092476D01*
X13615762Y-12092476D01*
X13634809Y-12102000D01*
X13644333Y-12111524D01*
X13653857Y-12130571D01*
X13653857Y-12149619D01*
X13644333Y-12178190D01*
X13530048Y-12292476D01*
X13653857Y-12292476D01*
X13891952Y-12292476D02*
X13891952Y-12092476D01*
X13977667Y-12292476D02*
X13977667Y-12187714D01*
X13968143Y-12168667D01*
X13949095Y-12159143D01*
X13920524Y-12159143D01*
X13901476Y-12168667D01*
X13891952Y-12178190D01*
X14101476Y-12292476D02*
X14082428Y-12282952D01*
X14072905Y-12273428D01*
X14063381Y-12254381D01*
X14063381Y-12197238D01*
X14072905Y-12178190D01*
X14082428Y-12168667D01*
X14101476Y-12159143D01*
X14130048Y-12159143D01*
X14149095Y-12168667D01*
X14158619Y-12178190D01*
X14168143Y-12197238D01*
X14168143Y-12254381D01*
X14158619Y-12273428D01*
X14149095Y-12282952D01*
X14130048Y-12292476D01*
X14101476Y-12292476D01*
X14282428Y-12292476D02*
X14263381Y-12282952D01*
X14253857Y-12263905D01*
X14253857Y-12092476D01*
X14434809Y-12282952D02*
X14415762Y-12292476D01*
X14377667Y-12292476D01*
X14358619Y-12282952D01*
X14349095Y-12263905D01*
X14349095Y-12187714D01*
X14358619Y-12168667D01*
X14377667Y-12159143D01*
X14415762Y-12159143D01*
X14434809Y-12168667D01*
X14444333Y-12187714D01*
X14444333Y-12206762D01*
X14349095Y-12225809D01*
X14520524Y-12282952D02*
X14539571Y-12292476D01*
X14577667Y-12292476D01*
X14596714Y-12282952D01*
X14606238Y-12263905D01*
X14606238Y-12254381D01*
X14596714Y-12235333D01*
X14577667Y-12225809D01*
X14549095Y-12225809D01*
X14530048Y-12216286D01*
X14520524Y-12197238D01*
X14520524Y-12187714D01*
X14530048Y-12168667D01*
X14549095Y-12159143D01*
X14577667Y-12159143D01*
X14596714Y-12168667D01*
X14672905Y-12368667D02*
X14682428Y-12359143D01*
X14701476Y-12330571D01*
X14711000Y-12311524D01*
X14720524Y-12282952D01*
X14730048Y-12235333D01*
X14730048Y-12197238D01*
X14720524Y-12149619D01*
X14711000Y-12121048D01*
X14701476Y-12102000D01*
X14682428Y-12073428D01*
X14672905Y-12063905D01*
X15034809Y-12368667D02*
X15025286Y-12359143D01*
X15006238Y-12330571D01*
X14996714Y-12311524D01*
X14987190Y-12282952D01*
X14977667Y-12235333D01*
X14977667Y-12197238D01*
X14987190Y-12149619D01*
X14996714Y-12121048D01*
X15006238Y-12102000D01*
X15025286Y-12073428D01*
X15034809Y-12063905D01*
X15111000Y-12159143D02*
X15111000Y-12292476D01*
X15111000Y-12178190D02*
X15120524Y-12168667D01*
X15139571Y-12159143D01*
X15168143Y-12159143D01*
X15187190Y-12168667D01*
X15196714Y-12187714D01*
X15196714Y-12292476D01*
X15320524Y-12292476D02*
X15301476Y-12282952D01*
X15291952Y-12273428D01*
X15282428Y-12254381D01*
X15282428Y-12197238D01*
X15291952Y-12178190D01*
X15301476Y-12168667D01*
X15320524Y-12159143D01*
X15349095Y-12159143D01*
X15368143Y-12168667D01*
X15377667Y-12178190D01*
X15387190Y-12197238D01*
X15387190Y-12254381D01*
X15377667Y-12273428D01*
X15368143Y-12282952D01*
X15349095Y-12292476D01*
X15320524Y-12292476D01*
X15444333Y-12159143D02*
X15520524Y-12159143D01*
X15472905Y-12092476D02*
X15472905Y-12263905D01*
X15482428Y-12282952D01*
X15501476Y-12292476D01*
X15520524Y-12292476D01*
X15739571Y-12159143D02*
X15739571Y-12359143D01*
X15739571Y-12168667D02*
X15758619Y-12159143D01*
X15796714Y-12159143D01*
X15815762Y-12168667D01*
X15825286Y-12178190D01*
X15834809Y-12197238D01*
X15834809Y-12254381D01*
X15825286Y-12273428D01*
X15815762Y-12282952D01*
X15796714Y-12292476D01*
X15758619Y-12292476D01*
X15739571Y-12282952D01*
X15949095Y-12292476D02*
X15930048Y-12282952D01*
X15920524Y-12263905D01*
X15920524Y-12092476D01*
X16111000Y-12292476D02*
X16111000Y-12187714D01*
X16101476Y-12168667D01*
X16082428Y-12159143D01*
X16044333Y-12159143D01*
X16025286Y-12168667D01*
X16111000Y-12282952D02*
X16091952Y-12292476D01*
X16044333Y-12292476D01*
X16025286Y-12282952D01*
X16015762Y-12263905D01*
X16015762Y-12244857D01*
X16025286Y-12225809D01*
X16044333Y-12216286D01*
X16091952Y-12216286D01*
X16111000Y-12206762D01*
X16177667Y-12159143D02*
X16253857Y-12159143D01*
X16206238Y-12092476D02*
X16206238Y-12263905D01*
X16215762Y-12282952D01*
X16234809Y-12292476D01*
X16253857Y-12292476D01*
X16396714Y-12282952D02*
X16377667Y-12292476D01*
X16339571Y-12292476D01*
X16320524Y-12282952D01*
X16311000Y-12263905D01*
X16311000Y-12187714D01*
X16320524Y-12168667D01*
X16339571Y-12159143D01*
X16377667Y-12159143D01*
X16396714Y-12168667D01*
X16406238Y-12187714D01*
X16406238Y-12206762D01*
X16311000Y-12225809D01*
X16577667Y-12292476D02*
X16577667Y-12092476D01*
X16577667Y-12282952D02*
X16558619Y-12292476D01*
X16520524Y-12292476D01*
X16501476Y-12282952D01*
X16491952Y-12273428D01*
X16482428Y-12254381D01*
X16482428Y-12197238D01*
X16491952Y-12178190D01*
X16501476Y-12168667D01*
X16520524Y-12159143D01*
X16558619Y-12159143D01*
X16577667Y-12168667D01*
X16653857Y-12368667D02*
X16663381Y-12359143D01*
X16682428Y-12330571D01*
X16691952Y-12311524D01*
X16701476Y-12282952D01*
X16711000Y-12235333D01*
X16711000Y-12197238D01*
X16701476Y-12149619D01*
X16691952Y-12121048D01*
X16682428Y-12102000D01*
X16663381Y-12073428D01*
X16653857Y-12063905D01*
M02*
