G04 #@! TF.GenerationSoftware,KiCad,Pcbnew,(6.0.6)*
G04 #@! TF.CreationDate,2022-07-11T11:59:08+03:00*
G04 #@! TF.ProjectId,RegulusFocuser-V1.1,52656775-6c75-4734-966f-63757365722d,rev?*
G04 #@! TF.SameCoordinates,Original*
G04 #@! TF.FileFunction,Soldermask,Top*
G04 #@! TF.FilePolarity,Negative*
%FSLAX46Y46*%
G04 Gerber Fmt 4.6, Leading zero omitted, Abs format (unit mm)*
G04 Created by KiCad (PCBNEW (6.0.6)) date 2022-07-11 11:59:08*
%MOMM*%
%LPD*%
G01*
G04 APERTURE LIST*
G04 Aperture macros list*
%AMRoundRect*
0 Rectangle with rounded corners*
0 $1 Rounding radius*
0 $2 $3 $4 $5 $6 $7 $8 $9 X,Y pos of 4 corners*
0 Add a 4 corners polygon primitive as box body*
4,1,4,$2,$3,$4,$5,$6,$7,$8,$9,$2,$3,0*
0 Add four circle primitives for the rounded corners*
1,1,$1+$1,$2,$3*
1,1,$1+$1,$4,$5*
1,1,$1+$1,$6,$7*
1,1,$1+$1,$8,$9*
0 Add four rect primitives between the rounded corners*
20,1,$1+$1,$2,$3,$4,$5,0*
20,1,$1+$1,$4,$5,$6,$7,0*
20,1,$1+$1,$6,$7,$8,$9,0*
20,1,$1+$1,$8,$9,$2,$3,0*%
G04 Aperture macros list end*
%ADD10RoundRect,0.250000X-0.412500X-0.925000X0.412500X-0.925000X0.412500X0.925000X-0.412500X0.925000X0*%
%ADD11RoundRect,0.425000X-0.425000X0.425000X-0.425000X-0.425000X0.425000X-0.425000X0.425000X0.425000X0*%
%ADD12C,1.700000*%
%ADD13C,1.524000*%
%ADD14RoundRect,0.250000X0.625000X-0.312500X0.625000X0.312500X-0.625000X0.312500X-0.625000X-0.312500X0*%
%ADD15C,5.600000*%
%ADD16RoundRect,0.250000X-0.475000X0.250000X-0.475000X-0.250000X0.475000X-0.250000X0.475000X0.250000X0*%
%ADD17RoundRect,0.250000X0.475000X-0.250000X0.475000X0.250000X-0.475000X0.250000X-0.475000X-0.250000X0*%
%ADD18RoundRect,0.250000X0.312500X0.625000X-0.312500X0.625000X-0.312500X-0.625000X0.312500X-0.625000X0*%
%ADD19RoundRect,0.218750X-0.218750X-0.256250X0.218750X-0.256250X0.218750X0.256250X-0.218750X0.256250X0*%
%ADD20RoundRect,0.250000X-0.375000X-0.625000X0.375000X-0.625000X0.375000X0.625000X-0.375000X0.625000X0*%
%ADD21R,1.600000X1.600000*%
%ADD22C,1.600000*%
%ADD23C,4.000000*%
%ADD24RoundRect,0.250000X-0.625000X0.312500X-0.625000X-0.312500X0.625000X-0.312500X0.625000X0.312500X0*%
%ADD25R,1.700000X1.700000*%
%ADD26O,1.700000X1.700000*%
%ADD27RoundRect,0.150000X-0.825000X-0.150000X0.825000X-0.150000X0.825000X0.150000X-0.825000X0.150000X0*%
%ADD28RoundRect,0.250000X-0.312500X-0.625000X0.312500X-0.625000X0.312500X0.625000X-0.312500X0.625000X0*%
%ADD29R,1.750000X0.450000*%
%ADD30C,3.200000*%
%ADD31R,1.500000X1.500000*%
%ADD32C,1.500000*%
%ADD33R,2.600000X2.600000*%
%ADD34C,2.600000*%
%ADD35RoundRect,0.250000X0.250000X0.475000X-0.250000X0.475000X-0.250000X-0.475000X0.250000X-0.475000X0*%
%ADD36RoundRect,0.381000X0.381000X0.381000X-0.381000X0.381000X-0.381000X-0.381000X0.381000X-0.381000X0*%
G04 APERTURE END LIST*
D10*
X176516500Y-84582000D03*
X179591500Y-84582000D03*
X126732500Y-81280000D03*
X129807500Y-81280000D03*
D11*
X117094000Y-103886000D03*
D12*
X119634000Y-103886000D03*
X122174000Y-103886000D03*
X124714000Y-103886000D03*
X127254000Y-103886000D03*
X129794000Y-103886000D03*
X132334000Y-103886000D03*
X134874000Y-103886000D03*
X137414000Y-103886000D03*
X139954000Y-103886000D03*
X142494000Y-103886000D03*
X145034000Y-103886000D03*
X147574000Y-103886000D03*
X150114000Y-103886000D03*
X152654000Y-103886000D03*
X155194000Y-103886000D03*
X157734000Y-103886000D03*
X160274000Y-103886000D03*
X162814000Y-103886000D03*
X165354000Y-103886000D03*
X165354000Y-88646000D03*
X162814000Y-88646000D03*
X160274000Y-88646000D03*
X157734000Y-88646000D03*
X155194000Y-88646000D03*
X152654000Y-88646000D03*
X150114000Y-88646000D03*
X147574000Y-88646000D03*
X145034000Y-88646000D03*
X142494000Y-88646000D03*
X139954000Y-88646000D03*
X137414000Y-88646000D03*
X134874000Y-88646000D03*
X132334000Y-88646000D03*
X129794000Y-88646000D03*
X127254000Y-88646000D03*
X124714000Y-88646000D03*
X122174000Y-88646000D03*
X119634000Y-88646000D03*
X117094000Y-88646000D03*
D13*
X161544000Y-100076000D03*
X161544000Y-97536000D03*
X161544000Y-94996000D03*
X161544000Y-92456000D03*
D14*
X138539300Y-98236500D03*
X138539300Y-95311500D03*
X135241700Y-98236500D03*
X135241700Y-95311500D03*
D15*
X140000000Y-72381000D03*
D16*
X131064000Y-74742000D03*
X131064000Y-76642000D03*
X113030000Y-74742000D03*
X113030000Y-76642000D03*
D17*
X131064000Y-71776000D03*
X131064000Y-69876000D03*
D18*
X160212500Y-79565500D03*
X157287500Y-79565500D03*
D12*
X134543800Y-68961000D03*
X134543800Y-71501000D03*
X134543800Y-74041000D03*
X134543800Y-76581000D03*
X134543800Y-79121000D03*
X134543800Y-81661000D03*
X144703800Y-81661000D03*
X144703800Y-79121000D03*
X144703800Y-76581000D03*
X144703800Y-74041000D03*
X144703800Y-71501000D03*
X144703800Y-68961000D03*
D15*
X117000000Y-112000000D03*
D18*
X152211500Y-76263500D03*
X149286500Y-76263500D03*
X152211500Y-79470200D03*
X149286500Y-79470200D03*
D19*
X115798500Y-80772000D03*
X117373500Y-80772000D03*
D20*
X145285000Y-112395000D03*
X148085000Y-112395000D03*
D21*
X108407500Y-76180000D03*
D22*
X108407500Y-73680000D03*
X106407500Y-73680000D03*
X106407500Y-76180000D03*
D23*
X103547500Y-80930000D03*
X103547500Y-68930000D03*
D24*
X157869800Y-95311500D03*
X157869800Y-98236500D03*
D25*
X164405000Y-77592000D03*
D26*
X164405000Y-80132000D03*
D25*
X128778000Y-111760000D03*
D26*
X131318000Y-111760000D03*
D14*
X145134500Y-98236500D03*
X145134500Y-95311500D03*
D27*
X149087900Y-69734800D03*
X149087900Y-71004800D03*
X149087900Y-72274800D03*
X149087900Y-73544800D03*
X154037900Y-73544800D03*
X154037900Y-72274800D03*
X154037900Y-71004800D03*
X154037900Y-69734800D03*
D28*
X149286500Y-82677000D03*
X152211500Y-82677000D03*
D24*
X154572200Y-95311500D03*
X154572200Y-98236500D03*
D25*
X173858000Y-111252000D03*
D26*
X176398000Y-111252000D03*
D24*
X125349000Y-95311500D03*
X125349000Y-98236500D03*
D29*
X116415000Y-68800000D03*
X116415000Y-69450000D03*
X116415000Y-70100000D03*
X116415000Y-70750000D03*
X116415000Y-71400000D03*
X116415000Y-72050000D03*
X116415000Y-72700000D03*
X116415000Y-73350000D03*
X116415000Y-74000000D03*
X116415000Y-74650000D03*
X116415000Y-75300000D03*
X116415000Y-75950000D03*
X116415000Y-76600000D03*
X116415000Y-77250000D03*
X123615000Y-77250000D03*
X123615000Y-76600000D03*
X123615000Y-75950000D03*
X123615000Y-75300000D03*
X123615000Y-74650000D03*
X123615000Y-74000000D03*
X123615000Y-73350000D03*
X123615000Y-72700000D03*
X123615000Y-72050000D03*
X123615000Y-71400000D03*
X123615000Y-70750000D03*
X123615000Y-70100000D03*
X123615000Y-69450000D03*
X123615000Y-68800000D03*
D30*
X102890000Y-98587500D03*
X102890000Y-87157500D03*
D31*
X109240000Y-88427500D03*
D32*
X111780000Y-89697500D03*
X109240000Y-90967500D03*
X111780000Y-92237500D03*
X109240000Y-93507500D03*
X111780000Y-94777500D03*
X109240000Y-96047500D03*
X111780000Y-97317500D03*
D13*
X170307000Y-88011000D03*
X170307000Y-90551000D03*
X170307000Y-93091000D03*
X170307000Y-95631000D03*
X170307000Y-98171000D03*
X170307000Y-100711000D03*
X170307000Y-103251000D03*
X170307000Y-105791000D03*
X183007000Y-105791000D03*
X183007000Y-103251000D03*
X183007000Y-100711000D03*
X183007000Y-98171000D03*
X183007000Y-95631000D03*
X183007000Y-93091000D03*
X183007000Y-90551000D03*
X183007000Y-88011000D03*
D33*
X175982000Y-77930000D03*
D34*
X170902000Y-77930000D03*
D24*
X148432100Y-95311500D03*
X148432100Y-98236500D03*
D28*
X157287500Y-82804000D03*
X160212500Y-82804000D03*
X157287500Y-76327000D03*
X160212500Y-76327000D03*
D14*
X141836900Y-98236500D03*
X141836900Y-95311500D03*
D17*
X127254000Y-76642000D03*
X127254000Y-74742000D03*
D16*
X113030000Y-69662000D03*
X113030000Y-71562000D03*
D24*
X122051400Y-95311500D03*
X122051400Y-98236500D03*
D27*
X159690900Y-69861800D03*
X159690900Y-71131800D03*
X159690900Y-72401800D03*
X159690900Y-73671800D03*
X164640900Y-73671800D03*
X164640900Y-72401800D03*
X164640900Y-71131800D03*
X164640900Y-69861800D03*
D24*
X128646600Y-95311500D03*
X128646600Y-98236500D03*
D35*
X172654000Y-84582000D03*
X170754000Y-84582000D03*
D24*
X118753800Y-95311500D03*
X118753800Y-98236500D03*
D16*
X127254000Y-69916000D03*
X127254000Y-71816000D03*
D15*
X182000000Y-112000000D03*
D24*
X131944200Y-95311500D03*
X131944200Y-98236500D03*
D35*
X124460000Y-111760000D03*
X122560000Y-111760000D03*
D25*
X152400000Y-111760000D03*
D26*
X154940000Y-111760000D03*
D19*
X122148500Y-80772000D03*
X123723500Y-80772000D03*
D25*
X136413000Y-111760000D03*
D26*
X138953000Y-111760000D03*
X141493000Y-111760000D03*
D13*
X106299000Y-109728000D03*
D36*
X106299000Y-112268000D03*
D13*
X106299000Y-107188000D03*
X106299000Y-104648000D03*
D25*
X182880000Y-72654000D03*
D26*
X182880000Y-75194000D03*
X182880000Y-77734000D03*
X182880000Y-80274000D03*
M02*
