M48
; DRILL file {KiCad (6.0.6)} date Mon Jul 11 11:59:15 2022
; FORMAT={-:-/ absolute / metric / decimal}
; #@! TF.CreationDate,2022-07-11T11:59:15+03:00
; #@! TF.GenerationSoftware,Kicad,Pcbnew,(6.0.6)
; #@! TF.FileFunction,Plated,1,4,PTH
FMAT,2
METRIC
; #@! TA.AperFunction,Plated,PTH,ViaDrill
T1C0.400
; #@! TA.AperFunction,Plated,PTH,ViaDrill
T2C0.600
; #@! TA.AperFunction,Plated,PTH,ComponentDrill
T3C0.760
; #@! TA.AperFunction,Plated,PTH,ComponentDrill
T4C0.762
; #@! TA.AperFunction,Plated,PTH,ComponentDrill
T5C0.950
; #@! TA.AperFunction,Plated,PTH,ComponentDrill
T6C1.000
; #@! TA.AperFunction,Plated,PTH,ComponentDrill
T7C1.300
; #@! TA.AperFunction,Plated,PTH,ComponentDrill
T8C2.300
; #@! TA.AperFunction,Plated,PTH,ComponentDrill
T9C3.200
%
G90
G05
T1
X118.44Y-71.907
X125.384Y-77.453
X125.578Y-69.24
X129.016Y-76.595
X135.28Y-94.142
X144.145Y-91.044
X156.456Y-106.523
X158.078Y-73.376
X159.048Y-75.638
X160.039Y-68.952
T2
X129.286Y-73.152
X154.788Y-76.632
X161.588Y-75.265
X164.186Y-75.26
T3
X109.24Y-88.427
X109.24Y-90.968
X109.24Y-93.507
X109.24Y-96.047
X111.78Y-89.697
X111.78Y-92.237
X111.78Y-94.777
X111.78Y-97.317
T4
X106.299Y-104.648
X106.299Y-107.188
X106.299Y-109.728
X106.299Y-112.268
X161.544Y-92.456
X161.544Y-94.996
X161.544Y-97.536
X161.544Y-100.076
X170.307Y-88.011
X170.307Y-90.551
X170.307Y-93.091
X170.307Y-95.631
X170.307Y-98.171
X170.307Y-100.711
X170.307Y-103.251
X170.307Y-105.791
X183.007Y-88.011
X183.007Y-90.551
X183.007Y-93.091
X183.007Y-95.631
X183.007Y-98.171
X183.007Y-100.711
X183.007Y-103.251
X183.007Y-105.791
T5
X106.407Y-73.68
X106.407Y-76.18
X108.407Y-73.68
X108.407Y-76.18
T6
X117.094Y-88.646
X117.094Y-103.886
X119.634Y-88.646
X119.634Y-103.886
X122.174Y-88.646
X122.174Y-103.886
X124.714Y-88.646
X124.714Y-103.886
X127.254Y-88.646
X127.254Y-103.886
X128.778Y-111.76
X129.794Y-88.646
X129.794Y-103.886
X131.318Y-111.76
X132.334Y-88.646
X132.334Y-103.886
X134.544Y-68.961
X134.544Y-71.501
X134.544Y-74.041
X134.544Y-76.581
X134.544Y-79.121
X134.544Y-81.661
X134.874Y-88.646
X134.874Y-103.886
X136.413Y-111.76
X137.414Y-88.646
X137.414Y-103.886
X138.953Y-111.76
X139.954Y-88.646
X139.954Y-103.886
X141.493Y-111.76
X142.494Y-88.646
X142.494Y-103.886
X144.704Y-68.961
X144.704Y-71.501
X144.704Y-74.041
X144.704Y-76.581
X144.704Y-79.121
X144.704Y-81.661
X145.034Y-88.646
X145.034Y-103.886
X147.574Y-88.646
X147.574Y-103.886
X150.114Y-88.646
X150.114Y-103.886
X152.4Y-111.76
X152.654Y-88.646
X152.654Y-103.886
X154.94Y-111.76
X155.194Y-88.646
X155.194Y-103.886
X157.734Y-88.646
X157.734Y-103.886
X160.274Y-88.646
X160.274Y-103.886
X162.814Y-88.646
X162.814Y-103.886
X164.405Y-77.592
X164.405Y-80.132
X165.354Y-88.646
X165.354Y-103.886
X173.858Y-111.252
X176.398Y-111.252
X182.88Y-72.654
X182.88Y-75.194
X182.88Y-77.734
X182.88Y-80.274
T7
X170.902Y-77.93
X175.982Y-77.93
T8
X103.547Y-68.93
X103.547Y-80.93
T9
X117.0Y-112.0
X140.0Y-72.381
X182.0Y-112.0
T0
M30
