G04 #@! TF.GenerationSoftware,KiCad,Pcbnew,(6.0.6)*
G04 #@! TF.CreationDate,2022-07-11T11:59:08+03:00*
G04 #@! TF.ProjectId,RegulusFocuser-V1.1,52656775-6c75-4734-966f-63757365722d,rev?*
G04 #@! TF.SameCoordinates,Original*
G04 #@! TF.FileFunction,Copper,L2,Inr*
G04 #@! TF.FilePolarity,Positive*
%FSLAX46Y46*%
G04 Gerber Fmt 4.6, Leading zero omitted, Abs format (unit mm)*
G04 Created by KiCad (PCBNEW (6.0.6)) date 2022-07-11 11:59:08*
%MOMM*%
%LPD*%
G01*
G04 APERTURE LIST*
G04 Aperture macros list*
%AMRoundRect*
0 Rectangle with rounded corners*
0 $1 Rounding radius*
0 $2 $3 $4 $5 $6 $7 $8 $9 X,Y pos of 4 corners*
0 Add a 4 corners polygon primitive as box body*
4,1,4,$2,$3,$4,$5,$6,$7,$8,$9,$2,$3,0*
0 Add four circle primitives for the rounded corners*
1,1,$1+$1,$2,$3*
1,1,$1+$1,$4,$5*
1,1,$1+$1,$6,$7*
1,1,$1+$1,$8,$9*
0 Add four rect primitives between the rounded corners*
20,1,$1+$1,$2,$3,$4,$5,0*
20,1,$1+$1,$4,$5,$6,$7,0*
20,1,$1+$1,$6,$7,$8,$9,0*
20,1,$1+$1,$8,$9,$2,$3,0*%
G04 Aperture macros list end*
G04 #@! TA.AperFunction,ComponentPad*
%ADD10RoundRect,0.425000X-0.425000X0.425000X-0.425000X-0.425000X0.425000X-0.425000X0.425000X0.425000X0*%
G04 #@! TD*
G04 #@! TA.AperFunction,ComponentPad*
%ADD11C,1.700000*%
G04 #@! TD*
G04 #@! TA.AperFunction,ComponentPad*
%ADD12C,1.524000*%
G04 #@! TD*
G04 #@! TA.AperFunction,ComponentPad*
%ADD13C,5.600000*%
G04 #@! TD*
G04 #@! TA.AperFunction,ComponentPad*
%ADD14R,1.600000X1.600000*%
G04 #@! TD*
G04 #@! TA.AperFunction,ComponentPad*
%ADD15C,1.600000*%
G04 #@! TD*
G04 #@! TA.AperFunction,ComponentPad*
%ADD16C,4.000000*%
G04 #@! TD*
G04 #@! TA.AperFunction,ComponentPad*
%ADD17R,1.700000X1.700000*%
G04 #@! TD*
G04 #@! TA.AperFunction,ComponentPad*
%ADD18O,1.700000X1.700000*%
G04 #@! TD*
G04 #@! TA.AperFunction,ComponentPad*
%ADD19R,1.500000X1.500000*%
G04 #@! TD*
G04 #@! TA.AperFunction,ComponentPad*
%ADD20C,1.500000*%
G04 #@! TD*
G04 #@! TA.AperFunction,ComponentPad*
%ADD21R,2.600000X2.600000*%
G04 #@! TD*
G04 #@! TA.AperFunction,ComponentPad*
%ADD22C,2.600000*%
G04 #@! TD*
G04 #@! TA.AperFunction,ComponentPad*
%ADD23RoundRect,0.381000X0.381000X0.381000X-0.381000X0.381000X-0.381000X-0.381000X0.381000X-0.381000X0*%
G04 #@! TD*
G04 #@! TA.AperFunction,ViaPad*
%ADD24C,1.200000*%
G04 #@! TD*
G04 #@! TA.AperFunction,ViaPad*
%ADD25C,0.800000*%
G04 #@! TD*
G04 #@! TA.AperFunction,Conductor*
%ADD26C,0.350000*%
G04 #@! TD*
G04 #@! TA.AperFunction,Conductor*
%ADD27C,0.700000*%
G04 #@! TD*
G04 #@! TA.AperFunction,Conductor*
%ADD28C,0.250000*%
G04 #@! TD*
G04 APERTURE END LIST*
D10*
X117094000Y-103886000D03*
D11*
X119634000Y-103886000D03*
X122174000Y-103886000D03*
X124714000Y-103886000D03*
X127254000Y-103886000D03*
X129794000Y-103886000D03*
X132334000Y-103886000D03*
X134874000Y-103886000D03*
X137414000Y-103886000D03*
X139954000Y-103886000D03*
X142494000Y-103886000D03*
X145034000Y-103886000D03*
X147574000Y-103886000D03*
X150114000Y-103886000D03*
X152654000Y-103886000D03*
X155194000Y-103886000D03*
X157734000Y-103886000D03*
X160274000Y-103886000D03*
X162814000Y-103886000D03*
X165354000Y-103886000D03*
X165354000Y-88646000D03*
X162814000Y-88646000D03*
X160274000Y-88646000D03*
X157734000Y-88646000D03*
X155194000Y-88646000D03*
X152654000Y-88646000D03*
X150114000Y-88646000D03*
X147574000Y-88646000D03*
X145034000Y-88646000D03*
X142494000Y-88646000D03*
X139954000Y-88646000D03*
X137414000Y-88646000D03*
X134874000Y-88646000D03*
X132334000Y-88646000D03*
X129794000Y-88646000D03*
X127254000Y-88646000D03*
X124714000Y-88646000D03*
X122174000Y-88646000D03*
X119634000Y-88646000D03*
X117094000Y-88646000D03*
D12*
X161544000Y-100076000D03*
X161544000Y-97536000D03*
X161544000Y-94996000D03*
X161544000Y-92456000D03*
D13*
X140000000Y-72381000D03*
D11*
X134543800Y-68961000D03*
X134543800Y-71501000D03*
X134543800Y-74041000D03*
X134543800Y-76581000D03*
X134543800Y-79121000D03*
X134543800Y-81661000D03*
X144703800Y-81661000D03*
X144703800Y-79121000D03*
X144703800Y-76581000D03*
X144703800Y-74041000D03*
X144703800Y-71501000D03*
X144703800Y-68961000D03*
D13*
X117000000Y-112000000D03*
D14*
X108407500Y-76180000D03*
D15*
X108407500Y-73680000D03*
X106407500Y-73680000D03*
X106407500Y-76180000D03*
D16*
X103547500Y-80930000D03*
X103547500Y-68930000D03*
D17*
X164405000Y-77592000D03*
D18*
X164405000Y-80132000D03*
D17*
X128778000Y-111760000D03*
D18*
X131318000Y-111760000D03*
D17*
X173858000Y-111252000D03*
D18*
X176398000Y-111252000D03*
D19*
X109240000Y-88427500D03*
D20*
X111780000Y-89697500D03*
X109240000Y-90967500D03*
X111780000Y-92237500D03*
X109240000Y-93507500D03*
X111780000Y-94777500D03*
X109240000Y-96047500D03*
X111780000Y-97317500D03*
D12*
X170307000Y-88011000D03*
X170307000Y-90551000D03*
X170307000Y-93091000D03*
X170307000Y-95631000D03*
X170307000Y-98171000D03*
X170307000Y-100711000D03*
X170307000Y-103251000D03*
X170307000Y-105791000D03*
X183007000Y-105791000D03*
X183007000Y-103251000D03*
X183007000Y-100711000D03*
X183007000Y-98171000D03*
X183007000Y-95631000D03*
X183007000Y-93091000D03*
X183007000Y-90551000D03*
X183007000Y-88011000D03*
D21*
X175982000Y-77930000D03*
D22*
X170902000Y-77930000D03*
D13*
X182000000Y-112000000D03*
D17*
X152400000Y-111760000D03*
D18*
X154940000Y-111760000D03*
D17*
X136413000Y-111760000D03*
D18*
X138953000Y-111760000D03*
X141493000Y-111760000D03*
D12*
X106299000Y-109728000D03*
D23*
X106299000Y-112268000D03*
D12*
X106299000Y-107188000D03*
X106299000Y-104648000D03*
D17*
X182880000Y-72654000D03*
D18*
X182880000Y-75194000D03*
X182880000Y-77734000D03*
X182880000Y-80274000D03*
D24*
X164185600Y-75260200D03*
X154787600Y-76631800D03*
D25*
X118440200Y-71907400D03*
D24*
X129286000Y-73152000D03*
D25*
X125577600Y-69240400D03*
X158078200Y-73375700D03*
X144144900Y-91043800D03*
X159047600Y-75637900D03*
X160038700Y-68952100D03*
X135279600Y-94141700D03*
X156456100Y-106523200D03*
X129016200Y-76595200D03*
X125384300Y-77452900D03*
D24*
X161588500Y-75265400D03*
D26*
X118638000Y-76180000D02*
X108407500Y-76180000D01*
X125577600Y-69240400D02*
X118638000Y-76180000D01*
D27*
X181230900Y-96394900D02*
X183007000Y-98171000D01*
X181230900Y-79383100D02*
X181230900Y-96394900D01*
X182880000Y-77734000D02*
X181230900Y-79383100D01*
X184520100Y-91577900D02*
X183007000Y-93091000D01*
X184520100Y-74294100D02*
X184520100Y-91577900D01*
X182880000Y-72654000D02*
X184520100Y-74294100D01*
D28*
X143764000Y-90662900D02*
X144144900Y-91043800D01*
X143764000Y-87706200D02*
X143764000Y-90662900D01*
X143498500Y-87440700D02*
X143764000Y-87706200D01*
X143498500Y-72706300D02*
X143498500Y-87440700D01*
X144703800Y-71501000D02*
X143498500Y-72706300D01*
X136144000Y-93277300D02*
X135279600Y-94141700D01*
X136144000Y-84413000D02*
X136144000Y-93277300D01*
X136834700Y-83722300D02*
X136144000Y-84413000D01*
X136834700Y-71091800D02*
X136834700Y-83722300D01*
X138965500Y-68961000D02*
X136834700Y-71091800D01*
X144703800Y-68961000D02*
X138965500Y-68961000D01*
X159494800Y-102125200D02*
X157734000Y-103886000D01*
X166352800Y-102125200D02*
X159494800Y-102125200D01*
X170307000Y-98171000D02*
X166352800Y-102125200D01*
X157405100Y-101674900D02*
X155194000Y-103886000D01*
X164263100Y-101674900D02*
X157405100Y-101674900D01*
X170307000Y-95631000D02*
X164263100Y-101674900D01*
X155339500Y-101200500D02*
X152654000Y-103886000D01*
X162197500Y-101200500D02*
X155339500Y-101200500D01*
X170307000Y-93091000D02*
X162197500Y-101200500D01*
X155372000Y-98628000D02*
X150114000Y-103886000D01*
X162230000Y-98628000D02*
X155372000Y-98628000D01*
X170307000Y-90551000D02*
X162230000Y-98628000D01*
X159098600Y-89821400D02*
X145034000Y-103886000D01*
X168496600Y-89821400D02*
X159098600Y-89821400D01*
X170307000Y-88011000D02*
X168496600Y-89821400D01*
X131064000Y-102616000D02*
X129794000Y-103886000D01*
X131064000Y-78349100D02*
X131064000Y-102616000D01*
X134102100Y-75311000D02*
X131064000Y-78349100D01*
X134946100Y-75311000D02*
X134102100Y-75311000D01*
X135756600Y-74500500D02*
X134946100Y-75311000D01*
X135756600Y-72713800D02*
X135756600Y-74500500D01*
X134543800Y-71501000D02*
X135756600Y-72713800D01*
X133698600Y-102521400D02*
X132334000Y-103886000D01*
X133698600Y-86221500D02*
X133698600Y-102521400D01*
X136207000Y-83713100D02*
X133698600Y-86221500D01*
X136207000Y-70624200D02*
X136207000Y-83713100D01*
X134543800Y-68961000D02*
X136207000Y-70624200D01*
X128524000Y-92456000D02*
X124714000Y-88646000D01*
X128524000Y-106078800D02*
X128524000Y-92456000D01*
X135901700Y-113456500D02*
X128524000Y-106078800D01*
X149528200Y-113456500D02*
X135901700Y-113456500D01*
X151224700Y-111760000D02*
X149528200Y-113456500D01*
X152400000Y-111760000D02*
X151224700Y-111760000D01*
X124968000Y-111760000D02*
X117094000Y-103886000D01*
X128778000Y-111760000D02*
X124968000Y-111760000D01*
X141224000Y-94996000D02*
X147574000Y-88646000D01*
X141224000Y-108313700D02*
X141224000Y-94996000D01*
X138953000Y-110584700D02*
X141224000Y-108313700D01*
X138953000Y-111760000D02*
X138953000Y-110584700D01*
X143764000Y-94996000D02*
X150114000Y-88646000D01*
X143764000Y-106556200D02*
X143764000Y-94996000D01*
X140223000Y-110097200D02*
X143764000Y-106556200D01*
X140223000Y-112152500D02*
X140223000Y-110097200D01*
X139414200Y-112961300D02*
X140223000Y-112152500D01*
X138422300Y-112961300D02*
X139414200Y-112961300D01*
X137588300Y-112127300D02*
X138422300Y-112961300D01*
X137588300Y-111760000D02*
X137588300Y-112127300D01*
X136413000Y-111760000D02*
X137588300Y-111760000D01*
D26*
X119852500Y-90967500D02*
X122174000Y-88646000D01*
X109240000Y-90967500D02*
X119852500Y-90967500D01*
X122174000Y-86410800D02*
X122174000Y-88646000D01*
X134543800Y-74041000D02*
X122174000Y-86410800D01*
X167640000Y-111252000D02*
X160274000Y-103886000D01*
X173858000Y-111252000D02*
X167640000Y-111252000D01*
X160474200Y-74151100D02*
X161588500Y-75265400D01*
X144813900Y-74151100D02*
X160474200Y-74151100D01*
X144703800Y-74041000D02*
X144813900Y-74151100D01*
D28*
X106299000Y-112268000D02*
X106299000Y-109728000D01*
M02*
