%FSLAX45Y45*%
G04 Gerber Fmt 4.5, Leading zero omitted, Abs format (unit mm)*
G04 Created by KiCad (PCBNEW (6.0.6)) date 2022-07-11 11:59:16*
%MOMM*%
%LPD*%
G01*
G04 APERTURE LIST*
%TA.AperFunction,Profile*%
%ADD10C,0.100000*%
%TD*%
%ADD11C,0.200000*%
%ADD12C,0.040000*%
%ADD13C,0.060000*%
%ADD14C,0.076000*%
%ADD15C,0.076200*%
%ADD16C,0.095000*%
%ADD17C,0.100000*%
%ADD18C,0.130000*%
%ADD19C,0.230000*%
%ADD20C,0.320000*%
G04 APERTURE END LIST*
D10*
X9906000Y-6604000D02*
X18542000Y-6604000D01*
X18542000Y-6604000D02*
X18542000Y-11557000D01*
X18542000Y-11557000D02*
X9906000Y-11557000D01*
X9906000Y-11557000D02*
X9906000Y-6604000D01*
D11*
D12*
X11824020Y-7170740D02*
X11864020Y-7210740D01*
X11864020Y-7170740D02*
X11824020Y-7210740D01*
X12518430Y-7725290D02*
X12558430Y-7765290D01*
X12558430Y-7725290D02*
X12518430Y-7765290D01*
X12537760Y-6904040D02*
X12577760Y-6944040D01*
X12577760Y-6904040D02*
X12537760Y-6944040D01*
X12881620Y-7639520D02*
X12921620Y-7679520D01*
X12921620Y-7639520D02*
X12881620Y-7679520D01*
X13507960Y-9394170D02*
X13547960Y-9434170D01*
X13547960Y-9394170D02*
X13507960Y-9434170D01*
X14394490Y-9084380D02*
X14434490Y-9124380D01*
X14434490Y-9084380D02*
X14394490Y-9124380D01*
X15625610Y-10632320D02*
X15665610Y-10672320D01*
X15665610Y-10632320D02*
X15625610Y-10672320D01*
X15787820Y-7317570D02*
X15827820Y-7357570D01*
X15827820Y-7317570D02*
X15787820Y-7357570D01*
X15884760Y-7543790D02*
X15924760Y-7583790D01*
X15924760Y-7543790D02*
X15884760Y-7583790D01*
X15983870Y-6875210D02*
X16023870Y-6915210D01*
X16023870Y-6875210D02*
X15983870Y-6915210D01*
D13*
X12958600Y-7315200D02*
G75*
G03*
X12958600Y-7315200I-30000J0D01*
G01*
X15508760Y-7663180D02*
G75*
G03*
X15508760Y-7663180I-30000J0D01*
G01*
X16188850Y-7526540D02*
G75*
G03*
X16188850Y-7526540I-30000J0D01*
G01*
X16448560Y-7526020D02*
G75*
G03*
X16448560Y-7526020I-30000J0D01*
G01*
D14*
X10924000Y-8804750D02*
X10924000Y-8880750D01*
X10886000Y-8842750D02*
X10962000Y-8842750D01*
X10924000Y-9058750D02*
X10924000Y-9134750D01*
X10886000Y-9096750D02*
X10962000Y-9096750D01*
X10924000Y-9312750D02*
X10924000Y-9388750D01*
X10886000Y-9350750D02*
X10962000Y-9350750D01*
X10924000Y-9566750D02*
X10924000Y-9642750D01*
X10886000Y-9604750D02*
X10962000Y-9604750D01*
X11178000Y-8931750D02*
X11178000Y-9007750D01*
X11140000Y-8969750D02*
X11216000Y-8969750D01*
X11178000Y-9185750D02*
X11178000Y-9261750D01*
X11140000Y-9223750D02*
X11216000Y-9223750D01*
X11178000Y-9439750D02*
X11178000Y-9515750D01*
X11140000Y-9477750D02*
X11216000Y-9477750D01*
X11178000Y-9693750D02*
X11178000Y-9769750D01*
X11140000Y-9731750D02*
X11216000Y-9731750D01*
D15*
X10656841Y-10491741D02*
X10656841Y-10437859D01*
X10602959Y-10437859D01*
X10602959Y-10491741D01*
X10656841Y-10491741D01*
X10656841Y-10745741D02*
X10656841Y-10691859D01*
X10602959Y-10691859D01*
X10602959Y-10745741D01*
X10656841Y-10745741D01*
X10656841Y-10999741D02*
X10656841Y-10945859D01*
X10602959Y-10945859D01*
X10602959Y-10999741D01*
X10656841Y-10999741D01*
X10656841Y-11253741D02*
X10656841Y-11199859D01*
X10602959Y-11199859D01*
X10602959Y-11253741D01*
X10656841Y-11253741D01*
X16181341Y-9272541D02*
X16181341Y-9218659D01*
X16127459Y-9218659D01*
X16127459Y-9272541D01*
X16181341Y-9272541D01*
X16181341Y-9526541D02*
X16181341Y-9472659D01*
X16127459Y-9472659D01*
X16127459Y-9526541D01*
X16181341Y-9526541D01*
X16181341Y-9780541D02*
X16181341Y-9726659D01*
X16127459Y-9726659D01*
X16127459Y-9780541D01*
X16181341Y-9780541D01*
X16181341Y-10034541D02*
X16181341Y-9980659D01*
X16127459Y-9980659D01*
X16127459Y-10034541D01*
X16181341Y-10034541D01*
X17057641Y-8828041D02*
X17057641Y-8774159D01*
X17003759Y-8774159D01*
X17003759Y-8828041D01*
X17057641Y-8828041D01*
X17057641Y-9082041D02*
X17057641Y-9028159D01*
X17003759Y-9028159D01*
X17003759Y-9082041D01*
X17057641Y-9082041D01*
X17057641Y-9336041D02*
X17057641Y-9282159D01*
X17003759Y-9282159D01*
X17003759Y-9336041D01*
X17057641Y-9336041D01*
X17057641Y-9590041D02*
X17057641Y-9536159D01*
X17003759Y-9536159D01*
X17003759Y-9590041D01*
X17057641Y-9590041D01*
X17057641Y-9844041D02*
X17057641Y-9790159D01*
X17003759Y-9790159D01*
X17003759Y-9844041D01*
X17057641Y-9844041D01*
X17057641Y-10098041D02*
X17057641Y-10044159D01*
X17003759Y-10044159D01*
X17003759Y-10098041D01*
X17057641Y-10098041D01*
X17057641Y-10352041D02*
X17057641Y-10298159D01*
X17003759Y-10298159D01*
X17003759Y-10352041D01*
X17057641Y-10352041D01*
X17057641Y-10606041D02*
X17057641Y-10552159D01*
X17003759Y-10552159D01*
X17003759Y-10606041D01*
X17057641Y-10606041D01*
X18327641Y-8828041D02*
X18327641Y-8774159D01*
X18273759Y-8774159D01*
X18273759Y-8828041D01*
X18327641Y-8828041D01*
X18327641Y-9082041D02*
X18327641Y-9028159D01*
X18273759Y-9028159D01*
X18273759Y-9082041D01*
X18327641Y-9082041D01*
X18327641Y-9336041D02*
X18327641Y-9282159D01*
X18273759Y-9282159D01*
X18273759Y-9336041D01*
X18327641Y-9336041D01*
X18327641Y-9590041D02*
X18327641Y-9536159D01*
X18273759Y-9536159D01*
X18273759Y-9590041D01*
X18327641Y-9590041D01*
X18327641Y-9844041D02*
X18327641Y-9790159D01*
X18273759Y-9790159D01*
X18273759Y-9844041D01*
X18327641Y-9844041D01*
X18327641Y-10098041D02*
X18327641Y-10044159D01*
X18273759Y-10044159D01*
X18273759Y-10098041D01*
X18327641Y-10098041D01*
X18327641Y-10352041D02*
X18327641Y-10298159D01*
X18273759Y-10298159D01*
X18273759Y-10352041D01*
X18327641Y-10352041D01*
X18327641Y-10606041D02*
X18327641Y-10552159D01*
X18273759Y-10552159D01*
X18273759Y-10606041D01*
X18327641Y-10606041D01*
D16*
X10640750Y-7415500D02*
X10688250Y-7368000D01*
X10640750Y-7320500D01*
X10593250Y-7368000D01*
X10640750Y-7415500D01*
X10640750Y-7665500D02*
X10688250Y-7618000D01*
X10640750Y-7570500D01*
X10593250Y-7618000D01*
X10640750Y-7665500D01*
X10840750Y-7415500D02*
X10888250Y-7368000D01*
X10840750Y-7320500D01*
X10793250Y-7368000D01*
X10840750Y-7415500D01*
X10840750Y-7665500D02*
X10888250Y-7618000D01*
X10840750Y-7570500D01*
X10793250Y-7618000D01*
X10840750Y-7665500D01*
D17*
X11659400Y-8814600D02*
X11759400Y-8914600D01*
X11759400Y-8814600D02*
X11659400Y-8914600D01*
X11759400Y-8864600D02*
G75*
G03*
X11759400Y-8864600I-50000J0D01*
G01*
X11659400Y-10338600D02*
X11759400Y-10438600D01*
X11759400Y-10338600D02*
X11659400Y-10438600D01*
X11759400Y-10388600D02*
G75*
G03*
X11759400Y-10388600I-50000J0D01*
G01*
X11913400Y-8814600D02*
X12013400Y-8914600D01*
X12013400Y-8814600D02*
X11913400Y-8914600D01*
X12013400Y-8864600D02*
G75*
G03*
X12013400Y-8864600I-50000J0D01*
G01*
X11913400Y-10338600D02*
X12013400Y-10438600D01*
X12013400Y-10338600D02*
X11913400Y-10438600D01*
X12013400Y-10388600D02*
G75*
G03*
X12013400Y-10388600I-50000J0D01*
G01*
X12167400Y-8814600D02*
X12267400Y-8914600D01*
X12267400Y-8814600D02*
X12167400Y-8914600D01*
X12267400Y-8864600D02*
G75*
G03*
X12267400Y-8864600I-50000J0D01*
G01*
X12167400Y-10338600D02*
X12267400Y-10438600D01*
X12267400Y-10338600D02*
X12167400Y-10438600D01*
X12267400Y-10388600D02*
G75*
G03*
X12267400Y-10388600I-50000J0D01*
G01*
X12421400Y-8814600D02*
X12521400Y-8914600D01*
X12521400Y-8814600D02*
X12421400Y-8914600D01*
X12521400Y-8864600D02*
G75*
G03*
X12521400Y-8864600I-50000J0D01*
G01*
X12421400Y-10338600D02*
X12521400Y-10438600D01*
X12521400Y-10338600D02*
X12421400Y-10438600D01*
X12521400Y-10388600D02*
G75*
G03*
X12521400Y-10388600I-50000J0D01*
G01*
X12675400Y-8814600D02*
X12775400Y-8914600D01*
X12775400Y-8814600D02*
X12675400Y-8914600D01*
X12775400Y-8864600D02*
G75*
G03*
X12775400Y-8864600I-50000J0D01*
G01*
X12675400Y-10338600D02*
X12775400Y-10438600D01*
X12775400Y-10338600D02*
X12675400Y-10438600D01*
X12775400Y-10388600D02*
G75*
G03*
X12775400Y-10388600I-50000J0D01*
G01*
X12827800Y-11126000D02*
X12927800Y-11226000D01*
X12927800Y-11126000D02*
X12827800Y-11226000D01*
X12927800Y-11176000D02*
G75*
G03*
X12927800Y-11176000I-50000J0D01*
G01*
X12929400Y-8814600D02*
X13029400Y-8914600D01*
X13029400Y-8814600D02*
X12929400Y-8914600D01*
X13029400Y-8864600D02*
G75*
G03*
X13029400Y-8864600I-50000J0D01*
G01*
X12929400Y-10338600D02*
X13029400Y-10438600D01*
X13029400Y-10338600D02*
X12929400Y-10438600D01*
X13029400Y-10388600D02*
G75*
G03*
X13029400Y-10388600I-50000J0D01*
G01*
X13081800Y-11126000D02*
X13181800Y-11226000D01*
X13181800Y-11126000D02*
X13081800Y-11226000D01*
X13181800Y-11176000D02*
G75*
G03*
X13181800Y-11176000I-50000J0D01*
G01*
X13183400Y-8814600D02*
X13283400Y-8914600D01*
X13283400Y-8814600D02*
X13183400Y-8914600D01*
X13283400Y-8864600D02*
G75*
G03*
X13283400Y-8864600I-50000J0D01*
G01*
X13183400Y-10338600D02*
X13283400Y-10438600D01*
X13283400Y-10338600D02*
X13183400Y-10438600D01*
X13283400Y-10388600D02*
G75*
G03*
X13283400Y-10388600I-50000J0D01*
G01*
X13404380Y-6846100D02*
X13504380Y-6946100D01*
X13504380Y-6846100D02*
X13404380Y-6946100D01*
X13504380Y-6896100D02*
G75*
G03*
X13504380Y-6896100I-50000J0D01*
G01*
X13404380Y-7100100D02*
X13504380Y-7200100D01*
X13504380Y-7100100D02*
X13404380Y-7200100D01*
X13504380Y-7150100D02*
G75*
G03*
X13504380Y-7150100I-50000J0D01*
G01*
X13404380Y-7354100D02*
X13504380Y-7454100D01*
X13504380Y-7354100D02*
X13404380Y-7454100D01*
X13504380Y-7404100D02*
G75*
G03*
X13504380Y-7404100I-50000J0D01*
G01*
X13404380Y-7608100D02*
X13504380Y-7708100D01*
X13504380Y-7608100D02*
X13404380Y-7708100D01*
X13504380Y-7658100D02*
G75*
G03*
X13504380Y-7658100I-50000J0D01*
G01*
X13404380Y-7862100D02*
X13504380Y-7962100D01*
X13504380Y-7862100D02*
X13404380Y-7962100D01*
X13504380Y-7912100D02*
G75*
G03*
X13504380Y-7912100I-50000J0D01*
G01*
X13404380Y-8116100D02*
X13504380Y-8216100D01*
X13504380Y-8116100D02*
X13404380Y-8216100D01*
X13504380Y-8166100D02*
G75*
G03*
X13504380Y-8166100I-50000J0D01*
G01*
X13437400Y-8814600D02*
X13537400Y-8914600D01*
X13537400Y-8814600D02*
X13437400Y-8914600D01*
X13537400Y-8864600D02*
G75*
G03*
X13537400Y-8864600I-50000J0D01*
G01*
X13437400Y-10338600D02*
X13537400Y-10438600D01*
X13537400Y-10338600D02*
X13437400Y-10438600D01*
X13537400Y-10388600D02*
G75*
G03*
X13537400Y-10388600I-50000J0D01*
G01*
X13591300Y-11126000D02*
X13691300Y-11226000D01*
X13691300Y-11126000D02*
X13591300Y-11226000D01*
X13691300Y-11176000D02*
G75*
G03*
X13691300Y-11176000I-50000J0D01*
G01*
X13691400Y-8814600D02*
X13791400Y-8914600D01*
X13791400Y-8814600D02*
X13691400Y-8914600D01*
X13791400Y-8864600D02*
G75*
G03*
X13791400Y-8864600I-50000J0D01*
G01*
X13691400Y-10338600D02*
X13791400Y-10438600D01*
X13791400Y-10338600D02*
X13691400Y-10438600D01*
X13791400Y-10388600D02*
G75*
G03*
X13791400Y-10388600I-50000J0D01*
G01*
X13845300Y-11126000D02*
X13945300Y-11226000D01*
X13945300Y-11126000D02*
X13845300Y-11226000D01*
X13945300Y-11176000D02*
G75*
G03*
X13945300Y-11176000I-50000J0D01*
G01*
X13945400Y-8814600D02*
X14045400Y-8914600D01*
X14045400Y-8814600D02*
X13945400Y-8914600D01*
X14045400Y-8864600D02*
G75*
G03*
X14045400Y-8864600I-50000J0D01*
G01*
X13945400Y-10338600D02*
X14045400Y-10438600D01*
X14045400Y-10338600D02*
X13945400Y-10438600D01*
X14045400Y-10388600D02*
G75*
G03*
X14045400Y-10388600I-50000J0D01*
G01*
X14099300Y-11126000D02*
X14199300Y-11226000D01*
X14199300Y-11126000D02*
X14099300Y-11226000D01*
X14199300Y-11176000D02*
G75*
G03*
X14199300Y-11176000I-50000J0D01*
G01*
X14199400Y-8814600D02*
X14299400Y-8914600D01*
X14299400Y-8814600D02*
X14199400Y-8914600D01*
X14299400Y-8864600D02*
G75*
G03*
X14299400Y-8864600I-50000J0D01*
G01*
X14199400Y-10338600D02*
X14299400Y-10438600D01*
X14299400Y-10338600D02*
X14199400Y-10438600D01*
X14299400Y-10388600D02*
G75*
G03*
X14299400Y-10388600I-50000J0D01*
G01*
X14420380Y-6846100D02*
X14520380Y-6946100D01*
X14520380Y-6846100D02*
X14420380Y-6946100D01*
X14520380Y-6896100D02*
G75*
G03*
X14520380Y-6896100I-50000J0D01*
G01*
X14420380Y-7100100D02*
X14520380Y-7200100D01*
X14520380Y-7100100D02*
X14420380Y-7200100D01*
X14520380Y-7150100D02*
G75*
G03*
X14520380Y-7150100I-50000J0D01*
G01*
X14420380Y-7354100D02*
X14520380Y-7454100D01*
X14520380Y-7354100D02*
X14420380Y-7454100D01*
X14520380Y-7404100D02*
G75*
G03*
X14520380Y-7404100I-50000J0D01*
G01*
X14420380Y-7608100D02*
X14520380Y-7708100D01*
X14520380Y-7608100D02*
X14420380Y-7708100D01*
X14520380Y-7658100D02*
G75*
G03*
X14520380Y-7658100I-50000J0D01*
G01*
X14420380Y-7862100D02*
X14520380Y-7962100D01*
X14520380Y-7862100D02*
X14420380Y-7962100D01*
X14520380Y-7912100D02*
G75*
G03*
X14520380Y-7912100I-50000J0D01*
G01*
X14420380Y-8116100D02*
X14520380Y-8216100D01*
X14520380Y-8116100D02*
X14420380Y-8216100D01*
X14520380Y-8166100D02*
G75*
G03*
X14520380Y-8166100I-50000J0D01*
G01*
X14453400Y-8814600D02*
X14553400Y-8914600D01*
X14553400Y-8814600D02*
X14453400Y-8914600D01*
X14553400Y-8864600D02*
G75*
G03*
X14553400Y-8864600I-50000J0D01*
G01*
X14453400Y-10338600D02*
X14553400Y-10438600D01*
X14553400Y-10338600D02*
X14453400Y-10438600D01*
X14553400Y-10388600D02*
G75*
G03*
X14553400Y-10388600I-50000J0D01*
G01*
X14707400Y-8814600D02*
X14807400Y-8914600D01*
X14807400Y-8814600D02*
X14707400Y-8914600D01*
X14807400Y-8864600D02*
G75*
G03*
X14807400Y-8864600I-50000J0D01*
G01*
X14707400Y-10338600D02*
X14807400Y-10438600D01*
X14807400Y-10338600D02*
X14707400Y-10438600D01*
X14807400Y-10388600D02*
G75*
G03*
X14807400Y-10388600I-50000J0D01*
G01*
X14961400Y-8814600D02*
X15061400Y-8914600D01*
X15061400Y-8814600D02*
X14961400Y-8914600D01*
X15061400Y-8864600D02*
G75*
G03*
X15061400Y-8864600I-50000J0D01*
G01*
X14961400Y-10338600D02*
X15061400Y-10438600D01*
X15061400Y-10338600D02*
X14961400Y-10438600D01*
X15061400Y-10388600D02*
G75*
G03*
X15061400Y-10388600I-50000J0D01*
G01*
X15190000Y-11126000D02*
X15290000Y-11226000D01*
X15290000Y-11126000D02*
X15190000Y-11226000D01*
X15290000Y-11176000D02*
G75*
G03*
X15290000Y-11176000I-50000J0D01*
G01*
X15215400Y-8814600D02*
X15315400Y-8914600D01*
X15315400Y-8814600D02*
X15215400Y-8914600D01*
X15315400Y-8864600D02*
G75*
G03*
X15315400Y-8864600I-50000J0D01*
G01*
X15215400Y-10338600D02*
X15315400Y-10438600D01*
X15315400Y-10338600D02*
X15215400Y-10438600D01*
X15315400Y-10388600D02*
G75*
G03*
X15315400Y-10388600I-50000J0D01*
G01*
X15444000Y-11126000D02*
X15544000Y-11226000D01*
X15544000Y-11126000D02*
X15444000Y-11226000D01*
X15544000Y-11176000D02*
G75*
G03*
X15544000Y-11176000I-50000J0D01*
G01*
X15469400Y-8814600D02*
X15569400Y-8914600D01*
X15569400Y-8814600D02*
X15469400Y-8914600D01*
X15569400Y-8864600D02*
G75*
G03*
X15569400Y-8864600I-50000J0D01*
G01*
X15469400Y-10338600D02*
X15569400Y-10438600D01*
X15569400Y-10338600D02*
X15469400Y-10438600D01*
X15569400Y-10388600D02*
G75*
G03*
X15569400Y-10388600I-50000J0D01*
G01*
X15723400Y-8814600D02*
X15823400Y-8914600D01*
X15823400Y-8814600D02*
X15723400Y-8914600D01*
X15823400Y-8864600D02*
G75*
G03*
X15823400Y-8864600I-50000J0D01*
G01*
X15723400Y-10338600D02*
X15823400Y-10438600D01*
X15823400Y-10338600D02*
X15723400Y-10438600D01*
X15823400Y-10388600D02*
G75*
G03*
X15823400Y-10388600I-50000J0D01*
G01*
X15977400Y-8814600D02*
X16077400Y-8914600D01*
X16077400Y-8814600D02*
X15977400Y-8914600D01*
X16077400Y-8864600D02*
G75*
G03*
X16077400Y-8864600I-50000J0D01*
G01*
X15977400Y-10338600D02*
X16077400Y-10438600D01*
X16077400Y-10338600D02*
X15977400Y-10438600D01*
X16077400Y-10388600D02*
G75*
G03*
X16077400Y-10388600I-50000J0D01*
G01*
X16231400Y-8814600D02*
X16331400Y-8914600D01*
X16331400Y-8814600D02*
X16231400Y-8914600D01*
X16331400Y-8864600D02*
G75*
G03*
X16331400Y-8864600I-50000J0D01*
G01*
X16231400Y-10338600D02*
X16331400Y-10438600D01*
X16331400Y-10338600D02*
X16231400Y-10438600D01*
X16331400Y-10388600D02*
G75*
G03*
X16331400Y-10388600I-50000J0D01*
G01*
X16390500Y-7709200D02*
X16490500Y-7809200D01*
X16490500Y-7709200D02*
X16390500Y-7809200D01*
X16490500Y-7759200D02*
G75*
G03*
X16490500Y-7759200I-50000J0D01*
G01*
X16390500Y-7963200D02*
X16490500Y-8063200D01*
X16490500Y-7963200D02*
X16390500Y-8063200D01*
X16490500Y-8013200D02*
G75*
G03*
X16490500Y-8013200I-50000J0D01*
G01*
X16485400Y-8814600D02*
X16585400Y-8914600D01*
X16585400Y-8814600D02*
X16485400Y-8914600D01*
X16585400Y-8864600D02*
G75*
G03*
X16585400Y-8864600I-50000J0D01*
G01*
X16485400Y-10338600D02*
X16585400Y-10438600D01*
X16585400Y-10338600D02*
X16485400Y-10438600D01*
X16585400Y-10388600D02*
G75*
G03*
X16585400Y-10388600I-50000J0D01*
G01*
X17335800Y-11075200D02*
X17435800Y-11175200D01*
X17435800Y-11075200D02*
X17335800Y-11175200D01*
X17435800Y-11125200D02*
G75*
G03*
X17435800Y-11125200I-50000J0D01*
G01*
X17589800Y-11075200D02*
X17689800Y-11175200D01*
X17689800Y-11075200D02*
X17589800Y-11175200D01*
X17689800Y-11125200D02*
G75*
G03*
X17689800Y-11125200I-50000J0D01*
G01*
X18238000Y-7215400D02*
X18338000Y-7315400D01*
X18338000Y-7215400D02*
X18238000Y-7315400D01*
X18338000Y-7265400D02*
G75*
G03*
X18338000Y-7265400I-50000J0D01*
G01*
X18238000Y-7469400D02*
X18338000Y-7569400D01*
X18338000Y-7469400D02*
X18238000Y-7569400D01*
X18338000Y-7519400D02*
G75*
G03*
X18338000Y-7519400I-50000J0D01*
G01*
X18238000Y-7723400D02*
X18338000Y-7823400D01*
X18338000Y-7723400D02*
X18238000Y-7823400D01*
X18338000Y-7773400D02*
G75*
G03*
X18338000Y-7773400I-50000J0D01*
G01*
X18238000Y-7977400D02*
X18338000Y-8077400D01*
X18338000Y-7977400D02*
X18238000Y-8077400D01*
X18338000Y-8027400D02*
G75*
G03*
X18338000Y-8027400I-50000J0D01*
G01*
D18*
X17025200Y-7728000D02*
X17155200Y-7858000D01*
X17155200Y-7728000D02*
X17025200Y-7858000D01*
X17090200Y-7728000D02*
X17090200Y-7858000D01*
X17025200Y-7793000D02*
X17155200Y-7793000D01*
X17533200Y-7728000D02*
X17663200Y-7858000D01*
X17663200Y-7728000D02*
X17533200Y-7858000D01*
X17598200Y-7728000D02*
X17598200Y-7858000D01*
X17533200Y-7793000D02*
X17663200Y-7793000D01*
D19*
X10239750Y-6778000D02*
X10469750Y-7008000D01*
X10469750Y-6778000D02*
X10239750Y-7008000D01*
X10436068Y-6974318D02*
X10436068Y-6811682D01*
X10273432Y-6811682D01*
X10273432Y-6974318D01*
X10436068Y-6974318D01*
X10239750Y-7978000D02*
X10469750Y-8208000D01*
X10469750Y-7978000D02*
X10239750Y-8208000D01*
X10436068Y-8174318D02*
X10436068Y-8011682D01*
X10273432Y-8011682D01*
X10273432Y-8174318D01*
X10436068Y-8174318D01*
D20*
X11540000Y-11040000D02*
X11860000Y-11360000D01*
X11860000Y-11040000D02*
X11540000Y-11360000D01*
X11700000Y-11360000D02*
X11860000Y-11200000D01*
X11700000Y-11040000D01*
X11540000Y-11200000D01*
X11700000Y-11360000D01*
X13840000Y-7078100D02*
X14160000Y-7398100D01*
X14160000Y-7078100D02*
X13840000Y-7398100D01*
X14000000Y-7398100D02*
X14160000Y-7238100D01*
X14000000Y-7078100D01*
X13840000Y-7238100D01*
X14000000Y-7398100D01*
X18040000Y-11040000D02*
X18360000Y-11360000D01*
X18360000Y-11040000D02*
X18040000Y-11360000D01*
X18200000Y-11360000D02*
X18360000Y-11200000D01*
X18200000Y-11040000D01*
X18040000Y-11200000D01*
X18200000Y-11360000D01*
D11*
X10158619Y-11872476D02*
X10158619Y-11672476D01*
X10206238Y-11672476D01*
X10234810Y-11682000D01*
X10253857Y-11701048D01*
X10263381Y-11720095D01*
X10272905Y-11758190D01*
X10272905Y-11786762D01*
X10263381Y-11824857D01*
X10253857Y-11843905D01*
X10234810Y-11862952D01*
X10206238Y-11872476D01*
X10158619Y-11872476D01*
X10358619Y-11872476D02*
X10358619Y-11739143D01*
X10358619Y-11777238D02*
X10368143Y-11758190D01*
X10377667Y-11748667D01*
X10396714Y-11739143D01*
X10415762Y-11739143D01*
X10482429Y-11872476D02*
X10482429Y-11739143D01*
X10482429Y-11672476D02*
X10472905Y-11682000D01*
X10482429Y-11691524D01*
X10491952Y-11682000D01*
X10482429Y-11672476D01*
X10482429Y-11691524D01*
X10606238Y-11872476D02*
X10587190Y-11862952D01*
X10577667Y-11843905D01*
X10577667Y-11672476D01*
X10711000Y-11872476D02*
X10691952Y-11862952D01*
X10682429Y-11843905D01*
X10682429Y-11672476D01*
X10939571Y-11872476D02*
X10939571Y-11672476D01*
X11006238Y-11815333D01*
X11072905Y-11672476D01*
X11072905Y-11872476D01*
X11253857Y-11872476D02*
X11253857Y-11767714D01*
X11244333Y-11748667D01*
X11225286Y-11739143D01*
X11187190Y-11739143D01*
X11168143Y-11748667D01*
X11253857Y-11862952D02*
X11234809Y-11872476D01*
X11187190Y-11872476D01*
X11168143Y-11862952D01*
X11158619Y-11843905D01*
X11158619Y-11824857D01*
X11168143Y-11805809D01*
X11187190Y-11796286D01*
X11234809Y-11796286D01*
X11253857Y-11786762D01*
X11349095Y-11739143D02*
X11349095Y-11939143D01*
X11349095Y-11748667D02*
X11368143Y-11739143D01*
X11406238Y-11739143D01*
X11425286Y-11748667D01*
X11434809Y-11758190D01*
X11444333Y-11777238D01*
X11444333Y-11834381D01*
X11434809Y-11853428D01*
X11425286Y-11862952D01*
X11406238Y-11872476D01*
X11368143Y-11872476D01*
X11349095Y-11862952D01*
X11530048Y-11853428D02*
X11539571Y-11862952D01*
X11530048Y-11872476D01*
X11520524Y-11862952D01*
X11530048Y-11853428D01*
X11530048Y-11872476D01*
X11530048Y-11748667D02*
X11539571Y-11758190D01*
X11530048Y-11767714D01*
X11520524Y-11758190D01*
X11530048Y-11748667D01*
X11530048Y-11767714D01*
D12*
X9861000Y-12182000D02*
X9901000Y-12222000D01*
X9901000Y-12182000D02*
X9861000Y-12222000D01*
D11*
X10196714Y-12092476D02*
X10215762Y-12092476D01*
X10234810Y-12102000D01*
X10244333Y-12111524D01*
X10253857Y-12130571D01*
X10263381Y-12168667D01*
X10263381Y-12216286D01*
X10253857Y-12254381D01*
X10244333Y-12273428D01*
X10234810Y-12282952D01*
X10215762Y-12292476D01*
X10196714Y-12292476D01*
X10177667Y-12282952D01*
X10168143Y-12273428D01*
X10158619Y-12254381D01*
X10149095Y-12216286D01*
X10149095Y-12168667D01*
X10158619Y-12130571D01*
X10168143Y-12111524D01*
X10177667Y-12102000D01*
X10196714Y-12092476D01*
X10349095Y-12273428D02*
X10358619Y-12282952D01*
X10349095Y-12292476D01*
X10339571Y-12282952D01*
X10349095Y-12273428D01*
X10349095Y-12292476D01*
X10530048Y-12159143D02*
X10530048Y-12292476D01*
X10482429Y-12082952D02*
X10434810Y-12225809D01*
X10558619Y-12225809D01*
X10672905Y-12092476D02*
X10691952Y-12092476D01*
X10711000Y-12102000D01*
X10720524Y-12111524D01*
X10730048Y-12130571D01*
X10739571Y-12168667D01*
X10739571Y-12216286D01*
X10730048Y-12254381D01*
X10720524Y-12273428D01*
X10711000Y-12282952D01*
X10691952Y-12292476D01*
X10672905Y-12292476D01*
X10653857Y-12282952D01*
X10644333Y-12273428D01*
X10634810Y-12254381D01*
X10625286Y-12216286D01*
X10625286Y-12168667D01*
X10634810Y-12130571D01*
X10644333Y-12111524D01*
X10653857Y-12102000D01*
X10672905Y-12092476D01*
X10863381Y-12092476D02*
X10882429Y-12092476D01*
X10901476Y-12102000D01*
X10911000Y-12111524D01*
X10920524Y-12130571D01*
X10930048Y-12168667D01*
X10930048Y-12216286D01*
X10920524Y-12254381D01*
X10911000Y-12273428D01*
X10901476Y-12282952D01*
X10882429Y-12292476D01*
X10863381Y-12292476D01*
X10844333Y-12282952D01*
X10834810Y-12273428D01*
X10825286Y-12254381D01*
X10815762Y-12216286D01*
X10815762Y-12168667D01*
X10825286Y-12130571D01*
X10834810Y-12111524D01*
X10844333Y-12102000D01*
X10863381Y-12092476D01*
X11015762Y-12292476D02*
X11015762Y-12159143D01*
X11015762Y-12178190D02*
X11025286Y-12168667D01*
X11044333Y-12159143D01*
X11072905Y-12159143D01*
X11091952Y-12168667D01*
X11101476Y-12187714D01*
X11101476Y-12292476D01*
X11101476Y-12187714D02*
X11111000Y-12168667D01*
X11130048Y-12159143D01*
X11158619Y-12159143D01*
X11177667Y-12168667D01*
X11187190Y-12187714D01*
X11187190Y-12292476D01*
X11282428Y-12292476D02*
X11282428Y-12159143D01*
X11282428Y-12178190D02*
X11291952Y-12168667D01*
X11311000Y-12159143D01*
X11339571Y-12159143D01*
X11358619Y-12168667D01*
X11368143Y-12187714D01*
X11368143Y-12292476D01*
X11368143Y-12187714D02*
X11377667Y-12168667D01*
X11396714Y-12159143D01*
X11425286Y-12159143D01*
X11444333Y-12168667D01*
X11453857Y-12187714D01*
X11453857Y-12292476D01*
X11844333Y-12082952D02*
X11672905Y-12340095D01*
X12101476Y-12092476D02*
X12120524Y-12092476D01*
X12139571Y-12102000D01*
X12149095Y-12111524D01*
X12158619Y-12130571D01*
X12168143Y-12168667D01*
X12168143Y-12216286D01*
X12158619Y-12254381D01*
X12149095Y-12273428D01*
X12139571Y-12282952D01*
X12120524Y-12292476D01*
X12101476Y-12292476D01*
X12082428Y-12282952D01*
X12072905Y-12273428D01*
X12063381Y-12254381D01*
X12053857Y-12216286D01*
X12053857Y-12168667D01*
X12063381Y-12130571D01*
X12072905Y-12111524D01*
X12082428Y-12102000D01*
X12101476Y-12092476D01*
X12253857Y-12273428D02*
X12263381Y-12282952D01*
X12253857Y-12292476D01*
X12244333Y-12282952D01*
X12253857Y-12273428D01*
X12253857Y-12292476D01*
X12387190Y-12092476D02*
X12406238Y-12092476D01*
X12425286Y-12102000D01*
X12434809Y-12111524D01*
X12444333Y-12130571D01*
X12453857Y-12168667D01*
X12453857Y-12216286D01*
X12444333Y-12254381D01*
X12434809Y-12273428D01*
X12425286Y-12282952D01*
X12406238Y-12292476D01*
X12387190Y-12292476D01*
X12368143Y-12282952D01*
X12358619Y-12273428D01*
X12349095Y-12254381D01*
X12339571Y-12216286D01*
X12339571Y-12168667D01*
X12349095Y-12130571D01*
X12358619Y-12111524D01*
X12368143Y-12102000D01*
X12387190Y-12092476D01*
X12644333Y-12292476D02*
X12530048Y-12292476D01*
X12587190Y-12292476D02*
X12587190Y-12092476D01*
X12568143Y-12121048D01*
X12549095Y-12140095D01*
X12530048Y-12149619D01*
X12825286Y-12092476D02*
X12730048Y-12092476D01*
X12720524Y-12187714D01*
X12730048Y-12178190D01*
X12749095Y-12168667D01*
X12796714Y-12168667D01*
X12815762Y-12178190D01*
X12825286Y-12187714D01*
X12834809Y-12206762D01*
X12834809Y-12254381D01*
X12825286Y-12273428D01*
X12815762Y-12282952D01*
X12796714Y-12292476D01*
X12749095Y-12292476D01*
X12730048Y-12282952D01*
X12720524Y-12273428D01*
X12901476Y-12092476D02*
X13034809Y-12092476D01*
X12949095Y-12292476D01*
X13101476Y-12092476D02*
X13101476Y-12130571D01*
X13177667Y-12092476D02*
X13177667Y-12130571D01*
X13472905Y-12368667D02*
X13463381Y-12359143D01*
X13444333Y-12330571D01*
X13434809Y-12311524D01*
X13425286Y-12282952D01*
X13415762Y-12235333D01*
X13415762Y-12197238D01*
X13425286Y-12149619D01*
X13434809Y-12121048D01*
X13444333Y-12102000D01*
X13463381Y-12073428D01*
X13472905Y-12063905D01*
X13653857Y-12292476D02*
X13539571Y-12292476D01*
X13596714Y-12292476D02*
X13596714Y-12092476D01*
X13577667Y-12121048D01*
X13558619Y-12140095D01*
X13539571Y-12149619D01*
X13777667Y-12092476D02*
X13796714Y-12092476D01*
X13815762Y-12102000D01*
X13825286Y-12111524D01*
X13834809Y-12130571D01*
X13844333Y-12168667D01*
X13844333Y-12216286D01*
X13834809Y-12254381D01*
X13825286Y-12273428D01*
X13815762Y-12282952D01*
X13796714Y-12292476D01*
X13777667Y-12292476D01*
X13758619Y-12282952D01*
X13749095Y-12273428D01*
X13739571Y-12254381D01*
X13730048Y-12216286D01*
X13730048Y-12168667D01*
X13739571Y-12130571D01*
X13749095Y-12111524D01*
X13758619Y-12102000D01*
X13777667Y-12092476D01*
X14082428Y-12292476D02*
X14082428Y-12092476D01*
X14168143Y-12292476D02*
X14168143Y-12187714D01*
X14158619Y-12168667D01*
X14139571Y-12159143D01*
X14111000Y-12159143D01*
X14091952Y-12168667D01*
X14082428Y-12178190D01*
X14291952Y-12292476D02*
X14272905Y-12282952D01*
X14263381Y-12273428D01*
X14253857Y-12254381D01*
X14253857Y-12197238D01*
X14263381Y-12178190D01*
X14272905Y-12168667D01*
X14291952Y-12159143D01*
X14320524Y-12159143D01*
X14339571Y-12168667D01*
X14349095Y-12178190D01*
X14358619Y-12197238D01*
X14358619Y-12254381D01*
X14349095Y-12273428D01*
X14339571Y-12282952D01*
X14320524Y-12292476D01*
X14291952Y-12292476D01*
X14472905Y-12292476D02*
X14453857Y-12282952D01*
X14444333Y-12263905D01*
X14444333Y-12092476D01*
X14625286Y-12282952D02*
X14606238Y-12292476D01*
X14568143Y-12292476D01*
X14549095Y-12282952D01*
X14539571Y-12263905D01*
X14539571Y-12187714D01*
X14549095Y-12168667D01*
X14568143Y-12159143D01*
X14606238Y-12159143D01*
X14625286Y-12168667D01*
X14634809Y-12187714D01*
X14634809Y-12206762D01*
X14539571Y-12225809D01*
X14711000Y-12282952D02*
X14730048Y-12292476D01*
X14768143Y-12292476D01*
X14787190Y-12282952D01*
X14796714Y-12263905D01*
X14796714Y-12254381D01*
X14787190Y-12235333D01*
X14768143Y-12225809D01*
X14739571Y-12225809D01*
X14720524Y-12216286D01*
X14711000Y-12197238D01*
X14711000Y-12187714D01*
X14720524Y-12168667D01*
X14739571Y-12159143D01*
X14768143Y-12159143D01*
X14787190Y-12168667D01*
X14863381Y-12368667D02*
X14872905Y-12359143D01*
X14891952Y-12330571D01*
X14901476Y-12311524D01*
X14911000Y-12282952D01*
X14920524Y-12235333D01*
X14920524Y-12197238D01*
X14911000Y-12149619D01*
X14901476Y-12121048D01*
X14891952Y-12102000D01*
X14872905Y-12073428D01*
X14863381Y-12063905D01*
D13*
X9901000Y-12466000D02*
G75*
G03*
X9901000Y-12466000I-30000J0D01*
G01*
D11*
X10196714Y-12356476D02*
X10215762Y-12356476D01*
X10234810Y-12366000D01*
X10244333Y-12375524D01*
X10253857Y-12394571D01*
X10263381Y-12432667D01*
X10263381Y-12480286D01*
X10253857Y-12518381D01*
X10244333Y-12537428D01*
X10234810Y-12546952D01*
X10215762Y-12556476D01*
X10196714Y-12556476D01*
X10177667Y-12546952D01*
X10168143Y-12537428D01*
X10158619Y-12518381D01*
X10149095Y-12480286D01*
X10149095Y-12432667D01*
X10158619Y-12394571D01*
X10168143Y-12375524D01*
X10177667Y-12366000D01*
X10196714Y-12356476D01*
X10349095Y-12537428D02*
X10358619Y-12546952D01*
X10349095Y-12556476D01*
X10339571Y-12546952D01*
X10349095Y-12537428D01*
X10349095Y-12556476D01*
X10530048Y-12356476D02*
X10491952Y-12356476D01*
X10472905Y-12366000D01*
X10463381Y-12375524D01*
X10444333Y-12404095D01*
X10434810Y-12442190D01*
X10434810Y-12518381D01*
X10444333Y-12537428D01*
X10453857Y-12546952D01*
X10472905Y-12556476D01*
X10511000Y-12556476D01*
X10530048Y-12546952D01*
X10539571Y-12537428D01*
X10549095Y-12518381D01*
X10549095Y-12470762D01*
X10539571Y-12451714D01*
X10530048Y-12442190D01*
X10511000Y-12432667D01*
X10472905Y-12432667D01*
X10453857Y-12442190D01*
X10444333Y-12451714D01*
X10434810Y-12470762D01*
X10672905Y-12356476D02*
X10691952Y-12356476D01*
X10711000Y-12366000D01*
X10720524Y-12375524D01*
X10730048Y-12394571D01*
X10739571Y-12432667D01*
X10739571Y-12480286D01*
X10730048Y-12518381D01*
X10720524Y-12537428D01*
X10711000Y-12546952D01*
X10691952Y-12556476D01*
X10672905Y-12556476D01*
X10653857Y-12546952D01*
X10644333Y-12537428D01*
X10634810Y-12518381D01*
X10625286Y-12480286D01*
X10625286Y-12432667D01*
X10634810Y-12394571D01*
X10644333Y-12375524D01*
X10653857Y-12366000D01*
X10672905Y-12356476D01*
X10863381Y-12356476D02*
X10882429Y-12356476D01*
X10901476Y-12366000D01*
X10911000Y-12375524D01*
X10920524Y-12394571D01*
X10930048Y-12432667D01*
X10930048Y-12480286D01*
X10920524Y-12518381D01*
X10911000Y-12537428D01*
X10901476Y-12546952D01*
X10882429Y-12556476D01*
X10863381Y-12556476D01*
X10844333Y-12546952D01*
X10834810Y-12537428D01*
X10825286Y-12518381D01*
X10815762Y-12480286D01*
X10815762Y-12432667D01*
X10825286Y-12394571D01*
X10834810Y-12375524D01*
X10844333Y-12366000D01*
X10863381Y-12356476D01*
X11015762Y-12556476D02*
X11015762Y-12423143D01*
X11015762Y-12442190D02*
X11025286Y-12432667D01*
X11044333Y-12423143D01*
X11072905Y-12423143D01*
X11091952Y-12432667D01*
X11101476Y-12451714D01*
X11101476Y-12556476D01*
X11101476Y-12451714D02*
X11111000Y-12432667D01*
X11130048Y-12423143D01*
X11158619Y-12423143D01*
X11177667Y-12432667D01*
X11187190Y-12451714D01*
X11187190Y-12556476D01*
X11282428Y-12556476D02*
X11282428Y-12423143D01*
X11282428Y-12442190D02*
X11291952Y-12432667D01*
X11311000Y-12423143D01*
X11339571Y-12423143D01*
X11358619Y-12432667D01*
X11368143Y-12451714D01*
X11368143Y-12556476D01*
X11368143Y-12451714D02*
X11377667Y-12432667D01*
X11396714Y-12423143D01*
X11425286Y-12423143D01*
X11444333Y-12432667D01*
X11453857Y-12451714D01*
X11453857Y-12556476D01*
X11844333Y-12346952D02*
X11672905Y-12604095D01*
X12101476Y-12356476D02*
X12120524Y-12356476D01*
X12139571Y-12366000D01*
X12149095Y-12375524D01*
X12158619Y-12394571D01*
X12168143Y-12432667D01*
X12168143Y-12480286D01*
X12158619Y-12518381D01*
X12149095Y-12537428D01*
X12139571Y-12546952D01*
X12120524Y-12556476D01*
X12101476Y-12556476D01*
X12082428Y-12546952D01*
X12072905Y-12537428D01*
X12063381Y-12518381D01*
X12053857Y-12480286D01*
X12053857Y-12432667D01*
X12063381Y-12394571D01*
X12072905Y-12375524D01*
X12082428Y-12366000D01*
X12101476Y-12356476D01*
X12253857Y-12537428D02*
X12263381Y-12546952D01*
X12253857Y-12556476D01*
X12244333Y-12546952D01*
X12253857Y-12537428D01*
X12253857Y-12556476D01*
X12387190Y-12356476D02*
X12406238Y-12356476D01*
X12425286Y-12366000D01*
X12434809Y-12375524D01*
X12444333Y-12394571D01*
X12453857Y-12432667D01*
X12453857Y-12480286D01*
X12444333Y-12518381D01*
X12434809Y-12537428D01*
X12425286Y-12546952D01*
X12406238Y-12556476D01*
X12387190Y-12556476D01*
X12368143Y-12546952D01*
X12358619Y-12537428D01*
X12349095Y-12518381D01*
X12339571Y-12480286D01*
X12339571Y-12432667D01*
X12349095Y-12394571D01*
X12358619Y-12375524D01*
X12368143Y-12366000D01*
X12387190Y-12356476D01*
X12530048Y-12375524D02*
X12539571Y-12366000D01*
X12558619Y-12356476D01*
X12606238Y-12356476D01*
X12625286Y-12366000D01*
X12634809Y-12375524D01*
X12644333Y-12394571D01*
X12644333Y-12413619D01*
X12634809Y-12442190D01*
X12520524Y-12556476D01*
X12644333Y-12556476D01*
X12711000Y-12356476D02*
X12834809Y-12356476D01*
X12768143Y-12432667D01*
X12796714Y-12432667D01*
X12815762Y-12442190D01*
X12825286Y-12451714D01*
X12834809Y-12470762D01*
X12834809Y-12518381D01*
X12825286Y-12537428D01*
X12815762Y-12546952D01*
X12796714Y-12556476D01*
X12739571Y-12556476D01*
X12720524Y-12546952D01*
X12711000Y-12537428D01*
X13006238Y-12356476D02*
X12968143Y-12356476D01*
X12949095Y-12366000D01*
X12939571Y-12375524D01*
X12920524Y-12404095D01*
X12911000Y-12442190D01*
X12911000Y-12518381D01*
X12920524Y-12537428D01*
X12930048Y-12546952D01*
X12949095Y-12556476D01*
X12987190Y-12556476D01*
X13006238Y-12546952D01*
X13015762Y-12537428D01*
X13025286Y-12518381D01*
X13025286Y-12470762D01*
X13015762Y-12451714D01*
X13006238Y-12442190D01*
X12987190Y-12432667D01*
X12949095Y-12432667D01*
X12930048Y-12442190D01*
X12920524Y-12451714D01*
X12911000Y-12470762D01*
X13101476Y-12356476D02*
X13101476Y-12394571D01*
X13177667Y-12356476D02*
X13177667Y-12394571D01*
X13472905Y-12632667D02*
X13463381Y-12623143D01*
X13444333Y-12594571D01*
X13434809Y-12575524D01*
X13425286Y-12546952D01*
X13415762Y-12499333D01*
X13415762Y-12461238D01*
X13425286Y-12413619D01*
X13434809Y-12385048D01*
X13444333Y-12366000D01*
X13463381Y-12337428D01*
X13472905Y-12327905D01*
X13634809Y-12423143D02*
X13634809Y-12556476D01*
X13587190Y-12346952D02*
X13539571Y-12489809D01*
X13663381Y-12489809D01*
X13891952Y-12556476D02*
X13891952Y-12356476D01*
X13977667Y-12556476D02*
X13977667Y-12451714D01*
X13968143Y-12432667D01*
X13949095Y-12423143D01*
X13920524Y-12423143D01*
X13901476Y-12432667D01*
X13891952Y-12442190D01*
X14101476Y-12556476D02*
X14082428Y-12546952D01*
X14072905Y-12537428D01*
X14063381Y-12518381D01*
X14063381Y-12461238D01*
X14072905Y-12442190D01*
X14082428Y-12432667D01*
X14101476Y-12423143D01*
X14130048Y-12423143D01*
X14149095Y-12432667D01*
X14158619Y-12442190D01*
X14168143Y-12461238D01*
X14168143Y-12518381D01*
X14158619Y-12537428D01*
X14149095Y-12546952D01*
X14130048Y-12556476D01*
X14101476Y-12556476D01*
X14282428Y-12556476D02*
X14263381Y-12546952D01*
X14253857Y-12527905D01*
X14253857Y-12356476D01*
X14434809Y-12546952D02*
X14415762Y-12556476D01*
X14377667Y-12556476D01*
X14358619Y-12546952D01*
X14349095Y-12527905D01*
X14349095Y-12451714D01*
X14358619Y-12432667D01*
X14377667Y-12423143D01*
X14415762Y-12423143D01*
X14434809Y-12432667D01*
X14444333Y-12451714D01*
X14444333Y-12470762D01*
X14349095Y-12489809D01*
X14520524Y-12546952D02*
X14539571Y-12556476D01*
X14577667Y-12556476D01*
X14596714Y-12546952D01*
X14606238Y-12527905D01*
X14606238Y-12518381D01*
X14596714Y-12499333D01*
X14577667Y-12489809D01*
X14549095Y-12489809D01*
X14530048Y-12480286D01*
X14520524Y-12461238D01*
X14520524Y-12451714D01*
X14530048Y-12432667D01*
X14549095Y-12423143D01*
X14577667Y-12423143D01*
X14596714Y-12432667D01*
X14672905Y-12632667D02*
X14682428Y-12623143D01*
X14701476Y-12594571D01*
X14711000Y-12575524D01*
X14720524Y-12546952D01*
X14730048Y-12499333D01*
X14730048Y-12461238D01*
X14720524Y-12413619D01*
X14711000Y-12385048D01*
X14701476Y-12366000D01*
X14682428Y-12337428D01*
X14672905Y-12327905D01*
D14*
X9863000Y-12692000D02*
X9863000Y-12768000D01*
X9825000Y-12730000D02*
X9901000Y-12730000D01*
D11*
X10196714Y-12620476D02*
X10215762Y-12620476D01*
X10234810Y-12630000D01*
X10244333Y-12639524D01*
X10253857Y-12658571D01*
X10263381Y-12696667D01*
X10263381Y-12744286D01*
X10253857Y-12782381D01*
X10244333Y-12801428D01*
X10234810Y-12810952D01*
X10215762Y-12820476D01*
X10196714Y-12820476D01*
X10177667Y-12810952D01*
X10168143Y-12801428D01*
X10158619Y-12782381D01*
X10149095Y-12744286D01*
X10149095Y-12696667D01*
X10158619Y-12658571D01*
X10168143Y-12639524D01*
X10177667Y-12630000D01*
X10196714Y-12620476D01*
X10349095Y-12801428D02*
X10358619Y-12810952D01*
X10349095Y-12820476D01*
X10339571Y-12810952D01*
X10349095Y-12801428D01*
X10349095Y-12820476D01*
X10425286Y-12620476D02*
X10558619Y-12620476D01*
X10472905Y-12820476D01*
X10720524Y-12620476D02*
X10682429Y-12620476D01*
X10663381Y-12630000D01*
X10653857Y-12639524D01*
X10634810Y-12668095D01*
X10625286Y-12706190D01*
X10625286Y-12782381D01*
X10634810Y-12801428D01*
X10644333Y-12810952D01*
X10663381Y-12820476D01*
X10701476Y-12820476D01*
X10720524Y-12810952D01*
X10730048Y-12801428D01*
X10739571Y-12782381D01*
X10739571Y-12734762D01*
X10730048Y-12715714D01*
X10720524Y-12706190D01*
X10701476Y-12696667D01*
X10663381Y-12696667D01*
X10644333Y-12706190D01*
X10634810Y-12715714D01*
X10625286Y-12734762D01*
X10863381Y-12620476D02*
X10882429Y-12620476D01*
X10901476Y-12630000D01*
X10911000Y-12639524D01*
X10920524Y-12658571D01*
X10930048Y-12696667D01*
X10930048Y-12744286D01*
X10920524Y-12782381D01*
X10911000Y-12801428D01*
X10901476Y-12810952D01*
X10882429Y-12820476D01*
X10863381Y-12820476D01*
X10844333Y-12810952D01*
X10834810Y-12801428D01*
X10825286Y-12782381D01*
X10815762Y-12744286D01*
X10815762Y-12696667D01*
X10825286Y-12658571D01*
X10834810Y-12639524D01*
X10844333Y-12630000D01*
X10863381Y-12620476D01*
X11015762Y-12820476D02*
X11015762Y-12687143D01*
X11015762Y-12706190D02*
X11025286Y-12696667D01*
X11044333Y-12687143D01*
X11072905Y-12687143D01*
X11091952Y-12696667D01*
X11101476Y-12715714D01*
X11101476Y-12820476D01*
X11101476Y-12715714D02*
X11111000Y-12696667D01*
X11130048Y-12687143D01*
X11158619Y-12687143D01*
X11177667Y-12696667D01*
X11187190Y-12715714D01*
X11187190Y-12820476D01*
X11282428Y-12820476D02*
X11282428Y-12687143D01*
X11282428Y-12706190D02*
X11291952Y-12696667D01*
X11311000Y-12687143D01*
X11339571Y-12687143D01*
X11358619Y-12696667D01*
X11368143Y-12715714D01*
X11368143Y-12820476D01*
X11368143Y-12715714D02*
X11377667Y-12696667D01*
X11396714Y-12687143D01*
X11425286Y-12687143D01*
X11444333Y-12696667D01*
X11453857Y-12715714D01*
X11453857Y-12820476D01*
X11844333Y-12610952D02*
X11672905Y-12868095D01*
X12101476Y-12620476D02*
X12120524Y-12620476D01*
X12139571Y-12630000D01*
X12149095Y-12639524D01*
X12158619Y-12658571D01*
X12168143Y-12696667D01*
X12168143Y-12744286D01*
X12158619Y-12782381D01*
X12149095Y-12801428D01*
X12139571Y-12810952D01*
X12120524Y-12820476D01*
X12101476Y-12820476D01*
X12082428Y-12810952D01*
X12072905Y-12801428D01*
X12063381Y-12782381D01*
X12053857Y-12744286D01*
X12053857Y-12696667D01*
X12063381Y-12658571D01*
X12072905Y-12639524D01*
X12082428Y-12630000D01*
X12101476Y-12620476D01*
X12253857Y-12801428D02*
X12263381Y-12810952D01*
X12253857Y-12820476D01*
X12244333Y-12810952D01*
X12253857Y-12801428D01*
X12253857Y-12820476D01*
X12387190Y-12620476D02*
X12406238Y-12620476D01*
X12425286Y-12630000D01*
X12434809Y-12639524D01*
X12444333Y-12658571D01*
X12453857Y-12696667D01*
X12453857Y-12744286D01*
X12444333Y-12782381D01*
X12434809Y-12801428D01*
X12425286Y-12810952D01*
X12406238Y-12820476D01*
X12387190Y-12820476D01*
X12368143Y-12810952D01*
X12358619Y-12801428D01*
X12349095Y-12782381D01*
X12339571Y-12744286D01*
X12339571Y-12696667D01*
X12349095Y-12658571D01*
X12358619Y-12639524D01*
X12368143Y-12630000D01*
X12387190Y-12620476D01*
X12530048Y-12639524D02*
X12539571Y-12630000D01*
X12558619Y-12620476D01*
X12606238Y-12620476D01*
X12625286Y-12630000D01*
X12634809Y-12639524D01*
X12644333Y-12658571D01*
X12644333Y-12677619D01*
X12634809Y-12706190D01*
X12520524Y-12820476D01*
X12644333Y-12820476D01*
X12739571Y-12820476D02*
X12777667Y-12820476D01*
X12796714Y-12810952D01*
X12806238Y-12801428D01*
X12825286Y-12772857D01*
X12834809Y-12734762D01*
X12834809Y-12658571D01*
X12825286Y-12639524D01*
X12815762Y-12630000D01*
X12796714Y-12620476D01*
X12758619Y-12620476D01*
X12739571Y-12630000D01*
X12730048Y-12639524D01*
X12720524Y-12658571D01*
X12720524Y-12706190D01*
X12730048Y-12725238D01*
X12739571Y-12734762D01*
X12758619Y-12744286D01*
X12796714Y-12744286D01*
X12815762Y-12734762D01*
X12825286Y-12725238D01*
X12834809Y-12706190D01*
X12930048Y-12820476D02*
X12968143Y-12820476D01*
X12987190Y-12810952D01*
X12996714Y-12801428D01*
X13015762Y-12772857D01*
X13025286Y-12734762D01*
X13025286Y-12658571D01*
X13015762Y-12639524D01*
X13006238Y-12630000D01*
X12987190Y-12620476D01*
X12949095Y-12620476D01*
X12930048Y-12630000D01*
X12920524Y-12639524D01*
X12911000Y-12658571D01*
X12911000Y-12706190D01*
X12920524Y-12725238D01*
X12930048Y-12734762D01*
X12949095Y-12744286D01*
X12987190Y-12744286D01*
X13006238Y-12734762D01*
X13015762Y-12725238D01*
X13025286Y-12706190D01*
X13101476Y-12620476D02*
X13101476Y-12658571D01*
X13177667Y-12620476D02*
X13177667Y-12658571D01*
X13472905Y-12896667D02*
X13463381Y-12887143D01*
X13444333Y-12858571D01*
X13434809Y-12839524D01*
X13425286Y-12810952D01*
X13415762Y-12763333D01*
X13415762Y-12725238D01*
X13425286Y-12677619D01*
X13434809Y-12649048D01*
X13444333Y-12630000D01*
X13463381Y-12601428D01*
X13472905Y-12591905D01*
X13577667Y-12706190D02*
X13558619Y-12696667D01*
X13549095Y-12687143D01*
X13539571Y-12668095D01*
X13539571Y-12658571D01*
X13549095Y-12639524D01*
X13558619Y-12630000D01*
X13577667Y-12620476D01*
X13615762Y-12620476D01*
X13634809Y-12630000D01*
X13644333Y-12639524D01*
X13653857Y-12658571D01*
X13653857Y-12668095D01*
X13644333Y-12687143D01*
X13634809Y-12696667D01*
X13615762Y-12706190D01*
X13577667Y-12706190D01*
X13558619Y-12715714D01*
X13549095Y-12725238D01*
X13539571Y-12744286D01*
X13539571Y-12782381D01*
X13549095Y-12801428D01*
X13558619Y-12810952D01*
X13577667Y-12820476D01*
X13615762Y-12820476D01*
X13634809Y-12810952D01*
X13644333Y-12801428D01*
X13653857Y-12782381D01*
X13653857Y-12744286D01*
X13644333Y-12725238D01*
X13634809Y-12715714D01*
X13615762Y-12706190D01*
X13891952Y-12820476D02*
X13891952Y-12620476D01*
X13977667Y-12820476D02*
X13977667Y-12715714D01*
X13968143Y-12696667D01*
X13949095Y-12687143D01*
X13920524Y-12687143D01*
X13901476Y-12696667D01*
X13891952Y-12706190D01*
X14101476Y-12820476D02*
X14082428Y-12810952D01*
X14072905Y-12801428D01*
X14063381Y-12782381D01*
X14063381Y-12725238D01*
X14072905Y-12706190D01*
X14082428Y-12696667D01*
X14101476Y-12687143D01*
X14130048Y-12687143D01*
X14149095Y-12696667D01*
X14158619Y-12706190D01*
X14168143Y-12725238D01*
X14168143Y-12782381D01*
X14158619Y-12801428D01*
X14149095Y-12810952D01*
X14130048Y-12820476D01*
X14101476Y-12820476D01*
X14282428Y-12820476D02*
X14263381Y-12810952D01*
X14253857Y-12791905D01*
X14253857Y-12620476D01*
X14434809Y-12810952D02*
X14415762Y-12820476D01*
X14377667Y-12820476D01*
X14358619Y-12810952D01*
X14349095Y-12791905D01*
X14349095Y-12715714D01*
X14358619Y-12696667D01*
X14377667Y-12687143D01*
X14415762Y-12687143D01*
X14434809Y-12696667D01*
X14444333Y-12715714D01*
X14444333Y-12734762D01*
X14349095Y-12753809D01*
X14520524Y-12810952D02*
X14539571Y-12820476D01*
X14577667Y-12820476D01*
X14596714Y-12810952D01*
X14606238Y-12791905D01*
X14606238Y-12782381D01*
X14596714Y-12763333D01*
X14577667Y-12753809D01*
X14549095Y-12753809D01*
X14530048Y-12744286D01*
X14520524Y-12725238D01*
X14520524Y-12715714D01*
X14530048Y-12696667D01*
X14549095Y-12687143D01*
X14577667Y-12687143D01*
X14596714Y-12696667D01*
X14672905Y-12896667D02*
X14682428Y-12887143D01*
X14701476Y-12858571D01*
X14711000Y-12839524D01*
X14720524Y-12810952D01*
X14730048Y-12763333D01*
X14730048Y-12725238D01*
X14720524Y-12677619D01*
X14711000Y-12649048D01*
X14701476Y-12630000D01*
X14682428Y-12601428D01*
X14672905Y-12591905D01*
D15*
X9889841Y-13020941D02*
X9889841Y-12967059D01*
X9835959Y-12967059D01*
X9835959Y-13020941D01*
X9889841Y-13020941D01*
D11*
X10196714Y-12884476D02*
X10215762Y-12884476D01*
X10234810Y-12894000D01*
X10244333Y-12903524D01*
X10253857Y-12922571D01*
X10263381Y-12960667D01*
X10263381Y-13008286D01*
X10253857Y-13046381D01*
X10244333Y-13065428D01*
X10234810Y-13074952D01*
X10215762Y-13084476D01*
X10196714Y-13084476D01*
X10177667Y-13074952D01*
X10168143Y-13065428D01*
X10158619Y-13046381D01*
X10149095Y-13008286D01*
X10149095Y-12960667D01*
X10158619Y-12922571D01*
X10168143Y-12903524D01*
X10177667Y-12894000D01*
X10196714Y-12884476D01*
X10349095Y-13065428D02*
X10358619Y-13074952D01*
X10349095Y-13084476D01*
X10339571Y-13074952D01*
X10349095Y-13065428D01*
X10349095Y-13084476D01*
X10425286Y-12884476D02*
X10558619Y-12884476D01*
X10472905Y-13084476D01*
X10720524Y-12884476D02*
X10682429Y-12884476D01*
X10663381Y-12894000D01*
X10653857Y-12903524D01*
X10634810Y-12932095D01*
X10625286Y-12970190D01*
X10625286Y-13046381D01*
X10634810Y-13065428D01*
X10644333Y-13074952D01*
X10663381Y-13084476D01*
X10701476Y-13084476D01*
X10720524Y-13074952D01*
X10730048Y-13065428D01*
X10739571Y-13046381D01*
X10739571Y-12998762D01*
X10730048Y-12979714D01*
X10720524Y-12970190D01*
X10701476Y-12960667D01*
X10663381Y-12960667D01*
X10644333Y-12970190D01*
X10634810Y-12979714D01*
X10625286Y-12998762D01*
X10815762Y-12903524D02*
X10825286Y-12894000D01*
X10844333Y-12884476D01*
X10891952Y-12884476D01*
X10911000Y-12894000D01*
X10920524Y-12903524D01*
X10930048Y-12922571D01*
X10930048Y-12941619D01*
X10920524Y-12970190D01*
X10806238Y-13084476D01*
X10930048Y-13084476D01*
X11015762Y-13084476D02*
X11015762Y-12951143D01*
X11015762Y-12970190D02*
X11025286Y-12960667D01*
X11044333Y-12951143D01*
X11072905Y-12951143D01*
X11091952Y-12960667D01*
X11101476Y-12979714D01*
X11101476Y-13084476D01*
X11101476Y-12979714D02*
X11111000Y-12960667D01*
X11130048Y-12951143D01*
X11158619Y-12951143D01*
X11177667Y-12960667D01*
X11187190Y-12979714D01*
X11187190Y-13084476D01*
X11282428Y-13084476D02*
X11282428Y-12951143D01*
X11282428Y-12970190D02*
X11291952Y-12960667D01*
X11311000Y-12951143D01*
X11339571Y-12951143D01*
X11358619Y-12960667D01*
X11368143Y-12979714D01*
X11368143Y-13084476D01*
X11368143Y-12979714D02*
X11377667Y-12960667D01*
X11396714Y-12951143D01*
X11425286Y-12951143D01*
X11444333Y-12960667D01*
X11453857Y-12979714D01*
X11453857Y-13084476D01*
X11844333Y-12874952D02*
X11672905Y-13132095D01*
X12101476Y-12884476D02*
X12120524Y-12884476D01*
X12139571Y-12894000D01*
X12149095Y-12903524D01*
X12158619Y-12922571D01*
X12168143Y-12960667D01*
X12168143Y-13008286D01*
X12158619Y-13046381D01*
X12149095Y-13065428D01*
X12139571Y-13074952D01*
X12120524Y-13084476D01*
X12101476Y-13084476D01*
X12082428Y-13074952D01*
X12072905Y-13065428D01*
X12063381Y-13046381D01*
X12053857Y-13008286D01*
X12053857Y-12960667D01*
X12063381Y-12922571D01*
X12072905Y-12903524D01*
X12082428Y-12894000D01*
X12101476Y-12884476D01*
X12253857Y-13065428D02*
X12263381Y-13074952D01*
X12253857Y-13084476D01*
X12244333Y-13074952D01*
X12253857Y-13065428D01*
X12253857Y-13084476D01*
X12387190Y-12884476D02*
X12406238Y-12884476D01*
X12425286Y-12894000D01*
X12434809Y-12903524D01*
X12444333Y-12922571D01*
X12453857Y-12960667D01*
X12453857Y-13008286D01*
X12444333Y-13046381D01*
X12434809Y-13065428D01*
X12425286Y-13074952D01*
X12406238Y-13084476D01*
X12387190Y-13084476D01*
X12368143Y-13074952D01*
X12358619Y-13065428D01*
X12349095Y-13046381D01*
X12339571Y-13008286D01*
X12339571Y-12960667D01*
X12349095Y-12922571D01*
X12358619Y-12903524D01*
X12368143Y-12894000D01*
X12387190Y-12884476D01*
X12520524Y-12884476D02*
X12644333Y-12884476D01*
X12577667Y-12960667D01*
X12606238Y-12960667D01*
X12625286Y-12970190D01*
X12634809Y-12979714D01*
X12644333Y-12998762D01*
X12644333Y-13046381D01*
X12634809Y-13065428D01*
X12625286Y-13074952D01*
X12606238Y-13084476D01*
X12549095Y-13084476D01*
X12530048Y-13074952D01*
X12520524Y-13065428D01*
X12768143Y-12884476D02*
X12787190Y-12884476D01*
X12806238Y-12894000D01*
X12815762Y-12903524D01*
X12825286Y-12922571D01*
X12834809Y-12960667D01*
X12834809Y-13008286D01*
X12825286Y-13046381D01*
X12815762Y-13065428D01*
X12806238Y-13074952D01*
X12787190Y-13084476D01*
X12768143Y-13084476D01*
X12749095Y-13074952D01*
X12739571Y-13065428D01*
X12730048Y-13046381D01*
X12720524Y-13008286D01*
X12720524Y-12960667D01*
X12730048Y-12922571D01*
X12739571Y-12903524D01*
X12749095Y-12894000D01*
X12768143Y-12884476D01*
X12958619Y-12884476D02*
X12977667Y-12884476D01*
X12996714Y-12894000D01*
X13006238Y-12903524D01*
X13015762Y-12922571D01*
X13025286Y-12960667D01*
X13025286Y-13008286D01*
X13015762Y-13046381D01*
X13006238Y-13065428D01*
X12996714Y-13074952D01*
X12977667Y-13084476D01*
X12958619Y-13084476D01*
X12939571Y-13074952D01*
X12930048Y-13065428D01*
X12920524Y-13046381D01*
X12911000Y-13008286D01*
X12911000Y-12960667D01*
X12920524Y-12922571D01*
X12930048Y-12903524D01*
X12939571Y-12894000D01*
X12958619Y-12884476D01*
X13101476Y-12884476D02*
X13101476Y-12922571D01*
X13177667Y-12884476D02*
X13177667Y-12922571D01*
X13472905Y-13160667D02*
X13463381Y-13151143D01*
X13444333Y-13122571D01*
X13434809Y-13103524D01*
X13425286Y-13074952D01*
X13415762Y-13027333D01*
X13415762Y-12989238D01*
X13425286Y-12941619D01*
X13434809Y-12913048D01*
X13444333Y-12894000D01*
X13463381Y-12865428D01*
X13472905Y-12855905D01*
X13539571Y-12903524D02*
X13549095Y-12894000D01*
X13568143Y-12884476D01*
X13615762Y-12884476D01*
X13634809Y-12894000D01*
X13644333Y-12903524D01*
X13653857Y-12922571D01*
X13653857Y-12941619D01*
X13644333Y-12970190D01*
X13530048Y-13084476D01*
X13653857Y-13084476D01*
X13825286Y-12951143D02*
X13825286Y-13084476D01*
X13777667Y-12874952D02*
X13730048Y-13017809D01*
X13853857Y-13017809D01*
X14082428Y-13084476D02*
X14082428Y-12884476D01*
X14168143Y-13084476D02*
X14168143Y-12979714D01*
X14158619Y-12960667D01*
X14139571Y-12951143D01*
X14111000Y-12951143D01*
X14091952Y-12960667D01*
X14082428Y-12970190D01*
X14291952Y-13084476D02*
X14272905Y-13074952D01*
X14263381Y-13065428D01*
X14253857Y-13046381D01*
X14253857Y-12989238D01*
X14263381Y-12970190D01*
X14272905Y-12960667D01*
X14291952Y-12951143D01*
X14320524Y-12951143D01*
X14339571Y-12960667D01*
X14349095Y-12970190D01*
X14358619Y-12989238D01*
X14358619Y-13046381D01*
X14349095Y-13065428D01*
X14339571Y-13074952D01*
X14320524Y-13084476D01*
X14291952Y-13084476D01*
X14472905Y-13084476D02*
X14453857Y-13074952D01*
X14444333Y-13055905D01*
X14444333Y-12884476D01*
X14625286Y-13074952D02*
X14606238Y-13084476D01*
X14568143Y-13084476D01*
X14549095Y-13074952D01*
X14539571Y-13055905D01*
X14539571Y-12979714D01*
X14549095Y-12960667D01*
X14568143Y-12951143D01*
X14606238Y-12951143D01*
X14625286Y-12960667D01*
X14634809Y-12979714D01*
X14634809Y-12998762D01*
X14539571Y-13017809D01*
X14711000Y-13074952D02*
X14730048Y-13084476D01*
X14768143Y-13084476D01*
X14787190Y-13074952D01*
X14796714Y-13055905D01*
X14796714Y-13046381D01*
X14787190Y-13027333D01*
X14768143Y-13017809D01*
X14739571Y-13017809D01*
X14720524Y-13008286D01*
X14711000Y-12989238D01*
X14711000Y-12979714D01*
X14720524Y-12960667D01*
X14739571Y-12951143D01*
X14768143Y-12951143D01*
X14787190Y-12960667D01*
X14863381Y-13160667D02*
X14872905Y-13151143D01*
X14891952Y-13122571D01*
X14901476Y-13103524D01*
X14911000Y-13074952D01*
X14920524Y-13027333D01*
X14920524Y-12989238D01*
X14911000Y-12941619D01*
X14901476Y-12913048D01*
X14891952Y-12894000D01*
X14872905Y-12865428D01*
X14863381Y-12855905D01*
D16*
X9853500Y-13305500D02*
X9901000Y-13258000D01*
X9853500Y-13210500D01*
X9806000Y-13258000D01*
X9853500Y-13305500D01*
D11*
X10196714Y-13148476D02*
X10215762Y-13148476D01*
X10234810Y-13158000D01*
X10244333Y-13167524D01*
X10253857Y-13186571D01*
X10263381Y-13224667D01*
X10263381Y-13272286D01*
X10253857Y-13310381D01*
X10244333Y-13329428D01*
X10234810Y-13338952D01*
X10215762Y-13348476D01*
X10196714Y-13348476D01*
X10177667Y-13338952D01*
X10168143Y-13329428D01*
X10158619Y-13310381D01*
X10149095Y-13272286D01*
X10149095Y-13224667D01*
X10158619Y-13186571D01*
X10168143Y-13167524D01*
X10177667Y-13158000D01*
X10196714Y-13148476D01*
X10349095Y-13329428D02*
X10358619Y-13338952D01*
X10349095Y-13348476D01*
X10339571Y-13338952D01*
X10349095Y-13329428D01*
X10349095Y-13348476D01*
X10453857Y-13348476D02*
X10491952Y-13348476D01*
X10511000Y-13338952D01*
X10520524Y-13329428D01*
X10539571Y-13300857D01*
X10549095Y-13262762D01*
X10549095Y-13186571D01*
X10539571Y-13167524D01*
X10530048Y-13158000D01*
X10511000Y-13148476D01*
X10472905Y-13148476D01*
X10453857Y-13158000D01*
X10444333Y-13167524D01*
X10434810Y-13186571D01*
X10434810Y-13234190D01*
X10444333Y-13253238D01*
X10453857Y-13262762D01*
X10472905Y-13272286D01*
X10511000Y-13272286D01*
X10530048Y-13262762D01*
X10539571Y-13253238D01*
X10549095Y-13234190D01*
X10730048Y-13148476D02*
X10634810Y-13148476D01*
X10625286Y-13243714D01*
X10634810Y-13234190D01*
X10653857Y-13224667D01*
X10701476Y-13224667D01*
X10720524Y-13234190D01*
X10730048Y-13243714D01*
X10739571Y-13262762D01*
X10739571Y-13310381D01*
X10730048Y-13329428D01*
X10720524Y-13338952D01*
X10701476Y-13348476D01*
X10653857Y-13348476D01*
X10634810Y-13338952D01*
X10625286Y-13329428D01*
X10863381Y-13148476D02*
X10882429Y-13148476D01*
X10901476Y-13158000D01*
X10911000Y-13167524D01*
X10920524Y-13186571D01*
X10930048Y-13224667D01*
X10930048Y-13272286D01*
X10920524Y-13310381D01*
X10911000Y-13329428D01*
X10901476Y-13338952D01*
X10882429Y-13348476D01*
X10863381Y-13348476D01*
X10844333Y-13338952D01*
X10834810Y-13329428D01*
X10825286Y-13310381D01*
X10815762Y-13272286D01*
X10815762Y-13224667D01*
X10825286Y-13186571D01*
X10834810Y-13167524D01*
X10844333Y-13158000D01*
X10863381Y-13148476D01*
X11015762Y-13348476D02*
X11015762Y-13215143D01*
X11015762Y-13234190D02*
X11025286Y-13224667D01*
X11044333Y-13215143D01*
X11072905Y-13215143D01*
X11091952Y-13224667D01*
X11101476Y-13243714D01*
X11101476Y-13348476D01*
X11101476Y-13243714D02*
X11111000Y-13224667D01*
X11130048Y-13215143D01*
X11158619Y-13215143D01*
X11177667Y-13224667D01*
X11187190Y-13243714D01*
X11187190Y-13348476D01*
X11282428Y-13348476D02*
X11282428Y-13215143D01*
X11282428Y-13234190D02*
X11291952Y-13224667D01*
X11311000Y-13215143D01*
X11339571Y-13215143D01*
X11358619Y-13224667D01*
X11368143Y-13243714D01*
X11368143Y-13348476D01*
X11368143Y-13243714D02*
X11377667Y-13224667D01*
X11396714Y-13215143D01*
X11425286Y-13215143D01*
X11444333Y-13224667D01*
X11453857Y-13243714D01*
X11453857Y-13348476D01*
X11844333Y-13138952D02*
X11672905Y-13396095D01*
X12101476Y-13148476D02*
X12120524Y-13148476D01*
X12139571Y-13158000D01*
X12149095Y-13167524D01*
X12158619Y-13186571D01*
X12168143Y-13224667D01*
X12168143Y-13272286D01*
X12158619Y-13310381D01*
X12149095Y-13329428D01*
X12139571Y-13338952D01*
X12120524Y-13348476D01*
X12101476Y-13348476D01*
X12082428Y-13338952D01*
X12072905Y-13329428D01*
X12063381Y-13310381D01*
X12053857Y-13272286D01*
X12053857Y-13224667D01*
X12063381Y-13186571D01*
X12072905Y-13167524D01*
X12082428Y-13158000D01*
X12101476Y-13148476D01*
X12253857Y-13329428D02*
X12263381Y-13338952D01*
X12253857Y-13348476D01*
X12244333Y-13338952D01*
X12253857Y-13329428D01*
X12253857Y-13348476D01*
X12387190Y-13148476D02*
X12406238Y-13148476D01*
X12425286Y-13158000D01*
X12434809Y-13167524D01*
X12444333Y-13186571D01*
X12453857Y-13224667D01*
X12453857Y-13272286D01*
X12444333Y-13310381D01*
X12434809Y-13329428D01*
X12425286Y-13338952D01*
X12406238Y-13348476D01*
X12387190Y-13348476D01*
X12368143Y-13338952D01*
X12358619Y-13329428D01*
X12349095Y-13310381D01*
X12339571Y-13272286D01*
X12339571Y-13224667D01*
X12349095Y-13186571D01*
X12358619Y-13167524D01*
X12368143Y-13158000D01*
X12387190Y-13148476D01*
X12520524Y-13148476D02*
X12644333Y-13148476D01*
X12577667Y-13224667D01*
X12606238Y-13224667D01*
X12625286Y-13234190D01*
X12634809Y-13243714D01*
X12644333Y-13262762D01*
X12644333Y-13310381D01*
X12634809Y-13329428D01*
X12625286Y-13338952D01*
X12606238Y-13348476D01*
X12549095Y-13348476D01*
X12530048Y-13338952D01*
X12520524Y-13329428D01*
X12711000Y-13148476D02*
X12844333Y-13148476D01*
X12758619Y-13348476D01*
X13006238Y-13215143D02*
X13006238Y-13348476D01*
X12958619Y-13138952D02*
X12911000Y-13281809D01*
X13034809Y-13281809D01*
X13101476Y-13148476D02*
X13101476Y-13186571D01*
X13177667Y-13148476D02*
X13177667Y-13186571D01*
X13472905Y-13424667D02*
X13463381Y-13415143D01*
X13444333Y-13386571D01*
X13434809Y-13367524D01*
X13425286Y-13338952D01*
X13415762Y-13291333D01*
X13415762Y-13253238D01*
X13425286Y-13205619D01*
X13434809Y-13177048D01*
X13444333Y-13158000D01*
X13463381Y-13129428D01*
X13472905Y-13119905D01*
X13634809Y-13215143D02*
X13634809Y-13348476D01*
X13587190Y-13138952D02*
X13539571Y-13281809D01*
X13663381Y-13281809D01*
X13891952Y-13348476D02*
X13891952Y-13148476D01*
X13977667Y-13348476D02*
X13977667Y-13243714D01*
X13968143Y-13224667D01*
X13949095Y-13215143D01*
X13920524Y-13215143D01*
X13901476Y-13224667D01*
X13891952Y-13234190D01*
X14101476Y-13348476D02*
X14082428Y-13338952D01*
X14072905Y-13329428D01*
X14063381Y-13310381D01*
X14063381Y-13253238D01*
X14072905Y-13234190D01*
X14082428Y-13224667D01*
X14101476Y-13215143D01*
X14130048Y-13215143D01*
X14149095Y-13224667D01*
X14158619Y-13234190D01*
X14168143Y-13253238D01*
X14168143Y-13310381D01*
X14158619Y-13329428D01*
X14149095Y-13338952D01*
X14130048Y-13348476D01*
X14101476Y-13348476D01*
X14282428Y-13348476D02*
X14263381Y-13338952D01*
X14253857Y-13319905D01*
X14253857Y-13148476D01*
X14434809Y-13338952D02*
X14415762Y-13348476D01*
X14377667Y-13348476D01*
X14358619Y-13338952D01*
X14349095Y-13319905D01*
X14349095Y-13243714D01*
X14358619Y-13224667D01*
X14377667Y-13215143D01*
X14415762Y-13215143D01*
X14434809Y-13224667D01*
X14444333Y-13243714D01*
X14444333Y-13262762D01*
X14349095Y-13281809D01*
X14520524Y-13338952D02*
X14539571Y-13348476D01*
X14577667Y-13348476D01*
X14596714Y-13338952D01*
X14606238Y-13319905D01*
X14606238Y-13310381D01*
X14596714Y-13291333D01*
X14577667Y-13281809D01*
X14549095Y-13281809D01*
X14530048Y-13272286D01*
X14520524Y-13253238D01*
X14520524Y-13243714D01*
X14530048Y-13224667D01*
X14549095Y-13215143D01*
X14577667Y-13215143D01*
X14596714Y-13224667D01*
X14672905Y-13424667D02*
X14682428Y-13415143D01*
X14701476Y-13386571D01*
X14711000Y-13367524D01*
X14720524Y-13338952D01*
X14730048Y-13291333D01*
X14730048Y-13253238D01*
X14720524Y-13205619D01*
X14711000Y-13177048D01*
X14701476Y-13158000D01*
X14682428Y-13129428D01*
X14672905Y-13119905D01*
D17*
X9801000Y-13472000D02*
X9901000Y-13572000D01*
X9901000Y-13472000D02*
X9801000Y-13572000D01*
X9901000Y-13522000D02*
G75*
G03*
X9901000Y-13522000I-50000J0D01*
G01*
D11*
X10263381Y-13612476D02*
X10149095Y-13612476D01*
X10206238Y-13612476D02*
X10206238Y-13412476D01*
X10187190Y-13441048D01*
X10168143Y-13460095D01*
X10149095Y-13469619D01*
X10349095Y-13593428D02*
X10358619Y-13602952D01*
X10349095Y-13612476D01*
X10339571Y-13602952D01*
X10349095Y-13593428D01*
X10349095Y-13612476D01*
X10482429Y-13412476D02*
X10501476Y-13412476D01*
X10520524Y-13422000D01*
X10530048Y-13431524D01*
X10539571Y-13450571D01*
X10549095Y-13488667D01*
X10549095Y-13536286D01*
X10539571Y-13574381D01*
X10530048Y-13593428D01*
X10520524Y-13602952D01*
X10501476Y-13612476D01*
X10482429Y-13612476D01*
X10463381Y-13602952D01*
X10453857Y-13593428D01*
X10444333Y-13574381D01*
X10434810Y-13536286D01*
X10434810Y-13488667D01*
X10444333Y-13450571D01*
X10453857Y-13431524D01*
X10463381Y-13422000D01*
X10482429Y-13412476D01*
X10672905Y-13412476D02*
X10691952Y-13412476D01*
X10711000Y-13422000D01*
X10720524Y-13431524D01*
X10730048Y-13450571D01*
X10739571Y-13488667D01*
X10739571Y-13536286D01*
X10730048Y-13574381D01*
X10720524Y-13593428D01*
X10711000Y-13602952D01*
X10691952Y-13612476D01*
X10672905Y-13612476D01*
X10653857Y-13602952D01*
X10644333Y-13593428D01*
X10634810Y-13574381D01*
X10625286Y-13536286D01*
X10625286Y-13488667D01*
X10634810Y-13450571D01*
X10644333Y-13431524D01*
X10653857Y-13422000D01*
X10672905Y-13412476D01*
X10863381Y-13412476D02*
X10882429Y-13412476D01*
X10901476Y-13422000D01*
X10911000Y-13431524D01*
X10920524Y-13450571D01*
X10930048Y-13488667D01*
X10930048Y-13536286D01*
X10920524Y-13574381D01*
X10911000Y-13593428D01*
X10901476Y-13602952D01*
X10882429Y-13612476D01*
X10863381Y-13612476D01*
X10844333Y-13602952D01*
X10834810Y-13593428D01*
X10825286Y-13574381D01*
X10815762Y-13536286D01*
X10815762Y-13488667D01*
X10825286Y-13450571D01*
X10834810Y-13431524D01*
X10844333Y-13422000D01*
X10863381Y-13412476D01*
X11015762Y-13612476D02*
X11015762Y-13479143D01*
X11015762Y-13498190D02*
X11025286Y-13488667D01*
X11044333Y-13479143D01*
X11072905Y-13479143D01*
X11091952Y-13488667D01*
X11101476Y-13507714D01*
X11101476Y-13612476D01*
X11101476Y-13507714D02*
X11111000Y-13488667D01*
X11130048Y-13479143D01*
X11158619Y-13479143D01*
X11177667Y-13488667D01*
X11187190Y-13507714D01*
X11187190Y-13612476D01*
X11282428Y-13612476D02*
X11282428Y-13479143D01*
X11282428Y-13498190D02*
X11291952Y-13488667D01*
X11311000Y-13479143D01*
X11339571Y-13479143D01*
X11358619Y-13488667D01*
X11368143Y-13507714D01*
X11368143Y-13612476D01*
X11368143Y-13507714D02*
X11377667Y-13488667D01*
X11396714Y-13479143D01*
X11425286Y-13479143D01*
X11444333Y-13488667D01*
X11453857Y-13507714D01*
X11453857Y-13612476D01*
X11844333Y-13402952D02*
X11672905Y-13660095D01*
X12101476Y-13412476D02*
X12120524Y-13412476D01*
X12139571Y-13422000D01*
X12149095Y-13431524D01*
X12158619Y-13450571D01*
X12168143Y-13488667D01*
X12168143Y-13536286D01*
X12158619Y-13574381D01*
X12149095Y-13593428D01*
X12139571Y-13602952D01*
X12120524Y-13612476D01*
X12101476Y-13612476D01*
X12082428Y-13602952D01*
X12072905Y-13593428D01*
X12063381Y-13574381D01*
X12053857Y-13536286D01*
X12053857Y-13488667D01*
X12063381Y-13450571D01*
X12072905Y-13431524D01*
X12082428Y-13422000D01*
X12101476Y-13412476D01*
X12253857Y-13593428D02*
X12263381Y-13602952D01*
X12253857Y-13612476D01*
X12244333Y-13602952D01*
X12253857Y-13593428D01*
X12253857Y-13612476D01*
X12387190Y-13412476D02*
X12406238Y-13412476D01*
X12425286Y-13422000D01*
X12434809Y-13431524D01*
X12444333Y-13450571D01*
X12453857Y-13488667D01*
X12453857Y-13536286D01*
X12444333Y-13574381D01*
X12434809Y-13593428D01*
X12425286Y-13602952D01*
X12406238Y-13612476D01*
X12387190Y-13612476D01*
X12368143Y-13602952D01*
X12358619Y-13593428D01*
X12349095Y-13574381D01*
X12339571Y-13536286D01*
X12339571Y-13488667D01*
X12349095Y-13450571D01*
X12358619Y-13431524D01*
X12368143Y-13422000D01*
X12387190Y-13412476D01*
X12520524Y-13412476D02*
X12644333Y-13412476D01*
X12577667Y-13488667D01*
X12606238Y-13488667D01*
X12625286Y-13498190D01*
X12634809Y-13507714D01*
X12644333Y-13526762D01*
X12644333Y-13574381D01*
X12634809Y-13593428D01*
X12625286Y-13602952D01*
X12606238Y-13612476D01*
X12549095Y-13612476D01*
X12530048Y-13602952D01*
X12520524Y-13593428D01*
X12739571Y-13612476D02*
X12777667Y-13612476D01*
X12796714Y-13602952D01*
X12806238Y-13593428D01*
X12825286Y-13564857D01*
X12834809Y-13526762D01*
X12834809Y-13450571D01*
X12825286Y-13431524D01*
X12815762Y-13422000D01*
X12796714Y-13412476D01*
X12758619Y-13412476D01*
X12739571Y-13422000D01*
X12730048Y-13431524D01*
X12720524Y-13450571D01*
X12720524Y-13498190D01*
X12730048Y-13517238D01*
X12739571Y-13526762D01*
X12758619Y-13536286D01*
X12796714Y-13536286D01*
X12815762Y-13526762D01*
X12825286Y-13517238D01*
X12834809Y-13498190D01*
X13006238Y-13479143D02*
X13006238Y-13612476D01*
X12958619Y-13402952D02*
X12911000Y-13545809D01*
X13034809Y-13545809D01*
X13101476Y-13412476D02*
X13101476Y-13450571D01*
X13177667Y-13412476D02*
X13177667Y-13450571D01*
X13472905Y-13688667D02*
X13463381Y-13679143D01*
X13444333Y-13650571D01*
X13434809Y-13631524D01*
X13425286Y-13602952D01*
X13415762Y-13555333D01*
X13415762Y-13517238D01*
X13425286Y-13469619D01*
X13434809Y-13441048D01*
X13444333Y-13422000D01*
X13463381Y-13393428D01*
X13472905Y-13383905D01*
X13634809Y-13412476D02*
X13596714Y-13412476D01*
X13577667Y-13422000D01*
X13568143Y-13431524D01*
X13549095Y-13460095D01*
X13539571Y-13498190D01*
X13539571Y-13574381D01*
X13549095Y-13593428D01*
X13558619Y-13602952D01*
X13577667Y-13612476D01*
X13615762Y-13612476D01*
X13634809Y-13602952D01*
X13644333Y-13593428D01*
X13653857Y-13574381D01*
X13653857Y-13526762D01*
X13644333Y-13507714D01*
X13634809Y-13498190D01*
X13615762Y-13488667D01*
X13577667Y-13488667D01*
X13558619Y-13498190D01*
X13549095Y-13507714D01*
X13539571Y-13526762D01*
X13720524Y-13412476D02*
X13853857Y-13412476D01*
X13768143Y-13612476D01*
X14082428Y-13612476D02*
X14082428Y-13412476D01*
X14168143Y-13612476D02*
X14168143Y-13507714D01*
X14158619Y-13488667D01*
X14139571Y-13479143D01*
X14111000Y-13479143D01*
X14091952Y-13488667D01*
X14082428Y-13498190D01*
X14291952Y-13612476D02*
X14272905Y-13602952D01*
X14263381Y-13593428D01*
X14253857Y-13574381D01*
X14253857Y-13517238D01*
X14263381Y-13498190D01*
X14272905Y-13488667D01*
X14291952Y-13479143D01*
X14320524Y-13479143D01*
X14339571Y-13488667D01*
X14349095Y-13498190D01*
X14358619Y-13517238D01*
X14358619Y-13574381D01*
X14349095Y-13593428D01*
X14339571Y-13602952D01*
X14320524Y-13612476D01*
X14291952Y-13612476D01*
X14472905Y-13612476D02*
X14453857Y-13602952D01*
X14444333Y-13583905D01*
X14444333Y-13412476D01*
X14625286Y-13602952D02*
X14606238Y-13612476D01*
X14568143Y-13612476D01*
X14549095Y-13602952D01*
X14539571Y-13583905D01*
X14539571Y-13507714D01*
X14549095Y-13488667D01*
X14568143Y-13479143D01*
X14606238Y-13479143D01*
X14625286Y-13488667D01*
X14634809Y-13507714D01*
X14634809Y-13526762D01*
X14539571Y-13545809D01*
X14711000Y-13602952D02*
X14730048Y-13612476D01*
X14768143Y-13612476D01*
X14787190Y-13602952D01*
X14796714Y-13583905D01*
X14796714Y-13574381D01*
X14787190Y-13555333D01*
X14768143Y-13545809D01*
X14739571Y-13545809D01*
X14720524Y-13536286D01*
X14711000Y-13517238D01*
X14711000Y-13507714D01*
X14720524Y-13488667D01*
X14739571Y-13479143D01*
X14768143Y-13479143D01*
X14787190Y-13488667D01*
X14863381Y-13688667D02*
X14872905Y-13679143D01*
X14891952Y-13650571D01*
X14901476Y-13631524D01*
X14911000Y-13602952D01*
X14920524Y-13555333D01*
X14920524Y-13517238D01*
X14911000Y-13469619D01*
X14901476Y-13441048D01*
X14891952Y-13422000D01*
X14872905Y-13393428D01*
X14863381Y-13383905D01*
D18*
X9771000Y-13721000D02*
X9901000Y-13851000D01*
X9901000Y-13721000D02*
X9771000Y-13851000D01*
X9836000Y-13721000D02*
X9836000Y-13851000D01*
X9771000Y-13786000D02*
X9901000Y-13786000D01*
D11*
X10263381Y-13876476D02*
X10149095Y-13876476D01*
X10206238Y-13876476D02*
X10206238Y-13676476D01*
X10187190Y-13705048D01*
X10168143Y-13724095D01*
X10149095Y-13733619D01*
X10349095Y-13857428D02*
X10358619Y-13866952D01*
X10349095Y-13876476D01*
X10339571Y-13866952D01*
X10349095Y-13857428D01*
X10349095Y-13876476D01*
X10425286Y-13676476D02*
X10549095Y-13676476D01*
X10482429Y-13752667D01*
X10511000Y-13752667D01*
X10530048Y-13762190D01*
X10539571Y-13771714D01*
X10549095Y-13790762D01*
X10549095Y-13838381D01*
X10539571Y-13857428D01*
X10530048Y-13866952D01*
X10511000Y-13876476D01*
X10453857Y-13876476D01*
X10434810Y-13866952D01*
X10425286Y-13857428D01*
X10672905Y-13676476D02*
X10691952Y-13676476D01*
X10711000Y-13686000D01*
X10720524Y-13695524D01*
X10730048Y-13714571D01*
X10739571Y-13752667D01*
X10739571Y-13800286D01*
X10730048Y-13838381D01*
X10720524Y-13857428D01*
X10711000Y-13866952D01*
X10691952Y-13876476D01*
X10672905Y-13876476D01*
X10653857Y-13866952D01*
X10644333Y-13857428D01*
X10634810Y-13838381D01*
X10625286Y-13800286D01*
X10625286Y-13752667D01*
X10634810Y-13714571D01*
X10644333Y-13695524D01*
X10653857Y-13686000D01*
X10672905Y-13676476D01*
X10863381Y-13676476D02*
X10882429Y-13676476D01*
X10901476Y-13686000D01*
X10911000Y-13695524D01*
X10920524Y-13714571D01*
X10930048Y-13752667D01*
X10930048Y-13800286D01*
X10920524Y-13838381D01*
X10911000Y-13857428D01*
X10901476Y-13866952D01*
X10882429Y-13876476D01*
X10863381Y-13876476D01*
X10844333Y-13866952D01*
X10834810Y-13857428D01*
X10825286Y-13838381D01*
X10815762Y-13800286D01*
X10815762Y-13752667D01*
X10825286Y-13714571D01*
X10834810Y-13695524D01*
X10844333Y-13686000D01*
X10863381Y-13676476D01*
X11015762Y-13876476D02*
X11015762Y-13743143D01*
X11015762Y-13762190D02*
X11025286Y-13752667D01*
X11044333Y-13743143D01*
X11072905Y-13743143D01*
X11091952Y-13752667D01*
X11101476Y-13771714D01*
X11101476Y-13876476D01*
X11101476Y-13771714D02*
X11111000Y-13752667D01*
X11130048Y-13743143D01*
X11158619Y-13743143D01*
X11177667Y-13752667D01*
X11187190Y-13771714D01*
X11187190Y-13876476D01*
X11282428Y-13876476D02*
X11282428Y-13743143D01*
X11282428Y-13762190D02*
X11291952Y-13752667D01*
X11311000Y-13743143D01*
X11339571Y-13743143D01*
X11358619Y-13752667D01*
X11368143Y-13771714D01*
X11368143Y-13876476D01*
X11368143Y-13771714D02*
X11377667Y-13752667D01*
X11396714Y-13743143D01*
X11425286Y-13743143D01*
X11444333Y-13752667D01*
X11453857Y-13771714D01*
X11453857Y-13876476D01*
X11844333Y-13666952D02*
X11672905Y-13924095D01*
X12101476Y-13676476D02*
X12120524Y-13676476D01*
X12139571Y-13686000D01*
X12149095Y-13695524D01*
X12158619Y-13714571D01*
X12168143Y-13752667D01*
X12168143Y-13800286D01*
X12158619Y-13838381D01*
X12149095Y-13857428D01*
X12139571Y-13866952D01*
X12120524Y-13876476D01*
X12101476Y-13876476D01*
X12082428Y-13866952D01*
X12072905Y-13857428D01*
X12063381Y-13838381D01*
X12053857Y-13800286D01*
X12053857Y-13752667D01*
X12063381Y-13714571D01*
X12072905Y-13695524D01*
X12082428Y-13686000D01*
X12101476Y-13676476D01*
X12253857Y-13857428D02*
X12263381Y-13866952D01*
X12253857Y-13876476D01*
X12244333Y-13866952D01*
X12253857Y-13857428D01*
X12253857Y-13876476D01*
X12387190Y-13676476D02*
X12406238Y-13676476D01*
X12425286Y-13686000D01*
X12434809Y-13695524D01*
X12444333Y-13714571D01*
X12453857Y-13752667D01*
X12453857Y-13800286D01*
X12444333Y-13838381D01*
X12434809Y-13857428D01*
X12425286Y-13866952D01*
X12406238Y-13876476D01*
X12387190Y-13876476D01*
X12368143Y-13866952D01*
X12358619Y-13857428D01*
X12349095Y-13838381D01*
X12339571Y-13800286D01*
X12339571Y-13752667D01*
X12349095Y-13714571D01*
X12358619Y-13695524D01*
X12368143Y-13686000D01*
X12387190Y-13676476D01*
X12634809Y-13676476D02*
X12539571Y-13676476D01*
X12530048Y-13771714D01*
X12539571Y-13762190D01*
X12558619Y-13752667D01*
X12606238Y-13752667D01*
X12625286Y-13762190D01*
X12634809Y-13771714D01*
X12644333Y-13790762D01*
X12644333Y-13838381D01*
X12634809Y-13857428D01*
X12625286Y-13866952D01*
X12606238Y-13876476D01*
X12558619Y-13876476D01*
X12539571Y-13866952D01*
X12530048Y-13857428D01*
X12834809Y-13876476D02*
X12720524Y-13876476D01*
X12777667Y-13876476D02*
X12777667Y-13676476D01*
X12758619Y-13705048D01*
X12739571Y-13724095D01*
X12720524Y-13733619D01*
X12911000Y-13695524D02*
X12920524Y-13686000D01*
X12939571Y-13676476D01*
X12987190Y-13676476D01*
X13006238Y-13686000D01*
X13015762Y-13695524D01*
X13025286Y-13714571D01*
X13025286Y-13733619D01*
X13015762Y-13762190D01*
X12901476Y-13876476D01*
X13025286Y-13876476D01*
X13101476Y-13676476D02*
X13101476Y-13714571D01*
X13177667Y-13676476D02*
X13177667Y-13714571D01*
X13472905Y-13952667D02*
X13463381Y-13943143D01*
X13444333Y-13914571D01*
X13434809Y-13895524D01*
X13425286Y-13866952D01*
X13415762Y-13819333D01*
X13415762Y-13781238D01*
X13425286Y-13733619D01*
X13434809Y-13705048D01*
X13444333Y-13686000D01*
X13463381Y-13657428D01*
X13472905Y-13647905D01*
X13539571Y-13695524D02*
X13549095Y-13686000D01*
X13568143Y-13676476D01*
X13615762Y-13676476D01*
X13634809Y-13686000D01*
X13644333Y-13695524D01*
X13653857Y-13714571D01*
X13653857Y-13733619D01*
X13644333Y-13762190D01*
X13530048Y-13876476D01*
X13653857Y-13876476D01*
X13891952Y-13876476D02*
X13891952Y-13676476D01*
X13977667Y-13876476D02*
X13977667Y-13771714D01*
X13968143Y-13752667D01*
X13949095Y-13743143D01*
X13920524Y-13743143D01*
X13901476Y-13752667D01*
X13891952Y-13762190D01*
X14101476Y-13876476D02*
X14082428Y-13866952D01*
X14072905Y-13857428D01*
X14063381Y-13838381D01*
X14063381Y-13781238D01*
X14072905Y-13762190D01*
X14082428Y-13752667D01*
X14101476Y-13743143D01*
X14130048Y-13743143D01*
X14149095Y-13752667D01*
X14158619Y-13762190D01*
X14168143Y-13781238D01*
X14168143Y-13838381D01*
X14158619Y-13857428D01*
X14149095Y-13866952D01*
X14130048Y-13876476D01*
X14101476Y-13876476D01*
X14282428Y-13876476D02*
X14263381Y-13866952D01*
X14253857Y-13847905D01*
X14253857Y-13676476D01*
X14434809Y-13866952D02*
X14415762Y-13876476D01*
X14377667Y-13876476D01*
X14358619Y-13866952D01*
X14349095Y-13847905D01*
X14349095Y-13771714D01*
X14358619Y-13752667D01*
X14377667Y-13743143D01*
X14415762Y-13743143D01*
X14434809Y-13752667D01*
X14444333Y-13771714D01*
X14444333Y-13790762D01*
X14349095Y-13809809D01*
X14520524Y-13866952D02*
X14539571Y-13876476D01*
X14577667Y-13876476D01*
X14596714Y-13866952D01*
X14606238Y-13847905D01*
X14606238Y-13838381D01*
X14596714Y-13819333D01*
X14577667Y-13809809D01*
X14549095Y-13809809D01*
X14530048Y-13800286D01*
X14520524Y-13781238D01*
X14520524Y-13771714D01*
X14530048Y-13752667D01*
X14549095Y-13743143D01*
X14577667Y-13743143D01*
X14596714Y-13752667D01*
X14672905Y-13952667D02*
X14682428Y-13943143D01*
X14701476Y-13914571D01*
X14711000Y-13895524D01*
X14720524Y-13866952D01*
X14730048Y-13819333D01*
X14730048Y-13781238D01*
X14720524Y-13733619D01*
X14711000Y-13705048D01*
X14701476Y-13686000D01*
X14682428Y-13657428D01*
X14672905Y-13647905D01*
X9701000Y-13950000D02*
X9901000Y-14150000D01*
X9901000Y-13950000D02*
X9701000Y-14150000D01*
X9871711Y-14120711D02*
X9871711Y-13979289D01*
X9730289Y-13979289D01*
X9730289Y-14120711D01*
X9871711Y-14120711D01*
X10149095Y-13959524D02*
X10158619Y-13950000D01*
X10177667Y-13940476D01*
X10225286Y-13940476D01*
X10244333Y-13950000D01*
X10253857Y-13959524D01*
X10263381Y-13978571D01*
X10263381Y-13997619D01*
X10253857Y-14026190D01*
X10139571Y-14140476D01*
X10263381Y-14140476D01*
X10349095Y-14121428D02*
X10358619Y-14130952D01*
X10349095Y-14140476D01*
X10339571Y-14130952D01*
X10349095Y-14121428D01*
X10349095Y-14140476D01*
X10425286Y-13940476D02*
X10549095Y-13940476D01*
X10482429Y-14016667D01*
X10511000Y-14016667D01*
X10530048Y-14026190D01*
X10539571Y-14035714D01*
X10549095Y-14054762D01*
X10549095Y-14102381D01*
X10539571Y-14121428D01*
X10530048Y-14130952D01*
X10511000Y-14140476D01*
X10453857Y-14140476D01*
X10434810Y-14130952D01*
X10425286Y-14121428D01*
X10672905Y-13940476D02*
X10691952Y-13940476D01*
X10711000Y-13950000D01*
X10720524Y-13959524D01*
X10730048Y-13978571D01*
X10739571Y-14016667D01*
X10739571Y-14064286D01*
X10730048Y-14102381D01*
X10720524Y-14121428D01*
X10711000Y-14130952D01*
X10691952Y-14140476D01*
X10672905Y-14140476D01*
X10653857Y-14130952D01*
X10644333Y-14121428D01*
X10634810Y-14102381D01*
X10625286Y-14064286D01*
X10625286Y-14016667D01*
X10634810Y-13978571D01*
X10644333Y-13959524D01*
X10653857Y-13950000D01*
X10672905Y-13940476D01*
X10863381Y-13940476D02*
X10882429Y-13940476D01*
X10901476Y-13950000D01*
X10911000Y-13959524D01*
X10920524Y-13978571D01*
X10930048Y-14016667D01*
X10930048Y-14064286D01*
X10920524Y-14102381D01*
X10911000Y-14121428D01*
X10901476Y-14130952D01*
X10882429Y-14140476D01*
X10863381Y-14140476D01*
X10844333Y-14130952D01*
X10834810Y-14121428D01*
X10825286Y-14102381D01*
X10815762Y-14064286D01*
X10815762Y-14016667D01*
X10825286Y-13978571D01*
X10834810Y-13959524D01*
X10844333Y-13950000D01*
X10863381Y-13940476D01*
X11015762Y-14140476D02*
X11015762Y-14007143D01*
X11015762Y-14026190D02*
X11025286Y-14016667D01*
X11044333Y-14007143D01*
X11072905Y-14007143D01*
X11091952Y-14016667D01*
X11101476Y-14035714D01*
X11101476Y-14140476D01*
X11101476Y-14035714D02*
X11111000Y-14016667D01*
X11130048Y-14007143D01*
X11158619Y-14007143D01*
X11177667Y-14016667D01*
X11187190Y-14035714D01*
X11187190Y-14140476D01*
X11282428Y-14140476D02*
X11282428Y-14007143D01*
X11282428Y-14026190D02*
X11291952Y-14016667D01*
X11311000Y-14007143D01*
X11339571Y-14007143D01*
X11358619Y-14016667D01*
X11368143Y-14035714D01*
X11368143Y-14140476D01*
X11368143Y-14035714D02*
X11377667Y-14016667D01*
X11396714Y-14007143D01*
X11425286Y-14007143D01*
X11444333Y-14016667D01*
X11453857Y-14035714D01*
X11453857Y-14140476D01*
X11844333Y-13930952D02*
X11672905Y-14188095D01*
X12101476Y-13940476D02*
X12120524Y-13940476D01*
X12139571Y-13950000D01*
X12149095Y-13959524D01*
X12158619Y-13978571D01*
X12168143Y-14016667D01*
X12168143Y-14064286D01*
X12158619Y-14102381D01*
X12149095Y-14121428D01*
X12139571Y-14130952D01*
X12120524Y-14140476D01*
X12101476Y-14140476D01*
X12082428Y-14130952D01*
X12072905Y-14121428D01*
X12063381Y-14102381D01*
X12053857Y-14064286D01*
X12053857Y-14016667D01*
X12063381Y-13978571D01*
X12072905Y-13959524D01*
X12082428Y-13950000D01*
X12101476Y-13940476D01*
X12253857Y-14121428D02*
X12263381Y-14130952D01*
X12253857Y-14140476D01*
X12244333Y-14130952D01*
X12253857Y-14121428D01*
X12253857Y-14140476D01*
X12387190Y-13940476D02*
X12406238Y-13940476D01*
X12425286Y-13950000D01*
X12434809Y-13959524D01*
X12444333Y-13978571D01*
X12453857Y-14016667D01*
X12453857Y-14064286D01*
X12444333Y-14102381D01*
X12434809Y-14121428D01*
X12425286Y-14130952D01*
X12406238Y-14140476D01*
X12387190Y-14140476D01*
X12368143Y-14130952D01*
X12358619Y-14121428D01*
X12349095Y-14102381D01*
X12339571Y-14064286D01*
X12339571Y-14016667D01*
X12349095Y-13978571D01*
X12358619Y-13959524D01*
X12368143Y-13950000D01*
X12387190Y-13940476D01*
X12549095Y-14140476D02*
X12587190Y-14140476D01*
X12606238Y-14130952D01*
X12615762Y-14121428D01*
X12634809Y-14092857D01*
X12644333Y-14054762D01*
X12644333Y-13978571D01*
X12634809Y-13959524D01*
X12625286Y-13950000D01*
X12606238Y-13940476D01*
X12568143Y-13940476D01*
X12549095Y-13950000D01*
X12539571Y-13959524D01*
X12530048Y-13978571D01*
X12530048Y-14026190D01*
X12539571Y-14045238D01*
X12549095Y-14054762D01*
X12568143Y-14064286D01*
X12606238Y-14064286D01*
X12625286Y-14054762D01*
X12634809Y-14045238D01*
X12644333Y-14026190D01*
X12768143Y-13940476D02*
X12787190Y-13940476D01*
X12806238Y-13950000D01*
X12815762Y-13959524D01*
X12825286Y-13978571D01*
X12834809Y-14016667D01*
X12834809Y-14064286D01*
X12825286Y-14102381D01*
X12815762Y-14121428D01*
X12806238Y-14130952D01*
X12787190Y-14140476D01*
X12768143Y-14140476D01*
X12749095Y-14130952D01*
X12739571Y-14121428D01*
X12730048Y-14102381D01*
X12720524Y-14064286D01*
X12720524Y-14016667D01*
X12730048Y-13978571D01*
X12739571Y-13959524D01*
X12749095Y-13950000D01*
X12768143Y-13940476D01*
X13006238Y-13940476D02*
X12968143Y-13940476D01*
X12949095Y-13950000D01*
X12939571Y-13959524D01*
X12920524Y-13988095D01*
X12911000Y-14026190D01*
X12911000Y-14102381D01*
X12920524Y-14121428D01*
X12930048Y-14130952D01*
X12949095Y-14140476D01*
X12987190Y-14140476D01*
X13006238Y-14130952D01*
X13015762Y-14121428D01*
X13025286Y-14102381D01*
X13025286Y-14054762D01*
X13015762Y-14035714D01*
X13006238Y-14026190D01*
X12987190Y-14016667D01*
X12949095Y-14016667D01*
X12930048Y-14026190D01*
X12920524Y-14035714D01*
X12911000Y-14054762D01*
X13101476Y-13940476D02*
X13101476Y-13978571D01*
X13177667Y-13940476D02*
X13177667Y-13978571D01*
X13472905Y-14216667D02*
X13463381Y-14207143D01*
X13444333Y-14178571D01*
X13434809Y-14159524D01*
X13425286Y-14130952D01*
X13415762Y-14083333D01*
X13415762Y-14045238D01*
X13425286Y-13997619D01*
X13434809Y-13969048D01*
X13444333Y-13950000D01*
X13463381Y-13921428D01*
X13472905Y-13911905D01*
X13539571Y-13959524D02*
X13549095Y-13950000D01*
X13568143Y-13940476D01*
X13615762Y-13940476D01*
X13634809Y-13950000D01*
X13644333Y-13959524D01*
X13653857Y-13978571D01*
X13653857Y-13997619D01*
X13644333Y-14026190D01*
X13530048Y-14140476D01*
X13653857Y-14140476D01*
X13891952Y-14140476D02*
X13891952Y-13940476D01*
X13977667Y-14140476D02*
X13977667Y-14035714D01*
X13968143Y-14016667D01*
X13949095Y-14007143D01*
X13920524Y-14007143D01*
X13901476Y-14016667D01*
X13891952Y-14026190D01*
X14101476Y-14140476D02*
X14082428Y-14130952D01*
X14072905Y-14121428D01*
X14063381Y-14102381D01*
X14063381Y-14045238D01*
X14072905Y-14026190D01*
X14082428Y-14016667D01*
X14101476Y-14007143D01*
X14130048Y-14007143D01*
X14149095Y-14016667D01*
X14158619Y-14026190D01*
X14168143Y-14045238D01*
X14168143Y-14102381D01*
X14158619Y-14121428D01*
X14149095Y-14130952D01*
X14130048Y-14140476D01*
X14101476Y-14140476D01*
X14282428Y-14140476D02*
X14263381Y-14130952D01*
X14253857Y-14111905D01*
X14253857Y-13940476D01*
X14434809Y-14130952D02*
X14415762Y-14140476D01*
X14377667Y-14140476D01*
X14358619Y-14130952D01*
X14349095Y-14111905D01*
X14349095Y-14035714D01*
X14358619Y-14016667D01*
X14377667Y-14007143D01*
X14415762Y-14007143D01*
X14434809Y-14016667D01*
X14444333Y-14035714D01*
X14444333Y-14054762D01*
X14349095Y-14073809D01*
X14520524Y-14130952D02*
X14539571Y-14140476D01*
X14577667Y-14140476D01*
X14596714Y-14130952D01*
X14606238Y-14111905D01*
X14606238Y-14102381D01*
X14596714Y-14083333D01*
X14577667Y-14073809D01*
X14549095Y-14073809D01*
X14530048Y-14064286D01*
X14520524Y-14045238D01*
X14520524Y-14035714D01*
X14530048Y-14016667D01*
X14549095Y-14007143D01*
X14577667Y-14007143D01*
X14596714Y-14016667D01*
X14672905Y-14216667D02*
X14682428Y-14207143D01*
X14701476Y-14178571D01*
X14711000Y-14159524D01*
X14720524Y-14130952D01*
X14730048Y-14083333D01*
X14730048Y-14045238D01*
X14720524Y-13997619D01*
X14711000Y-13969048D01*
X14701476Y-13950000D01*
X14682428Y-13921428D01*
X14672905Y-13911905D01*
X9701000Y-14270000D02*
X9901000Y-14470000D01*
X9901000Y-14270000D02*
X9701000Y-14470000D01*
X9801000Y-14470000D02*
X9901000Y-14370000D01*
X9801000Y-14270000D01*
X9701000Y-14370000D01*
X9801000Y-14470000D01*
X10139571Y-14260476D02*
X10263381Y-14260476D01*
X10196714Y-14336667D01*
X10225286Y-14336667D01*
X10244333Y-14346190D01*
X10253857Y-14355714D01*
X10263381Y-14374762D01*
X10263381Y-14422381D01*
X10253857Y-14441428D01*
X10244333Y-14450952D01*
X10225286Y-14460476D01*
X10168143Y-14460476D01*
X10149095Y-14450952D01*
X10139571Y-14441428D01*
X10349095Y-14441428D02*
X10358619Y-14450952D01*
X10349095Y-14460476D01*
X10339571Y-14450952D01*
X10349095Y-14441428D01*
X10349095Y-14460476D01*
X10434810Y-14279524D02*
X10444333Y-14270000D01*
X10463381Y-14260476D01*
X10511000Y-14260476D01*
X10530048Y-14270000D01*
X10539571Y-14279524D01*
X10549095Y-14298571D01*
X10549095Y-14317619D01*
X10539571Y-14346190D01*
X10425286Y-14460476D01*
X10549095Y-14460476D01*
X10672905Y-14260476D02*
X10691952Y-14260476D01*
X10711000Y-14270000D01*
X10720524Y-14279524D01*
X10730048Y-14298571D01*
X10739571Y-14336667D01*
X10739571Y-14384286D01*
X10730048Y-14422381D01*
X10720524Y-14441428D01*
X10711000Y-14450952D01*
X10691952Y-14460476D01*
X10672905Y-14460476D01*
X10653857Y-14450952D01*
X10644333Y-14441428D01*
X10634810Y-14422381D01*
X10625286Y-14384286D01*
X10625286Y-14336667D01*
X10634810Y-14298571D01*
X10644333Y-14279524D01*
X10653857Y-14270000D01*
X10672905Y-14260476D01*
X10863381Y-14260476D02*
X10882429Y-14260476D01*
X10901476Y-14270000D01*
X10911000Y-14279524D01*
X10920524Y-14298571D01*
X10930048Y-14336667D01*
X10930048Y-14384286D01*
X10920524Y-14422381D01*
X10911000Y-14441428D01*
X10901476Y-14450952D01*
X10882429Y-14460476D01*
X10863381Y-14460476D01*
X10844333Y-14450952D01*
X10834810Y-14441428D01*
X10825286Y-14422381D01*
X10815762Y-14384286D01*
X10815762Y-14336667D01*
X10825286Y-14298571D01*
X10834810Y-14279524D01*
X10844333Y-14270000D01*
X10863381Y-14260476D01*
X11015762Y-14460476D02*
X11015762Y-14327143D01*
X11015762Y-14346190D02*
X11025286Y-14336667D01*
X11044333Y-14327143D01*
X11072905Y-14327143D01*
X11091952Y-14336667D01*
X11101476Y-14355714D01*
X11101476Y-14460476D01*
X11101476Y-14355714D02*
X11111000Y-14336667D01*
X11130048Y-14327143D01*
X11158619Y-14327143D01*
X11177667Y-14336667D01*
X11187190Y-14355714D01*
X11187190Y-14460476D01*
X11282428Y-14460476D02*
X11282428Y-14327143D01*
X11282428Y-14346190D02*
X11291952Y-14336667D01*
X11311000Y-14327143D01*
X11339571Y-14327143D01*
X11358619Y-14336667D01*
X11368143Y-14355714D01*
X11368143Y-14460476D01*
X11368143Y-14355714D02*
X11377667Y-14336667D01*
X11396714Y-14327143D01*
X11425286Y-14327143D01*
X11444333Y-14336667D01*
X11453857Y-14355714D01*
X11453857Y-14460476D01*
X11844333Y-14250952D02*
X11672905Y-14508095D01*
X12101476Y-14260476D02*
X12120524Y-14260476D01*
X12139571Y-14270000D01*
X12149095Y-14279524D01*
X12158619Y-14298571D01*
X12168143Y-14336667D01*
X12168143Y-14384286D01*
X12158619Y-14422381D01*
X12149095Y-14441428D01*
X12139571Y-14450952D01*
X12120524Y-14460476D01*
X12101476Y-14460476D01*
X12082428Y-14450952D01*
X12072905Y-14441428D01*
X12063381Y-14422381D01*
X12053857Y-14384286D01*
X12053857Y-14336667D01*
X12063381Y-14298571D01*
X12072905Y-14279524D01*
X12082428Y-14270000D01*
X12101476Y-14260476D01*
X12253857Y-14441428D02*
X12263381Y-14450952D01*
X12253857Y-14460476D01*
X12244333Y-14450952D01*
X12253857Y-14441428D01*
X12253857Y-14460476D01*
X12453857Y-14460476D02*
X12339571Y-14460476D01*
X12396714Y-14460476D02*
X12396714Y-14260476D01*
X12377667Y-14289048D01*
X12358619Y-14308095D01*
X12339571Y-14317619D01*
X12530048Y-14279524D02*
X12539571Y-14270000D01*
X12558619Y-14260476D01*
X12606238Y-14260476D01*
X12625286Y-14270000D01*
X12634809Y-14279524D01*
X12644333Y-14298571D01*
X12644333Y-14317619D01*
X12634809Y-14346190D01*
X12520524Y-14460476D01*
X12644333Y-14460476D01*
X12815762Y-14260476D02*
X12777667Y-14260476D01*
X12758619Y-14270000D01*
X12749095Y-14279524D01*
X12730048Y-14308095D01*
X12720524Y-14346190D01*
X12720524Y-14422381D01*
X12730048Y-14441428D01*
X12739571Y-14450952D01*
X12758619Y-14460476D01*
X12796714Y-14460476D01*
X12815762Y-14450952D01*
X12825286Y-14441428D01*
X12834809Y-14422381D01*
X12834809Y-14374762D01*
X12825286Y-14355714D01*
X12815762Y-14346190D01*
X12796714Y-14336667D01*
X12758619Y-14336667D01*
X12739571Y-14346190D01*
X12730048Y-14355714D01*
X12720524Y-14374762D01*
X12958619Y-14260476D02*
X12977667Y-14260476D01*
X12996714Y-14270000D01*
X13006238Y-14279524D01*
X13015762Y-14298571D01*
X13025286Y-14336667D01*
X13025286Y-14384286D01*
X13015762Y-14422381D01*
X13006238Y-14441428D01*
X12996714Y-14450952D01*
X12977667Y-14460476D01*
X12958619Y-14460476D01*
X12939571Y-14450952D01*
X12930048Y-14441428D01*
X12920524Y-14422381D01*
X12911000Y-14384286D01*
X12911000Y-14336667D01*
X12920524Y-14298571D01*
X12930048Y-14279524D01*
X12939571Y-14270000D01*
X12958619Y-14260476D01*
X13101476Y-14260476D02*
X13101476Y-14298571D01*
X13177667Y-14260476D02*
X13177667Y-14298571D01*
X13472905Y-14536667D02*
X13463381Y-14527143D01*
X13444333Y-14498571D01*
X13434809Y-14479524D01*
X13425286Y-14450952D01*
X13415762Y-14403333D01*
X13415762Y-14365238D01*
X13425286Y-14317619D01*
X13434809Y-14289048D01*
X13444333Y-14270000D01*
X13463381Y-14241428D01*
X13472905Y-14231905D01*
X13530048Y-14260476D02*
X13653857Y-14260476D01*
X13587190Y-14336667D01*
X13615762Y-14336667D01*
X13634809Y-14346190D01*
X13644333Y-14355714D01*
X13653857Y-14374762D01*
X13653857Y-14422381D01*
X13644333Y-14441428D01*
X13634809Y-14450952D01*
X13615762Y-14460476D01*
X13558619Y-14460476D01*
X13539571Y-14450952D01*
X13530048Y-14441428D01*
X13891952Y-14460476D02*
X13891952Y-14260476D01*
X13977667Y-14460476D02*
X13977667Y-14355714D01*
X13968143Y-14336667D01*
X13949095Y-14327143D01*
X13920524Y-14327143D01*
X13901476Y-14336667D01*
X13891952Y-14346190D01*
X14101476Y-14460476D02*
X14082428Y-14450952D01*
X14072905Y-14441428D01*
X14063381Y-14422381D01*
X14063381Y-14365238D01*
X14072905Y-14346190D01*
X14082428Y-14336667D01*
X14101476Y-14327143D01*
X14130048Y-14327143D01*
X14149095Y-14336667D01*
X14158619Y-14346190D01*
X14168143Y-14365238D01*
X14168143Y-14422381D01*
X14158619Y-14441428D01*
X14149095Y-14450952D01*
X14130048Y-14460476D01*
X14101476Y-14460476D01*
X14282428Y-14460476D02*
X14263381Y-14450952D01*
X14253857Y-14431905D01*
X14253857Y-14260476D01*
X14434809Y-14450952D02*
X14415762Y-14460476D01*
X14377667Y-14460476D01*
X14358619Y-14450952D01*
X14349095Y-14431905D01*
X14349095Y-14355714D01*
X14358619Y-14336667D01*
X14377667Y-14327143D01*
X14415762Y-14327143D01*
X14434809Y-14336667D01*
X14444333Y-14355714D01*
X14444333Y-14374762D01*
X14349095Y-14393809D01*
X14520524Y-14450952D02*
X14539571Y-14460476D01*
X14577667Y-14460476D01*
X14596714Y-14450952D01*
X14606238Y-14431905D01*
X14606238Y-14422381D01*
X14596714Y-14403333D01*
X14577667Y-14393809D01*
X14549095Y-14393809D01*
X14530048Y-14384286D01*
X14520524Y-14365238D01*
X14520524Y-14355714D01*
X14530048Y-14336667D01*
X14549095Y-14327143D01*
X14577667Y-14327143D01*
X14596714Y-14336667D01*
X14672905Y-14536667D02*
X14682428Y-14527143D01*
X14701476Y-14498571D01*
X14711000Y-14479524D01*
X14720524Y-14450952D01*
X14730048Y-14403333D01*
X14730048Y-14365238D01*
X14720524Y-14317619D01*
X14711000Y-14289048D01*
X14701476Y-14270000D01*
X14682428Y-14241428D01*
X14672905Y-14231905D01*
M02*
