%TF.GenerationSoftware,KiCad,Pcbnew,(6.0.1)*%
%TF.CreationDate,2022-02-21T12:48:27+02:00*%
%TF.ProjectId,Focuser-V1.Remote,466f6375-7365-4722-9d56-312e52656d6f,rev?*%
%TF.SameCoordinates,Original*%
%TF.FileFunction,Copper,L1,Top*%
%TF.FilePolarity,Positive*%
%FSLAX46Y46*%
G04 Gerber Fmt 4.6, Leading zero omitted, Abs format (unit mm)*
G04 Created by KiCad (PCBNEW (6.0.1)) date 2022-02-21 12:48:27*
%MOMM*%
%LPD*%
G01*
G04 APERTURE LIST*
%TA.AperFunction,ComponentPad*%
%ADD10R,1.500000X1.500000*%
%TD*%
%TA.AperFunction,ComponentPad*%
%ADD11C,1.500000*%
%TD*%
%TA.AperFunction,ComponentPad*%
%ADD12C,6.000000*%
%TD*%
%TA.AperFunction,ComponentPad*%
%ADD13R,1.700000X1.700000*%
%TD*%
%TA.AperFunction,ComponentPad*%
%ADD14O,1.700000X1.700000*%
%TD*%
%TA.AperFunction,Conductor*%
%ADD15C,0.250000*%
%TD*%
%TA.AperFunction,Conductor*%
%ADD16C,0.500000*%
%TD*%
G04 APERTURE END LIST*
D10*
%TO.P,J1,1*%
%TO.N,/SDA*%
X175240000Y-93817500D03*
D11*
%TO.P,J1,2*%
%TO.N,/SCL*%
X172700000Y-92547500D03*
%TO.P,J1,3*%
%TO.N,/3V3*%
X175240000Y-91277500D03*
%TO.P,J1,4*%
%TO.N,GND*%
X172700000Y-90007500D03*
%TO.P,J1,5*%
%TO.N,/EncClk*%
X175240000Y-88737500D03*
%TO.P,J1,6*%
%TO.N,/EncDt*%
X172700000Y-87467500D03*
%TO.P,J1,7*%
%TO.N,/EncSw*%
X175240000Y-86197500D03*
%TO.P,J1,8*%
%TO.N,GND*%
X172700000Y-84927500D03*
%TD*%
D12*
%TO.P,REF3,1*%
%TO.N,N/C*%
X185420000Y-76835000D03*
%TD*%
D13*
%TO.P,J3,1,Pin_1*%
%TO.N,GND*%
X160020000Y-84460000D03*
D14*
%TO.P,J3,2,Pin_2*%
%TO.N,/3V3*%
X160020000Y-87000000D03*
%TO.P,J3,3,Pin_3*%
%TO.N,/EncSw*%
X160020000Y-89540000D03*
%TO.P,J3,4,Pin_4*%
%TO.N,/EncDt*%
X160020000Y-92080000D03*
%TO.P,J3,5,Pin_5*%
%TO.N,/EncClk*%
X160020000Y-94620000D03*
%TD*%
D13*
%TO.P,J2,1,Pin_1*%
%TO.N,GND*%
X167005000Y-85725000D03*
D14*
%TO.P,J2,2,Pin_2*%
%TO.N,/3V3*%
X167005000Y-88265000D03*
%TO.P,J2,3,Pin_3*%
%TO.N,/SCL*%
X167005000Y-90805000D03*
%TO.P,J2,4,Pin_4*%
%TO.N,/SDA*%
X167005000Y-93345000D03*
%TD*%
D12*
%TO.P,REF4,1*%
%TO.N,N/C*%
X185420000Y-101600000D03*
%TD*%
%TO.P,REF1,1*%
%TO.N,N/C*%
X159385000Y-101600000D03*
%TD*%
%TO.P,REF2,1*%
%TO.N,N/C*%
X159385000Y-76835000D03*
%TD*%
D15*
%TO.N,/SDA*%
X168652800Y-93817500D02*
X175240000Y-93817500D01*
X167005000Y-93345000D02*
X168180300Y-93345000D01*
X168180300Y-93345000D02*
X168652800Y-93817500D01*
%TO.N,/SCL*%
X169922800Y-92547500D02*
X172700000Y-92547500D01*
X168180300Y-90805000D02*
X169922800Y-92547500D01*
X167005000Y-90805000D02*
X168180300Y-90805000D01*
D16*
%TO.N,/3V3*%
X161320300Y-87000000D02*
X162585300Y-88265000D01*
X171317800Y-91277500D02*
X175240000Y-91277500D01*
X162585300Y-88265000D02*
X167005000Y-88265000D01*
X167005000Y-88265000D02*
X168305300Y-88265000D01*
X160020000Y-87000000D02*
X161320300Y-87000000D01*
X168305300Y-88265000D02*
X171317800Y-91277500D01*
%TO.N,GND*%
X167005000Y-85725000D02*
X168305300Y-85725000D01*
X172700000Y-84927500D02*
X172246700Y-84927500D01*
X168305300Y-85725000D02*
X171449200Y-85725000D01*
X164439700Y-84460000D02*
X165704700Y-85725000D01*
X160020000Y-84460000D02*
X164439700Y-84460000D01*
X167005000Y-85725000D02*
X165704700Y-85725000D01*
X172246700Y-84927500D02*
X171449200Y-85725000D01*
X171449200Y-85725000D02*
X171449200Y-88756700D01*
X171449200Y-88756700D02*
X172700000Y-90007500D01*
%TD*%
%TA.AperFunction,Conductor*%
%TO.N,GND*%
G36*
X189299121Y-72283002D02*
G01*
X189345614Y-72336658D01*
X189357000Y-72389000D01*
X189357000Y-106046000D01*
X189336998Y-106114121D01*
X189283342Y-106160614D01*
X189231000Y-106172000D01*
X154939000Y-106172000D01*
X154870879Y-106151998D01*
X154824386Y-106098342D01*
X154813000Y-106046000D01*
X154813000Y-101600000D01*
X155871685Y-101600000D01*
X155890931Y-101967241D01*
X155948459Y-102330459D01*
X156043639Y-102685674D01*
X156175427Y-103028994D01*
X156342380Y-103356657D01*
X156542668Y-103665075D01*
X156774098Y-103950867D01*
X157034133Y-104210902D01*
X157319925Y-104442332D01*
X157628342Y-104642620D01*
X157631276Y-104644115D01*
X157631283Y-104644119D01*
X157953066Y-104808075D01*
X157956006Y-104809573D01*
X158299326Y-104941361D01*
X158654541Y-105036541D01*
X158847558Y-105067112D01*
X159014511Y-105093555D01*
X159014519Y-105093556D01*
X159017759Y-105094069D01*
X159385000Y-105113315D01*
X159752241Y-105094069D01*
X159755481Y-105093556D01*
X159755489Y-105093555D01*
X159922442Y-105067112D01*
X160115459Y-105036541D01*
X160470674Y-104941361D01*
X160813994Y-104809573D01*
X160816934Y-104808075D01*
X161138717Y-104644119D01*
X161138724Y-104644115D01*
X161141658Y-104642620D01*
X161450075Y-104442332D01*
X161735867Y-104210902D01*
X161995902Y-103950867D01*
X162227332Y-103665075D01*
X162427620Y-103356657D01*
X162594573Y-103028994D01*
X162726361Y-102685674D01*
X162821541Y-102330459D01*
X162879069Y-101967241D01*
X162898315Y-101600000D01*
X181906685Y-101600000D01*
X181925931Y-101967241D01*
X181983459Y-102330459D01*
X182078639Y-102685674D01*
X182210427Y-103028994D01*
X182377380Y-103356657D01*
X182577668Y-103665075D01*
X182809098Y-103950867D01*
X183069133Y-104210902D01*
X183354925Y-104442332D01*
X183663342Y-104642620D01*
X183666276Y-104644115D01*
X183666283Y-104644119D01*
X183988066Y-104808075D01*
X183991006Y-104809573D01*
X184334326Y-104941361D01*
X184689541Y-105036541D01*
X184882558Y-105067112D01*
X185049511Y-105093555D01*
X185049519Y-105093556D01*
X185052759Y-105094069D01*
X185420000Y-105113315D01*
X185787241Y-105094069D01*
X185790481Y-105093556D01*
X185790489Y-105093555D01*
X185957442Y-105067112D01*
X186150459Y-105036541D01*
X186505674Y-104941361D01*
X186848994Y-104809573D01*
X186851934Y-104808075D01*
X187173717Y-104644119D01*
X187173724Y-104644115D01*
X187176658Y-104642620D01*
X187485075Y-104442332D01*
X187770867Y-104210902D01*
X188030902Y-103950867D01*
X188262332Y-103665075D01*
X188462620Y-103356657D01*
X188629573Y-103028994D01*
X188761361Y-102685674D01*
X188856541Y-102330459D01*
X188914069Y-101967241D01*
X188933315Y-101600000D01*
X188914069Y-101232759D01*
X188856541Y-100869541D01*
X188761361Y-100514326D01*
X188629573Y-100171006D01*
X188462620Y-99843343D01*
X188262332Y-99534925D01*
X188030902Y-99249133D01*
X187770867Y-98989098D01*
X187485075Y-98757668D01*
X187176658Y-98557380D01*
X187173724Y-98555885D01*
X187173717Y-98555881D01*
X186851934Y-98391925D01*
X186848994Y-98390427D01*
X186505674Y-98258639D01*
X186150459Y-98163459D01*
X185957442Y-98132888D01*
X185790489Y-98106445D01*
X185790481Y-98106444D01*
X185787241Y-98105931D01*
X185420000Y-98086685D01*
X185052759Y-98105931D01*
X185049519Y-98106444D01*
X185049511Y-98106445D01*
X184882558Y-98132888D01*
X184689541Y-98163459D01*
X184334326Y-98258639D01*
X183991006Y-98390427D01*
X183988066Y-98391925D01*
X183666284Y-98555881D01*
X183666277Y-98555885D01*
X183663343Y-98557380D01*
X183354925Y-98757668D01*
X183069133Y-98989098D01*
X182809098Y-99249133D01*
X182577668Y-99534925D01*
X182377380Y-99843343D01*
X182210427Y-100171006D01*
X182078639Y-100514326D01*
X181983459Y-100869541D01*
X181925931Y-101232759D01*
X181906685Y-101600000D01*
X162898315Y-101600000D01*
X162879069Y-101232759D01*
X162821541Y-100869541D01*
X162726361Y-100514326D01*
X162594573Y-100171006D01*
X162427620Y-99843343D01*
X162227332Y-99534925D01*
X161995902Y-99249133D01*
X161735867Y-98989098D01*
X161450075Y-98757668D01*
X161141658Y-98557380D01*
X161138724Y-98555885D01*
X161138717Y-98555881D01*
X160816934Y-98391925D01*
X160813994Y-98390427D01*
X160470674Y-98258639D01*
X160115459Y-98163459D01*
X159922442Y-98132888D01*
X159755489Y-98106445D01*
X159755481Y-98106444D01*
X159752241Y-98105931D01*
X159385000Y-98086685D01*
X159017759Y-98105931D01*
X159014519Y-98106444D01*
X159014511Y-98106445D01*
X158847558Y-98132888D01*
X158654541Y-98163459D01*
X158299326Y-98258639D01*
X157956006Y-98390427D01*
X157953066Y-98391925D01*
X157631284Y-98555881D01*
X157631277Y-98555885D01*
X157628343Y-98557380D01*
X157319925Y-98757668D01*
X157034133Y-98989098D01*
X156774098Y-99249133D01*
X156542668Y-99534925D01*
X156342380Y-99843343D01*
X156175427Y-100171006D01*
X156043639Y-100514326D01*
X155948459Y-100869541D01*
X155890931Y-101232759D01*
X155871685Y-101600000D01*
X154813000Y-101600000D01*
X154813000Y-94586695D01*
X158657251Y-94586695D01*
X158657548Y-94591848D01*
X158657548Y-94591851D01*
X158664162Y-94706564D01*
X158670110Y-94809715D01*
X158671247Y-94814761D01*
X158671248Y-94814767D01*
X158672741Y-94821391D01*
X158719222Y-95027639D01*
X158757461Y-95121811D01*
X158797414Y-95220203D01*
X158803266Y-95234616D01*
X158919987Y-95425088D01*
X159066250Y-95593938D01*
X159238126Y-95736632D01*
X159431000Y-95849338D01*
X159639692Y-95929030D01*
X159644760Y-95930061D01*
X159644763Y-95930062D01*
X159752017Y-95951883D01*
X159858597Y-95973567D01*
X159863772Y-95973757D01*
X159863774Y-95973757D01*
X160076673Y-95981564D01*
X160076677Y-95981564D01*
X160081837Y-95981753D01*
X160086957Y-95981097D01*
X160086959Y-95981097D01*
X160298288Y-95954025D01*
X160298289Y-95954025D01*
X160303416Y-95953368D01*
X160308366Y-95951883D01*
X160512429Y-95890661D01*
X160512434Y-95890659D01*
X160517384Y-95889174D01*
X160717994Y-95790896D01*
X160899860Y-95661173D01*
X161058096Y-95503489D01*
X161117594Y-95420689D01*
X161185435Y-95326277D01*
X161188453Y-95322077D01*
X161225788Y-95246536D01*
X161238802Y-95220203D01*
X179480743Y-95220203D01*
X179481302Y-95224447D01*
X179481302Y-95224451D01*
X179483084Y-95237988D01*
X179518268Y-95505234D01*
X179594129Y-95782536D01*
X179595813Y-95786484D01*
X179675171Y-95972534D01*
X179706923Y-96046976D01*
X179854561Y-96293661D01*
X180034313Y-96518028D01*
X180242851Y-96715923D01*
X180476317Y-96883686D01*
X180480112Y-96885695D01*
X180480113Y-96885696D01*
X180501869Y-96897215D01*
X180730392Y-97018212D01*
X181000373Y-97117011D01*
X181281264Y-97178255D01*
X181309841Y-97180504D01*
X181504282Y-97195807D01*
X181504291Y-97195807D01*
X181506739Y-97196000D01*
X181662271Y-97196000D01*
X181664407Y-97195854D01*
X181664418Y-97195854D01*
X181872548Y-97181665D01*
X181872554Y-97181664D01*
X181876825Y-97181373D01*
X181881020Y-97180504D01*
X181881022Y-97180504D01*
X182017583Y-97152224D01*
X182158342Y-97123074D01*
X182429343Y-97027107D01*
X182684812Y-96895250D01*
X182688313Y-96892789D01*
X182688317Y-96892787D01*
X182802417Y-96812596D01*
X182920023Y-96729941D01*
X183130622Y-96534240D01*
X183312713Y-96311768D01*
X183462927Y-96066642D01*
X183578483Y-95803398D01*
X183657244Y-95526906D01*
X183697751Y-95242284D01*
X183697792Y-95234616D01*
X183699235Y-94959083D01*
X183699235Y-94959076D01*
X183699257Y-94954797D01*
X183695148Y-94923581D01*
X183666601Y-94706753D01*
X183661732Y-94669766D01*
X183657710Y-94655062D01*
X183602972Y-94454974D01*
X183585871Y-94392464D01*
X183544771Y-94296108D01*
X183474763Y-94131976D01*
X183474761Y-94131972D01*
X183473077Y-94128024D01*
X183381997Y-93975840D01*
X183327643Y-93885021D01*
X183327640Y-93885017D01*
X183325439Y-93881339D01*
X183145687Y-93656972D01*
X182964043Y-93484598D01*
X182940258Y-93462027D01*
X182940255Y-93462025D01*
X182937149Y-93459077D01*
X182703683Y-93291314D01*
X182681843Y-93279750D01*
X182605778Y-93239476D01*
X182449608Y-93156788D01*
X182314617Y-93107388D01*
X182183658Y-93059464D01*
X182183656Y-93059463D01*
X182179627Y-93057989D01*
X181898736Y-92996745D01*
X181867685Y-92994301D01*
X181675718Y-92979193D01*
X181675709Y-92979193D01*
X181673261Y-92979000D01*
X181517729Y-92979000D01*
X181515593Y-92979146D01*
X181515582Y-92979146D01*
X181307452Y-92993335D01*
X181307446Y-92993336D01*
X181303175Y-92993627D01*
X181298980Y-92994496D01*
X181298978Y-92994496D01*
X181195289Y-93015969D01*
X181021658Y-93051926D01*
X180750657Y-93147893D01*
X180746848Y-93149859D01*
X180554942Y-93248909D01*
X180495188Y-93279750D01*
X180491687Y-93282211D01*
X180491683Y-93282213D01*
X180396450Y-93349144D01*
X180259977Y-93445059D01*
X180244892Y-93459077D01*
X180092558Y-93600635D01*
X180049378Y-93640760D01*
X179867287Y-93863232D01*
X179717073Y-94108358D01*
X179715347Y-94112291D01*
X179715346Y-94112292D01*
X179633056Y-94299755D01*
X179601517Y-94371602D01*
X179600342Y-94375729D01*
X179600341Y-94375730D01*
X179577768Y-94454974D01*
X179522756Y-94648094D01*
X179482249Y-94932716D01*
X179482227Y-94937005D01*
X179482226Y-94937012D01*
X179481529Y-95070098D01*
X179480743Y-95220203D01*
X161238802Y-95220203D01*
X161285136Y-95126453D01*
X161285137Y-95126451D01*
X161287430Y-95121811D01*
X161339464Y-94950549D01*
X161350865Y-94913023D01*
X161350865Y-94913021D01*
X161352370Y-94908069D01*
X161381529Y-94686590D01*
X161381730Y-94678368D01*
X161383074Y-94623365D01*
X161383074Y-94623361D01*
X161383156Y-94620000D01*
X161364852Y-94397361D01*
X161310431Y-94180702D01*
X161221354Y-93975840D01*
X161158053Y-93877992D01*
X161102822Y-93792617D01*
X161102820Y-93792614D01*
X161100014Y-93788277D01*
X160949670Y-93623051D01*
X160945619Y-93619852D01*
X160945615Y-93619848D01*
X160778414Y-93487800D01*
X160778410Y-93487798D01*
X160774359Y-93484598D01*
X160733053Y-93461796D01*
X160683084Y-93411364D01*
X160668312Y-93341921D01*
X160693428Y-93275516D01*
X160720780Y-93248909D01*
X160764603Y-93217650D01*
X160899860Y-93121173D01*
X160904015Y-93117033D01*
X161023807Y-92997658D01*
X161058096Y-92963489D01*
X161065819Y-92952742D01*
X161185435Y-92786277D01*
X161188453Y-92782077D01*
X161201776Y-92755121D01*
X161285136Y-92586453D01*
X161285137Y-92586451D01*
X161287430Y-92581811D01*
X161352370Y-92368069D01*
X161381529Y-92146590D01*
X161382090Y-92123635D01*
X161383074Y-92083365D01*
X161383074Y-92083361D01*
X161383156Y-92080000D01*
X161364852Y-91857361D01*
X161310431Y-91640702D01*
X161221354Y-91435840D01*
X161118919Y-91277500D01*
X161102822Y-91252617D01*
X161102820Y-91252614D01*
X161100014Y-91248277D01*
X160949670Y-91083051D01*
X160945619Y-91079852D01*
X160945615Y-91079848D01*
X160778414Y-90947800D01*
X160778410Y-90947798D01*
X160774359Y-90944598D01*
X160733053Y-90921796D01*
X160683084Y-90871364D01*
X160668312Y-90801921D01*
X160693428Y-90735516D01*
X160720780Y-90708909D01*
X160764603Y-90677650D01*
X160899860Y-90581173D01*
X161058096Y-90423489D01*
X161111908Y-90348602D01*
X161185435Y-90246277D01*
X161188453Y-90242077D01*
X161193385Y-90232099D01*
X161285136Y-90046453D01*
X161285137Y-90046451D01*
X161287430Y-90041811D01*
X161352370Y-89828069D01*
X161381529Y-89606590D01*
X161382408Y-89570613D01*
X161383074Y-89543365D01*
X161383074Y-89543361D01*
X161383156Y-89540000D01*
X161364852Y-89317361D01*
X161310431Y-89100702D01*
X161221354Y-88895840D01*
X161118451Y-88736776D01*
X161102822Y-88712617D01*
X161102820Y-88712614D01*
X161100014Y-88708277D01*
X160949670Y-88543051D01*
X160945619Y-88539852D01*
X160945615Y-88539848D01*
X160778414Y-88407800D01*
X160778410Y-88407798D01*
X160774359Y-88404598D01*
X160733053Y-88381796D01*
X160683084Y-88331364D01*
X160668312Y-88261921D01*
X160693428Y-88195516D01*
X160720780Y-88168909D01*
X160764603Y-88137650D01*
X160899860Y-88041173D01*
X160967331Y-87973938D01*
X161005571Y-87935831D01*
X161067943Y-87901915D01*
X161138750Y-87907104D01*
X161183606Y-87935987D01*
X162001530Y-88753911D01*
X162013916Y-88768323D01*
X162022449Y-88779918D01*
X162022454Y-88779923D01*
X162026792Y-88785818D01*
X162032370Y-88790557D01*
X162032373Y-88790560D01*
X162067068Y-88820035D01*
X162074584Y-88826965D01*
X162080279Y-88832660D01*
X162083161Y-88834940D01*
X162102551Y-88850281D01*
X162105955Y-88853072D01*
X162156003Y-88895591D01*
X162161585Y-88900333D01*
X162168101Y-88903661D01*
X162173150Y-88907028D01*
X162178279Y-88910195D01*
X162184016Y-88914734D01*
X162250175Y-88945655D01*
X162254069Y-88947558D01*
X162319108Y-88980769D01*
X162326216Y-88982508D01*
X162331859Y-88984607D01*
X162337622Y-88986524D01*
X162344250Y-88989622D01*
X162351412Y-88991112D01*
X162351413Y-88991112D01*
X162415712Y-89004486D01*
X162419996Y-89005456D01*
X162490910Y-89022808D01*
X162496512Y-89023156D01*
X162496515Y-89023156D01*
X162502064Y-89023500D01*
X162502062Y-89023536D01*
X162506055Y-89023775D01*
X162510247Y-89024149D01*
X162517415Y-89025640D01*
X162594820Y-89023546D01*
X162598228Y-89023500D01*
X165807491Y-89023500D01*
X165875612Y-89043502D01*
X165904402Y-89070595D01*
X165904987Y-89070088D01*
X166051250Y-89238938D01*
X166223126Y-89381632D01*
X166293595Y-89422811D01*
X166296445Y-89424476D01*
X166345169Y-89476114D01*
X166358240Y-89545897D01*
X166331509Y-89611669D01*
X166291055Y-89645027D01*
X166278607Y-89651507D01*
X166274474Y-89654610D01*
X166274471Y-89654612D01*
X166104100Y-89782530D01*
X166099965Y-89785635D01*
X165945629Y-89947138D01*
X165819743Y-90131680D01*
X165781011Y-90215121D01*
X165735277Y-90313648D01*
X165725688Y-90334305D01*
X165665989Y-90549570D01*
X165642251Y-90771695D01*
X165642548Y-90776848D01*
X165642548Y-90776851D01*
X165652220Y-90944598D01*
X165655110Y-90994715D01*
X165656247Y-90999761D01*
X165656248Y-90999767D01*
X165668204Y-91052819D01*
X165704222Y-91212639D01*
X165788266Y-91419616D01*
X165904987Y-91610088D01*
X166051250Y-91778938D01*
X166169481Y-91877095D01*
X166213547Y-91913679D01*
X166223126Y-91921632D01*
X166293595Y-91962811D01*
X166296445Y-91964476D01*
X166345169Y-92016114D01*
X166358240Y-92085897D01*
X166331509Y-92151669D01*
X166291055Y-92185027D01*
X166278607Y-92191507D01*
X166274473Y-92194611D01*
X166174444Y-92269715D01*
X166099965Y-92325635D01*
X165945629Y-92487138D01*
X165942715Y-92491410D01*
X165942714Y-92491411D01*
X165909018Y-92540807D01*
X165819743Y-92671680D01*
X165781011Y-92755121D01*
X165744471Y-92833841D01*
X165725688Y-92874305D01*
X165665989Y-93089570D01*
X165642251Y-93311695D01*
X165642548Y-93316848D01*
X165642548Y-93316851D01*
X165652220Y-93484598D01*
X165655110Y-93534715D01*
X165656247Y-93539761D01*
X165656248Y-93539767D01*
X165669266Y-93597530D01*
X165704222Y-93752639D01*
X165788266Y-93959616D01*
X165790965Y-93964020D01*
X165881826Y-94112292D01*
X165904987Y-94150088D01*
X166051250Y-94318938D01*
X166223126Y-94461632D01*
X166416000Y-94574338D01*
X166420825Y-94576180D01*
X166420826Y-94576181D01*
X166461862Y-94591851D01*
X166624692Y-94654030D01*
X166629760Y-94655061D01*
X166629763Y-94655062D01*
X166702036Y-94669766D01*
X166843597Y-94698567D01*
X166848772Y-94698757D01*
X166848774Y-94698757D01*
X167061673Y-94706564D01*
X167061677Y-94706564D01*
X167066837Y-94706753D01*
X167071957Y-94706097D01*
X167071959Y-94706097D01*
X167283288Y-94679025D01*
X167283289Y-94679025D01*
X167288416Y-94678368D01*
X167330894Y-94665624D01*
X167497429Y-94615661D01*
X167497434Y-94615659D01*
X167502384Y-94614174D01*
X167702994Y-94515896D01*
X167884860Y-94386173D01*
X167888515Y-94382531D01*
X167888523Y-94382524D01*
X168015915Y-94255577D01*
X168078286Y-94221661D01*
X168149093Y-94226850D01*
X168191106Y-94252977D01*
X168210450Y-94271142D01*
X168213293Y-94273898D01*
X168233030Y-94293635D01*
X168236227Y-94296115D01*
X168245247Y-94303818D01*
X168277479Y-94334086D01*
X168284425Y-94337905D01*
X168284428Y-94337907D01*
X168295234Y-94343848D01*
X168311753Y-94354699D01*
X168327759Y-94367114D01*
X168335028Y-94370259D01*
X168335032Y-94370262D01*
X168368337Y-94384674D01*
X168378987Y-94389891D01*
X168417740Y-94411195D01*
X168425415Y-94413166D01*
X168425416Y-94413166D01*
X168437362Y-94416233D01*
X168456067Y-94422637D01*
X168474655Y-94430681D01*
X168482478Y-94431920D01*
X168482488Y-94431923D01*
X168518324Y-94437599D01*
X168529944Y-94440005D01*
X168565089Y-94449028D01*
X168572770Y-94451000D01*
X168593024Y-94451000D01*
X168612734Y-94452551D01*
X168632743Y-94455720D01*
X168640635Y-94454974D01*
X168676761Y-94451559D01*
X168688619Y-94451000D01*
X173855500Y-94451000D01*
X173923621Y-94471002D01*
X173970114Y-94524658D01*
X173981500Y-94577000D01*
X173981500Y-94615634D01*
X173988255Y-94677816D01*
X174039385Y-94814205D01*
X174126739Y-94930761D01*
X174243295Y-95018115D01*
X174379684Y-95069245D01*
X174441866Y-95076000D01*
X176038134Y-95076000D01*
X176100316Y-95069245D01*
X176236705Y-95018115D01*
X176353261Y-94930761D01*
X176440615Y-94814205D01*
X176491745Y-94677816D01*
X176498500Y-94615634D01*
X176498500Y-93019366D01*
X176491745Y-92957184D01*
X176440615Y-92820795D01*
X176353261Y-92704239D01*
X176236705Y-92616885D01*
X176100316Y-92565755D01*
X176038134Y-92559000D01*
X176003577Y-92559000D01*
X175935456Y-92538998D01*
X175888963Y-92485342D01*
X175878859Y-92415068D01*
X175908353Y-92350488D01*
X175931306Y-92329787D01*
X176047527Y-92248408D01*
X176047529Y-92248406D01*
X176052038Y-92245249D01*
X176207749Y-92089538D01*
X176212072Y-92083365D01*
X176330899Y-91913662D01*
X176330900Y-91913660D01*
X176334056Y-91909153D01*
X176336379Y-91904171D01*
X176336382Y-91904166D01*
X176403039Y-91761217D01*
X176427120Y-91709576D01*
X176484115Y-91496871D01*
X176503307Y-91277500D01*
X176484115Y-91058129D01*
X176427120Y-90845424D01*
X176359064Y-90699476D01*
X176336382Y-90650834D01*
X176336379Y-90650829D01*
X176334056Y-90645847D01*
X176245237Y-90519000D01*
X176210908Y-90469973D01*
X176210906Y-90469970D01*
X176207749Y-90465462D01*
X176052038Y-90309751D01*
X176029317Y-90293841D01*
X175911443Y-90211305D01*
X175871654Y-90183444D01*
X175866672Y-90181121D01*
X175866667Y-90181118D01*
X175739232Y-90121695D01*
X175685947Y-90074778D01*
X175666486Y-90006501D01*
X175687028Y-89938541D01*
X175739232Y-89893305D01*
X175866667Y-89833882D01*
X175866672Y-89833879D01*
X175871654Y-89831556D01*
X176052038Y-89705249D01*
X176207749Y-89549538D01*
X176212072Y-89543365D01*
X176330899Y-89373662D01*
X176330900Y-89373660D01*
X176334056Y-89369153D01*
X176336379Y-89364171D01*
X176336382Y-89364166D01*
X176412473Y-89200987D01*
X176427120Y-89169576D01*
X176484115Y-88956871D01*
X176503307Y-88737500D01*
X176484115Y-88518129D01*
X176427120Y-88305424D01*
X176359064Y-88159476D01*
X176336382Y-88110834D01*
X176336379Y-88110829D01*
X176334056Y-88105847D01*
X176286219Y-88037529D01*
X176210908Y-87929973D01*
X176210906Y-87929970D01*
X176207749Y-87925462D01*
X176052038Y-87769751D01*
X176040508Y-87761677D01*
X175966655Y-87709965D01*
X175871654Y-87643444D01*
X175866672Y-87641121D01*
X175866667Y-87641118D01*
X175739232Y-87581695D01*
X175685947Y-87534778D01*
X175666486Y-87466501D01*
X175687028Y-87398541D01*
X175739232Y-87353305D01*
X175866667Y-87293882D01*
X175866672Y-87293879D01*
X175871654Y-87291556D01*
X176052038Y-87165249D01*
X176207749Y-87009538D01*
X176241343Y-86961562D01*
X176330899Y-86833662D01*
X176330900Y-86833660D01*
X176334056Y-86829153D01*
X176336379Y-86824171D01*
X176336382Y-86824166D01*
X176397729Y-86692606D01*
X176427120Y-86629576D01*
X176484115Y-86416871D01*
X176503307Y-86197500D01*
X176484115Y-85978129D01*
X176427120Y-85765424D01*
X176380629Y-85665724D01*
X176336382Y-85570834D01*
X176336379Y-85570829D01*
X176334056Y-85565847D01*
X176321597Y-85548054D01*
X176210908Y-85389973D01*
X176210906Y-85389970D01*
X176207749Y-85385462D01*
X176052038Y-85229751D01*
X175871654Y-85103444D01*
X175672076Y-85010380D01*
X175459371Y-84953385D01*
X175240000Y-84934193D01*
X175020629Y-84953385D01*
X174807924Y-85010380D01*
X174714562Y-85053915D01*
X174613334Y-85101118D01*
X174613329Y-85101121D01*
X174608347Y-85103444D01*
X174603840Y-85106600D01*
X174603838Y-85106601D01*
X174432473Y-85226592D01*
X174432470Y-85226594D01*
X174427962Y-85229751D01*
X174272251Y-85385462D01*
X174269094Y-85389970D01*
X174269092Y-85389973D01*
X174158403Y-85548054D01*
X174145944Y-85565847D01*
X174143621Y-85570829D01*
X174143618Y-85570834D01*
X174099371Y-85665724D01*
X174052880Y-85765424D01*
X173995885Y-85978129D01*
X173976693Y-86197500D01*
X173995885Y-86416871D01*
X174052880Y-86629576D01*
X174082271Y-86692606D01*
X174143618Y-86824166D01*
X174143621Y-86824171D01*
X174145944Y-86829153D01*
X174149100Y-86833660D01*
X174149101Y-86833662D01*
X174238658Y-86961562D01*
X174272251Y-87009538D01*
X174427962Y-87165249D01*
X174608346Y-87291556D01*
X174613328Y-87293879D01*
X174613333Y-87293882D01*
X174740768Y-87353305D01*
X174794053Y-87400222D01*
X174813514Y-87468499D01*
X174792972Y-87536459D01*
X174740768Y-87581695D01*
X174613334Y-87641118D01*
X174613329Y-87641121D01*
X174608347Y-87643444D01*
X174603840Y-87646600D01*
X174603838Y-87646601D01*
X174432473Y-87766592D01*
X174432470Y-87766594D01*
X174427962Y-87769751D01*
X174272251Y-87925462D01*
X174269094Y-87929970D01*
X174269092Y-87929973D01*
X174193781Y-88037529D01*
X174145944Y-88105847D01*
X174143621Y-88110829D01*
X174143618Y-88110834D01*
X174120936Y-88159476D01*
X174052880Y-88305424D01*
X173995885Y-88518129D01*
X173976693Y-88737500D01*
X173995885Y-88956871D01*
X174052880Y-89169576D01*
X174067527Y-89200987D01*
X174143618Y-89364166D01*
X174143621Y-89364171D01*
X174145944Y-89369153D01*
X174149100Y-89373660D01*
X174149101Y-89373662D01*
X174267929Y-89543365D01*
X174272251Y-89549538D01*
X174427962Y-89705249D01*
X174608346Y-89831556D01*
X174613328Y-89833879D01*
X174613333Y-89833882D01*
X174740768Y-89893305D01*
X174794053Y-89940222D01*
X174813514Y-90008499D01*
X174792972Y-90076459D01*
X174740768Y-90121695D01*
X174613334Y-90181118D01*
X174613329Y-90181121D01*
X174608347Y-90183444D01*
X174603840Y-90186600D01*
X174603838Y-90186601D01*
X174432473Y-90306592D01*
X174432470Y-90306594D01*
X174427962Y-90309751D01*
X174272251Y-90465462D01*
X174269094Y-90469971D01*
X174265716Y-90473996D01*
X174206605Y-90513319D01*
X174169198Y-90519000D01*
X174029528Y-90519000D01*
X173961407Y-90498998D01*
X173914914Y-90445342D01*
X173904810Y-90375068D01*
X173907821Y-90360389D01*
X173942196Y-90232099D01*
X173944099Y-90221304D01*
X173962326Y-90012975D01*
X173962326Y-90002025D01*
X173944099Y-89793696D01*
X173942196Y-89782901D01*
X173888072Y-89580905D01*
X173884326Y-89570613D01*
X173795946Y-89381083D01*
X173790466Y-89371593D01*
X173761589Y-89330351D01*
X173751114Y-89321977D01*
X173737667Y-89329045D01*
X172789095Y-90277616D01*
X172726783Y-90311641D01*
X172655967Y-90306576D01*
X172610905Y-90277616D01*
X171661611Y-89328322D01*
X171649838Y-89321894D01*
X171637824Y-89331189D01*
X171609534Y-89371593D01*
X171604054Y-89381083D01*
X171515674Y-89570613D01*
X171511928Y-89580905D01*
X171457804Y-89782901D01*
X171455901Y-89793696D01*
X171437674Y-90002025D01*
X171437674Y-90018482D01*
X171435624Y-90018482D01*
X171423405Y-90079310D01*
X171374011Y-90130307D01*
X171304886Y-90146503D01*
X171237979Y-90122758D01*
X171222773Y-90109792D01*
X168889070Y-87776089D01*
X168876684Y-87761677D01*
X168868151Y-87750082D01*
X168868146Y-87750077D01*
X168863808Y-87744182D01*
X168858230Y-87739443D01*
X168858227Y-87739440D01*
X168823532Y-87709965D01*
X168816016Y-87703035D01*
X168810321Y-87697340D01*
X168803800Y-87692181D01*
X168788049Y-87679719D01*
X168784645Y-87676928D01*
X168734597Y-87634409D01*
X168734595Y-87634408D01*
X168729015Y-87629667D01*
X168722499Y-87626339D01*
X168717450Y-87622972D01*
X168712321Y-87619805D01*
X168706584Y-87615266D01*
X168640425Y-87584345D01*
X168636525Y-87582439D01*
X168635068Y-87581695D01*
X168571492Y-87549231D01*
X168564384Y-87547492D01*
X168558741Y-87545393D01*
X168552978Y-87543476D01*
X168546350Y-87540378D01*
X168474883Y-87525513D01*
X168470599Y-87524543D01*
X168399690Y-87507192D01*
X168394088Y-87506844D01*
X168394085Y-87506844D01*
X168388536Y-87506500D01*
X168388538Y-87506464D01*
X168384545Y-87506225D01*
X168380353Y-87505851D01*
X168373185Y-87504360D01*
X168306975Y-87506151D01*
X168295779Y-87506454D01*
X168292372Y-87506500D01*
X168200939Y-87506500D01*
X168132818Y-87486498D01*
X168113762Y-87467500D01*
X171436693Y-87467500D01*
X171455885Y-87686871D01*
X171512880Y-87899576D01*
X171549095Y-87977240D01*
X171603618Y-88094166D01*
X171603621Y-88094171D01*
X171605944Y-88099153D01*
X171609100Y-88103660D01*
X171609101Y-88103662D01*
X171726831Y-88271797D01*
X171732251Y-88279538D01*
X171887962Y-88435249D01*
X172068346Y-88561556D01*
X172073328Y-88563879D01*
X172073333Y-88563882D01*
X172201359Y-88623581D01*
X172254644Y-88670498D01*
X172274105Y-88738776D01*
X172253563Y-88806736D01*
X172201359Y-88851971D01*
X172073583Y-88911554D01*
X172064093Y-88917034D01*
X172022851Y-88945911D01*
X172014477Y-88956387D01*
X172021545Y-88969834D01*
X172687189Y-89635479D01*
X172701132Y-89643092D01*
X172702966Y-89642961D01*
X172709580Y-89638710D01*
X173379180Y-88969109D01*
X173385607Y-88957339D01*
X173376313Y-88945325D01*
X173335912Y-88917036D01*
X173326416Y-88911553D01*
X173198641Y-88851971D01*
X173145356Y-88805054D01*
X173125895Y-88736776D01*
X173146437Y-88668816D01*
X173198641Y-88623581D01*
X173326667Y-88563882D01*
X173326672Y-88563879D01*
X173331654Y-88561556D01*
X173512038Y-88435249D01*
X173667749Y-88279538D01*
X173673170Y-88271797D01*
X173790899Y-88103662D01*
X173790900Y-88103660D01*
X173794056Y-88099153D01*
X173796379Y-88094171D01*
X173796382Y-88094166D01*
X173850905Y-87977240D01*
X173887120Y-87899576D01*
X173944115Y-87686871D01*
X173963307Y-87467500D01*
X173944115Y-87248129D01*
X173887120Y-87035424D01*
X173827652Y-86907894D01*
X173796382Y-86840834D01*
X173796379Y-86840829D01*
X173794056Y-86835847D01*
X173667749Y-86655462D01*
X173512038Y-86499751D01*
X173475891Y-86474440D01*
X173415766Y-86432340D01*
X173331654Y-86373444D01*
X173326672Y-86371121D01*
X173326667Y-86371118D01*
X173198641Y-86311419D01*
X173145356Y-86264502D01*
X173125895Y-86196224D01*
X173146437Y-86128264D01*
X173198641Y-86083029D01*
X173326416Y-86023447D01*
X173335912Y-86017964D01*
X173377148Y-85989090D01*
X173385523Y-85978612D01*
X173378457Y-85965168D01*
X172712811Y-85299521D01*
X172698868Y-85291908D01*
X172697034Y-85292039D01*
X172690420Y-85296290D01*
X172020820Y-85965891D01*
X172014393Y-85977661D01*
X172023687Y-85989675D01*
X172064088Y-86017964D01*
X172073584Y-86023447D01*
X172201359Y-86083029D01*
X172254644Y-86129946D01*
X172274105Y-86198224D01*
X172253563Y-86266184D01*
X172201359Y-86311419D01*
X172073334Y-86371118D01*
X172073329Y-86371121D01*
X172068347Y-86373444D01*
X172063840Y-86376600D01*
X172063838Y-86376601D01*
X171892473Y-86496592D01*
X171892470Y-86496594D01*
X171887962Y-86499751D01*
X171732251Y-86655462D01*
X171605944Y-86835847D01*
X171603621Y-86840829D01*
X171603618Y-86840834D01*
X171572348Y-86907894D01*
X171512880Y-87035424D01*
X171455885Y-87248129D01*
X171436693Y-87467500D01*
X168113762Y-87467500D01*
X168095147Y-87448941D01*
X168087818Y-87437612D01*
X168085014Y-87433277D01*
X168081540Y-87429459D01*
X168081533Y-87429450D01*
X167937435Y-87271088D01*
X167906383Y-87207242D01*
X167914779Y-87136744D01*
X167959956Y-87081976D01*
X167986400Y-87068307D01*
X168093052Y-87028325D01*
X168108649Y-87019786D01*
X168210724Y-86943285D01*
X168223285Y-86930724D01*
X168299786Y-86828649D01*
X168308324Y-86813054D01*
X168353478Y-86692606D01*
X168357105Y-86677351D01*
X168362631Y-86626486D01*
X168363000Y-86619672D01*
X168363000Y-85997115D01*
X168358525Y-85981876D01*
X168357135Y-85980671D01*
X168349452Y-85979000D01*
X165665116Y-85979000D01*
X165649877Y-85983475D01*
X165648672Y-85984865D01*
X165647001Y-85992548D01*
X165647001Y-86619669D01*
X165647371Y-86626490D01*
X165652895Y-86677352D01*
X165656521Y-86692604D01*
X165701676Y-86813054D01*
X165710214Y-86828649D01*
X165786715Y-86930724D01*
X165799276Y-86943285D01*
X165901351Y-87019786D01*
X165916946Y-87028324D01*
X166025827Y-87069142D01*
X166082591Y-87111784D01*
X166107291Y-87178345D01*
X166092083Y-87247694D01*
X166072691Y-87274175D01*
X166053859Y-87293882D01*
X165945629Y-87407138D01*
X165915363Y-87451507D01*
X165860455Y-87496507D01*
X165811277Y-87506500D01*
X162951671Y-87506500D01*
X162883550Y-87486498D01*
X162862576Y-87469595D01*
X161904070Y-86511089D01*
X161891684Y-86496677D01*
X161883151Y-86485082D01*
X161883146Y-86485077D01*
X161878808Y-86479182D01*
X161873230Y-86474443D01*
X161873227Y-86474440D01*
X161838532Y-86444965D01*
X161831016Y-86438035D01*
X161825321Y-86432340D01*
X161812480Y-86422181D01*
X161803049Y-86414719D01*
X161799645Y-86411928D01*
X161749597Y-86369409D01*
X161749595Y-86369408D01*
X161744015Y-86364667D01*
X161737499Y-86361339D01*
X161732450Y-86357972D01*
X161727321Y-86354805D01*
X161721584Y-86350266D01*
X161655425Y-86319345D01*
X161651525Y-86317439D01*
X161586492Y-86284231D01*
X161579384Y-86282492D01*
X161573741Y-86280393D01*
X161567978Y-86278476D01*
X161561350Y-86275378D01*
X161489883Y-86260513D01*
X161485599Y-86259543D01*
X161414690Y-86242192D01*
X161409088Y-86241844D01*
X161409085Y-86241844D01*
X161403536Y-86241500D01*
X161403538Y-86241464D01*
X161399545Y-86241225D01*
X161395353Y-86240851D01*
X161388185Y-86239360D01*
X161321975Y-86241151D01*
X161310779Y-86241454D01*
X161307372Y-86241500D01*
X161215939Y-86241500D01*
X161147818Y-86221498D01*
X161110147Y-86183941D01*
X161102818Y-86172612D01*
X161100014Y-86168277D01*
X161096540Y-86164459D01*
X161096533Y-86164450D01*
X160952435Y-86006088D01*
X160921383Y-85942242D01*
X160929779Y-85871744D01*
X160974956Y-85816976D01*
X161001400Y-85803307D01*
X161108052Y-85763325D01*
X161123649Y-85754786D01*
X161225724Y-85678285D01*
X161238285Y-85665724D01*
X161314786Y-85563649D01*
X161323324Y-85548054D01*
X161359001Y-85452885D01*
X165647000Y-85452885D01*
X165651475Y-85468124D01*
X165652865Y-85469329D01*
X165660548Y-85471000D01*
X166732885Y-85471000D01*
X166748124Y-85466525D01*
X166749329Y-85465135D01*
X166751000Y-85457452D01*
X166751000Y-85452885D01*
X167259000Y-85452885D01*
X167263475Y-85468124D01*
X167264865Y-85469329D01*
X167272548Y-85471000D01*
X168344884Y-85471000D01*
X168360123Y-85466525D01*
X168361328Y-85465135D01*
X168362999Y-85457452D01*
X168362999Y-84932975D01*
X171437674Y-84932975D01*
X171455901Y-85141304D01*
X171457804Y-85152099D01*
X171511928Y-85354095D01*
X171515674Y-85364387D01*
X171604054Y-85553917D01*
X171609534Y-85563407D01*
X171638411Y-85604649D01*
X171648887Y-85613023D01*
X171662334Y-85605955D01*
X172327979Y-84940311D01*
X172334356Y-84928632D01*
X173064408Y-84928632D01*
X173064539Y-84930466D01*
X173068790Y-84937080D01*
X173738391Y-85606680D01*
X173750161Y-85613107D01*
X173762176Y-85603811D01*
X173790466Y-85563407D01*
X173795946Y-85553917D01*
X173884326Y-85364387D01*
X173888072Y-85354095D01*
X173942196Y-85152099D01*
X173944099Y-85141304D01*
X173962326Y-84932975D01*
X173962326Y-84922025D01*
X173944099Y-84713696D01*
X173942196Y-84702901D01*
X173888072Y-84500905D01*
X173884326Y-84490613D01*
X173795946Y-84301083D01*
X173790466Y-84291593D01*
X173761589Y-84250351D01*
X173751113Y-84241977D01*
X173737666Y-84249045D01*
X173072021Y-84914689D01*
X173064408Y-84928632D01*
X172334356Y-84928632D01*
X172335592Y-84926368D01*
X172335461Y-84924534D01*
X172331210Y-84917920D01*
X171661609Y-84248320D01*
X171649839Y-84241893D01*
X171637824Y-84251189D01*
X171609534Y-84291593D01*
X171604054Y-84301083D01*
X171515674Y-84490613D01*
X171511928Y-84500905D01*
X171457804Y-84702901D01*
X171455901Y-84713696D01*
X171437674Y-84922025D01*
X171437674Y-84932975D01*
X168362999Y-84932975D01*
X168362999Y-84830331D01*
X168362629Y-84823510D01*
X168357105Y-84772648D01*
X168353479Y-84757396D01*
X168308324Y-84636946D01*
X168299786Y-84621351D01*
X168223285Y-84519276D01*
X168210724Y-84506715D01*
X168108649Y-84430214D01*
X168093054Y-84421676D01*
X167972606Y-84376522D01*
X167957351Y-84372895D01*
X167906486Y-84367369D01*
X167899672Y-84367000D01*
X167277115Y-84367000D01*
X167261876Y-84371475D01*
X167260671Y-84372865D01*
X167259000Y-84380548D01*
X167259000Y-85452885D01*
X166751000Y-85452885D01*
X166751000Y-84385116D01*
X166746525Y-84369877D01*
X166745135Y-84368672D01*
X166737452Y-84367001D01*
X166110331Y-84367001D01*
X166103510Y-84367371D01*
X166052648Y-84372895D01*
X166037396Y-84376521D01*
X165916946Y-84421676D01*
X165901351Y-84430214D01*
X165799276Y-84506715D01*
X165786715Y-84519276D01*
X165710214Y-84621351D01*
X165701676Y-84636946D01*
X165656522Y-84757394D01*
X165652895Y-84772649D01*
X165647369Y-84823514D01*
X165647000Y-84830328D01*
X165647000Y-85452885D01*
X161359001Y-85452885D01*
X161368478Y-85427606D01*
X161372105Y-85412351D01*
X161377631Y-85361486D01*
X161378000Y-85354672D01*
X161378000Y-84732115D01*
X161373525Y-84716876D01*
X161372135Y-84715671D01*
X161364452Y-84714000D01*
X158680116Y-84714000D01*
X158664877Y-84718475D01*
X158663672Y-84719865D01*
X158662001Y-84727548D01*
X158662001Y-85354669D01*
X158662371Y-85361490D01*
X158667895Y-85412352D01*
X158671521Y-85427604D01*
X158716676Y-85548054D01*
X158725214Y-85563649D01*
X158801715Y-85665724D01*
X158814276Y-85678285D01*
X158916351Y-85754786D01*
X158931946Y-85763324D01*
X159040827Y-85804142D01*
X159097591Y-85846784D01*
X159122291Y-85913345D01*
X159107083Y-85982694D01*
X159087691Y-86009175D01*
X159017115Y-86083029D01*
X158960629Y-86142138D01*
X158834743Y-86326680D01*
X158823795Y-86350266D01*
X158749144Y-86511089D01*
X158740688Y-86529305D01*
X158680989Y-86744570D01*
X158657251Y-86966695D01*
X158670110Y-87189715D01*
X158671247Y-87194761D01*
X158671248Y-87194767D01*
X158687764Y-87268051D01*
X158719222Y-87407639D01*
X158803266Y-87614616D01*
X158847544Y-87686871D01*
X158900721Y-87773648D01*
X158919987Y-87805088D01*
X159066250Y-87973938D01*
X159142846Y-88037529D01*
X159222504Y-88103662D01*
X159238126Y-88116632D01*
X159308595Y-88157811D01*
X159311445Y-88159476D01*
X159360169Y-88211114D01*
X159373240Y-88280897D01*
X159346509Y-88346669D01*
X159306055Y-88380027D01*
X159293607Y-88386507D01*
X159289474Y-88389610D01*
X159289471Y-88389612D01*
X159119100Y-88517530D01*
X159114965Y-88520635D01*
X158960629Y-88682138D01*
X158834743Y-88866680D01*
X158795420Y-88951394D01*
X158760957Y-89025640D01*
X158740688Y-89069305D01*
X158680989Y-89284570D01*
X158657251Y-89506695D01*
X158657548Y-89511848D01*
X158657548Y-89511851D01*
X158664676Y-89635479D01*
X158670110Y-89729715D01*
X158671247Y-89734761D01*
X158671248Y-89734767D01*
X158684529Y-89793696D01*
X158719222Y-89947639D01*
X158771530Y-90076459D01*
X158799972Y-90146503D01*
X158803266Y-90154616D01*
X158851057Y-90232604D01*
X158910046Y-90328865D01*
X158919987Y-90345088D01*
X159066250Y-90513938D01*
X159238126Y-90656632D01*
X159308595Y-90697811D01*
X159311445Y-90699476D01*
X159360169Y-90751114D01*
X159373240Y-90820897D01*
X159346509Y-90886669D01*
X159306055Y-90920027D01*
X159293607Y-90926507D01*
X159289474Y-90929610D01*
X159289471Y-90929612D01*
X159119100Y-91057530D01*
X159114965Y-91060635D01*
X158960629Y-91222138D01*
X158834743Y-91406680D01*
X158740688Y-91609305D01*
X158680989Y-91824570D01*
X158657251Y-92046695D01*
X158657548Y-92051848D01*
X158657548Y-92051851D01*
X158665227Y-92185027D01*
X158670110Y-92269715D01*
X158671247Y-92274761D01*
X158671248Y-92274767D01*
X158687042Y-92344848D01*
X158719222Y-92487639D01*
X158803266Y-92694616D01*
X158814798Y-92713434D01*
X158910046Y-92868865D01*
X158919987Y-92885088D01*
X159066250Y-93053938D01*
X159238126Y-93196632D01*
X159308595Y-93237811D01*
X159311445Y-93239476D01*
X159360169Y-93291114D01*
X159373240Y-93360897D01*
X159346509Y-93426669D01*
X159306055Y-93460027D01*
X159293607Y-93466507D01*
X159289474Y-93469610D01*
X159289471Y-93469612D01*
X159119100Y-93597530D01*
X159114965Y-93600635D01*
X158960629Y-93762138D01*
X158834743Y-93946680D01*
X158819003Y-93980590D01*
X158752278Y-94124337D01*
X158740688Y-94149305D01*
X158680989Y-94364570D01*
X158680440Y-94369707D01*
X158679796Y-94375730D01*
X158657251Y-94586695D01*
X154813000Y-94586695D01*
X154813000Y-84187885D01*
X158662000Y-84187885D01*
X158666475Y-84203124D01*
X158667865Y-84204329D01*
X158675548Y-84206000D01*
X159747885Y-84206000D01*
X159763124Y-84201525D01*
X159764329Y-84200135D01*
X159766000Y-84192452D01*
X159766000Y-84187885D01*
X160274000Y-84187885D01*
X160278475Y-84203124D01*
X160279865Y-84204329D01*
X160287548Y-84206000D01*
X161359884Y-84206000D01*
X161375123Y-84201525D01*
X161376328Y-84200135D01*
X161377999Y-84192452D01*
X161377999Y-83876387D01*
X172014477Y-83876387D01*
X172021545Y-83889834D01*
X172687189Y-84555479D01*
X172701132Y-84563092D01*
X172702966Y-84562961D01*
X172709580Y-84558710D01*
X173379180Y-83889109D01*
X173385607Y-83877339D01*
X173376313Y-83865325D01*
X173335912Y-83837036D01*
X173326416Y-83831553D01*
X173237741Y-83790203D01*
X179480743Y-83790203D01*
X179518268Y-84075234D01*
X179594129Y-84352536D01*
X179706923Y-84616976D01*
X179718693Y-84636642D01*
X179834612Y-84830328D01*
X179854561Y-84863661D01*
X180034313Y-85088028D01*
X180101830Y-85152099D01*
X180187765Y-85233648D01*
X180242851Y-85285923D01*
X180476317Y-85453686D01*
X180480112Y-85455695D01*
X180480113Y-85455696D01*
X180505861Y-85469329D01*
X180730392Y-85588212D01*
X180775308Y-85604649D01*
X180942204Y-85665724D01*
X181000373Y-85687011D01*
X181281264Y-85748255D01*
X181309841Y-85750504D01*
X181504282Y-85765807D01*
X181504291Y-85765807D01*
X181506739Y-85766000D01*
X181662271Y-85766000D01*
X181664407Y-85765854D01*
X181664418Y-85765854D01*
X181872548Y-85751665D01*
X181872554Y-85751664D01*
X181876825Y-85751373D01*
X181881020Y-85750504D01*
X181881022Y-85750504D01*
X182017584Y-85722223D01*
X182158342Y-85693074D01*
X182429343Y-85597107D01*
X182684812Y-85465250D01*
X182688313Y-85462789D01*
X182688317Y-85462787D01*
X182803884Y-85381565D01*
X182920023Y-85299941D01*
X183079120Y-85152099D01*
X183127479Y-85107161D01*
X183127481Y-85107158D01*
X183130622Y-85104240D01*
X183312713Y-84881768D01*
X183462927Y-84636642D01*
X183578483Y-84373398D01*
X183580201Y-84367369D01*
X183656068Y-84101034D01*
X183657244Y-84096906D01*
X183697751Y-83812284D01*
X183697845Y-83794451D01*
X183699235Y-83529083D01*
X183699235Y-83529076D01*
X183699257Y-83524797D01*
X183697000Y-83507649D01*
X183662292Y-83244022D01*
X183661732Y-83239766D01*
X183585871Y-82962464D01*
X183473077Y-82698024D01*
X183325439Y-82451339D01*
X183145687Y-82226972D01*
X182937149Y-82029077D01*
X182703683Y-81861314D01*
X182681843Y-81849750D01*
X182658654Y-81837472D01*
X182449608Y-81726788D01*
X182179627Y-81627989D01*
X181898736Y-81566745D01*
X181867685Y-81564301D01*
X181675718Y-81549193D01*
X181675709Y-81549193D01*
X181673261Y-81549000D01*
X181517729Y-81549000D01*
X181515593Y-81549146D01*
X181515582Y-81549146D01*
X181307452Y-81563335D01*
X181307446Y-81563336D01*
X181303175Y-81563627D01*
X181298980Y-81564496D01*
X181298978Y-81564496D01*
X181162416Y-81592777D01*
X181021658Y-81621926D01*
X180750657Y-81717893D01*
X180495188Y-81849750D01*
X180491687Y-81852211D01*
X180491683Y-81852213D01*
X180481594Y-81859304D01*
X180259977Y-82015059D01*
X180049378Y-82210760D01*
X179867287Y-82433232D01*
X179717073Y-82678358D01*
X179601517Y-82941602D01*
X179522756Y-83218094D01*
X179482249Y-83502716D01*
X179482227Y-83507005D01*
X179482226Y-83507012D01*
X179481009Y-83739428D01*
X179480743Y-83790203D01*
X173237741Y-83790203D01*
X173136887Y-83743174D01*
X173126595Y-83739428D01*
X172924599Y-83685304D01*
X172913804Y-83683401D01*
X172705475Y-83665174D01*
X172694525Y-83665174D01*
X172486196Y-83683401D01*
X172475401Y-83685304D01*
X172273405Y-83739428D01*
X172263113Y-83743174D01*
X172073583Y-83831554D01*
X172064093Y-83837034D01*
X172022851Y-83865911D01*
X172014477Y-83876387D01*
X161377999Y-83876387D01*
X161377999Y-83565331D01*
X161377629Y-83558510D01*
X161372105Y-83507648D01*
X161368479Y-83492396D01*
X161323324Y-83371946D01*
X161314786Y-83356351D01*
X161238285Y-83254276D01*
X161225724Y-83241715D01*
X161123649Y-83165214D01*
X161108054Y-83156676D01*
X160987606Y-83111522D01*
X160972351Y-83107895D01*
X160921486Y-83102369D01*
X160914672Y-83102000D01*
X160292115Y-83102000D01*
X160276876Y-83106475D01*
X160275671Y-83107865D01*
X160274000Y-83115548D01*
X160274000Y-84187885D01*
X159766000Y-84187885D01*
X159766000Y-83120116D01*
X159761525Y-83104877D01*
X159760135Y-83103672D01*
X159752452Y-83102001D01*
X159125331Y-83102001D01*
X159118510Y-83102371D01*
X159067648Y-83107895D01*
X159052396Y-83111521D01*
X158931946Y-83156676D01*
X158916351Y-83165214D01*
X158814276Y-83241715D01*
X158801715Y-83254276D01*
X158725214Y-83356351D01*
X158716676Y-83371946D01*
X158671522Y-83492394D01*
X158667895Y-83507649D01*
X158662369Y-83558514D01*
X158662000Y-83565328D01*
X158662000Y-84187885D01*
X154813000Y-84187885D01*
X154813000Y-76835000D01*
X155871685Y-76835000D01*
X155890931Y-77202241D01*
X155948459Y-77565459D01*
X156043639Y-77920674D01*
X156175427Y-78263994D01*
X156342380Y-78591657D01*
X156542668Y-78900075D01*
X156774098Y-79185867D01*
X157034133Y-79445902D01*
X157319925Y-79677332D01*
X157628342Y-79877620D01*
X157631276Y-79879115D01*
X157631283Y-79879119D01*
X157953066Y-80043075D01*
X157956006Y-80044573D01*
X158299326Y-80176361D01*
X158654541Y-80271541D01*
X158847558Y-80302112D01*
X159014511Y-80328555D01*
X159014519Y-80328556D01*
X159017759Y-80329069D01*
X159385000Y-80348315D01*
X159752241Y-80329069D01*
X159755481Y-80328556D01*
X159755489Y-80328555D01*
X159922442Y-80302112D01*
X160115459Y-80271541D01*
X160470674Y-80176361D01*
X160813994Y-80044573D01*
X160816934Y-80043075D01*
X161138717Y-79879119D01*
X161138724Y-79879115D01*
X161141658Y-79877620D01*
X161450075Y-79677332D01*
X161735867Y-79445902D01*
X161995902Y-79185867D01*
X162227332Y-78900075D01*
X162427620Y-78591657D01*
X162594573Y-78263994D01*
X162726361Y-77920674D01*
X162821541Y-77565459D01*
X162879069Y-77202241D01*
X162898315Y-76835000D01*
X181906685Y-76835000D01*
X181925931Y-77202241D01*
X181983459Y-77565459D01*
X182078639Y-77920674D01*
X182210427Y-78263994D01*
X182377380Y-78591657D01*
X182577668Y-78900075D01*
X182809098Y-79185867D01*
X183069133Y-79445902D01*
X183354925Y-79677332D01*
X183663342Y-79877620D01*
X183666276Y-79879115D01*
X183666283Y-79879119D01*
X183988066Y-80043075D01*
X183991006Y-80044573D01*
X184334326Y-80176361D01*
X184689541Y-80271541D01*
X184882558Y-80302112D01*
X185049511Y-80328555D01*
X185049519Y-80328556D01*
X185052759Y-80329069D01*
X185420000Y-80348315D01*
X185787241Y-80329069D01*
X185790481Y-80328556D01*
X185790489Y-80328555D01*
X185957442Y-80302112D01*
X186150459Y-80271541D01*
X186505674Y-80176361D01*
X186848994Y-80044573D01*
X186851934Y-80043075D01*
X187173717Y-79879119D01*
X187173724Y-79879115D01*
X187176658Y-79877620D01*
X187485075Y-79677332D01*
X187770867Y-79445902D01*
X188030902Y-79185867D01*
X188262332Y-78900075D01*
X188462620Y-78591657D01*
X188629573Y-78263994D01*
X188761361Y-77920674D01*
X188856541Y-77565459D01*
X188914069Y-77202241D01*
X188933315Y-76835000D01*
X188914069Y-76467759D01*
X188856541Y-76104541D01*
X188761361Y-75749326D01*
X188629573Y-75406006D01*
X188462620Y-75078343D01*
X188262332Y-74769925D01*
X188030902Y-74484133D01*
X187770867Y-74224098D01*
X187485075Y-73992668D01*
X187176658Y-73792380D01*
X187173724Y-73790885D01*
X187173717Y-73790881D01*
X186851934Y-73626925D01*
X186848994Y-73625427D01*
X186505674Y-73493639D01*
X186150459Y-73398459D01*
X185957442Y-73367888D01*
X185790489Y-73341445D01*
X185790481Y-73341444D01*
X185787241Y-73340931D01*
X185420000Y-73321685D01*
X185052759Y-73340931D01*
X185049519Y-73341444D01*
X185049511Y-73341445D01*
X184882558Y-73367888D01*
X184689541Y-73398459D01*
X184334326Y-73493639D01*
X183991006Y-73625427D01*
X183988066Y-73626925D01*
X183666284Y-73790881D01*
X183666277Y-73790885D01*
X183663343Y-73792380D01*
X183354925Y-73992668D01*
X183069133Y-74224098D01*
X182809098Y-74484133D01*
X182577668Y-74769925D01*
X182377380Y-75078343D01*
X182210427Y-75406006D01*
X182078639Y-75749326D01*
X181983459Y-76104541D01*
X181925931Y-76467759D01*
X181906685Y-76835000D01*
X162898315Y-76835000D01*
X162879069Y-76467759D01*
X162821541Y-76104541D01*
X162726361Y-75749326D01*
X162594573Y-75406006D01*
X162427620Y-75078343D01*
X162227332Y-74769925D01*
X161995902Y-74484133D01*
X161735867Y-74224098D01*
X161450075Y-73992668D01*
X161141658Y-73792380D01*
X161138724Y-73790885D01*
X161138717Y-73790881D01*
X160816934Y-73626925D01*
X160813994Y-73625427D01*
X160470674Y-73493639D01*
X160115459Y-73398459D01*
X159922442Y-73367888D01*
X159755489Y-73341445D01*
X159755481Y-73341444D01*
X159752241Y-73340931D01*
X159385000Y-73321685D01*
X159017759Y-73340931D01*
X159014519Y-73341444D01*
X159014511Y-73341445D01*
X158847558Y-73367888D01*
X158654541Y-73398459D01*
X158299326Y-73493639D01*
X157956006Y-73625427D01*
X157953066Y-73626925D01*
X157631284Y-73790881D01*
X157631277Y-73790885D01*
X157628343Y-73792380D01*
X157319925Y-73992668D01*
X157034133Y-74224098D01*
X156774098Y-74484133D01*
X156542668Y-74769925D01*
X156342380Y-75078343D01*
X156175427Y-75406006D01*
X156043639Y-75749326D01*
X155948459Y-76104541D01*
X155890931Y-76467759D01*
X155871685Y-76835000D01*
X154813000Y-76835000D01*
X154813000Y-72389000D01*
X154833002Y-72320879D01*
X154886658Y-72274386D01*
X154939000Y-72263000D01*
X189231000Y-72263000D01*
X189299121Y-72283002D01*
G37*
%TD.AperFunction*%
%TD*%
M02*
