%TF.GenerationSoftware,KiCad,Pcbnew,(6.0.1)*%
%TF.CreationDate,2022-02-21T12:48:27+02:00*%
%TF.ProjectId,Focuser-V1.Remote,466f6375-7365-4722-9d56-312e52656d6f,rev?*%
%TF.SameCoordinates,Original*%
%TF.FileFunction,Copper,L2,Bot*%
%TF.FilePolarity,Positive*%
%FSLAX46Y46*%
G04 Gerber Fmt 4.6, Leading zero omitted, Abs format (unit mm)*
G04 Created by KiCad (PCBNEW (6.0.1)) date 2022-02-21 12:48:27*
%MOMM*%
%LPD*%
G01*
G04 APERTURE LIST*
%TA.AperFunction,ComponentPad*%
%ADD10R,1.500000X1.500000*%
%TD*%
%TA.AperFunction,ComponentPad*%
%ADD11C,1.500000*%
%TD*%
%TA.AperFunction,ComponentPad*%
%ADD12C,6.000000*%
%TD*%
%TA.AperFunction,ComponentPad*%
%ADD13R,1.700000X1.700000*%
%TD*%
%TA.AperFunction,ComponentPad*%
%ADD14O,1.700000X1.700000*%
%TD*%
%TA.AperFunction,Conductor*%
%ADD15C,0.250000*%
%TD*%
G04 APERTURE END LIST*
D10*
%TO.P,J1,1*%
%TO.N,/SDA*%
X175240000Y-93817500D03*
D11*
%TO.P,J1,2*%
%TO.N,/SCL*%
X172700000Y-92547500D03*
%TO.P,J1,3*%
%TO.N,/3V3*%
X175240000Y-91277500D03*
%TO.P,J1,4*%
%TO.N,GND*%
X172700000Y-90007500D03*
%TO.P,J1,5*%
%TO.N,/EncClk*%
X175240000Y-88737500D03*
%TO.P,J1,6*%
%TO.N,/EncDt*%
X172700000Y-87467500D03*
%TO.P,J1,7*%
%TO.N,/EncSw*%
X175240000Y-86197500D03*
%TO.P,J1,8*%
%TO.N,GND*%
X172700000Y-84927500D03*
%TD*%
D12*
%TO.P,REF3,1*%
%TO.N,N/C*%
X185420000Y-76835000D03*
%TD*%
D13*
%TO.P,J3,1,Pin_1*%
%TO.N,GND*%
X160020000Y-84460000D03*
D14*
%TO.P,J3,2,Pin_2*%
%TO.N,/3V3*%
X160020000Y-87000000D03*
%TO.P,J3,3,Pin_3*%
%TO.N,/EncSw*%
X160020000Y-89540000D03*
%TO.P,J3,4,Pin_4*%
%TO.N,/EncDt*%
X160020000Y-92080000D03*
%TO.P,J3,5,Pin_5*%
%TO.N,/EncClk*%
X160020000Y-94620000D03*
%TD*%
D13*
%TO.P,J2,1,Pin_1*%
%TO.N,GND*%
X167005000Y-85725000D03*
D14*
%TO.P,J2,2,Pin_2*%
%TO.N,/3V3*%
X167005000Y-88265000D03*
%TO.P,J2,3,Pin_3*%
%TO.N,/SCL*%
X167005000Y-90805000D03*
%TO.P,J2,4,Pin_4*%
%TO.N,/SDA*%
X167005000Y-93345000D03*
%TD*%
D12*
%TO.P,REF4,1*%
%TO.N,N/C*%
X185420000Y-101600000D03*
%TD*%
%TO.P,REF1,1*%
%TO.N,N/C*%
X159385000Y-101600000D03*
%TD*%
%TO.P,REF2,1*%
%TO.N,N/C*%
X159385000Y-76835000D03*
%TD*%
D15*
%TO.N,/EncClk*%
X169855500Y-91279000D02*
X172397000Y-88737500D01*
X172397000Y-88737500D02*
X175240000Y-88737500D01*
X160020000Y-94620000D02*
X167424500Y-94620000D01*
X169855500Y-92189000D02*
X169855500Y-91279000D01*
X167424500Y-94620000D02*
X169855500Y-92189000D01*
%TO.N,/EncDt*%
X160020000Y-92080000D02*
X168087500Y-92080000D01*
X168087500Y-92080000D02*
X172700000Y-87467500D01*
%TO.N,/EncSw*%
X169643200Y-86900400D02*
X170346100Y-86197500D01*
X163834900Y-86900400D02*
X169643200Y-86900400D01*
X160020000Y-89540000D02*
X161195300Y-89540000D01*
X170346100Y-86197500D02*
X175240000Y-86197500D01*
X161195300Y-89540000D02*
X163834900Y-86900400D01*
%TD*%
%TA.AperFunction,Conductor*%
%TO.N,GND*%
G36*
X189299121Y-72283002D02*
G01*
X189345614Y-72336658D01*
X189357000Y-72389000D01*
X189357000Y-106046000D01*
X189336998Y-106114121D01*
X189283342Y-106160614D01*
X189231000Y-106172000D01*
X154939000Y-106172000D01*
X154870879Y-106151998D01*
X154824386Y-106098342D01*
X154813000Y-106046000D01*
X154813000Y-101600000D01*
X155871685Y-101600000D01*
X155890931Y-101967241D01*
X155948459Y-102330459D01*
X156043639Y-102685674D01*
X156175427Y-103028994D01*
X156342380Y-103356657D01*
X156542668Y-103665075D01*
X156774098Y-103950867D01*
X157034133Y-104210902D01*
X157319925Y-104442332D01*
X157628342Y-104642620D01*
X157631276Y-104644115D01*
X157631283Y-104644119D01*
X157953066Y-104808075D01*
X157956006Y-104809573D01*
X158299326Y-104941361D01*
X158654541Y-105036541D01*
X158847558Y-105067112D01*
X159014511Y-105093555D01*
X159014519Y-105093556D01*
X159017759Y-105094069D01*
X159385000Y-105113315D01*
X159752241Y-105094069D01*
X159755481Y-105093556D01*
X159755489Y-105093555D01*
X159922442Y-105067112D01*
X160115459Y-105036541D01*
X160470674Y-104941361D01*
X160813994Y-104809573D01*
X160816934Y-104808075D01*
X161138717Y-104644119D01*
X161138724Y-104644115D01*
X161141658Y-104642620D01*
X161450075Y-104442332D01*
X161735867Y-104210902D01*
X161995902Y-103950867D01*
X162227332Y-103665075D01*
X162427620Y-103356657D01*
X162594573Y-103028994D01*
X162726361Y-102685674D01*
X162821541Y-102330459D01*
X162879069Y-101967241D01*
X162898315Y-101600000D01*
X181906685Y-101600000D01*
X181925931Y-101967241D01*
X181983459Y-102330459D01*
X182078639Y-102685674D01*
X182210427Y-103028994D01*
X182377380Y-103356657D01*
X182577668Y-103665075D01*
X182809098Y-103950867D01*
X183069133Y-104210902D01*
X183354925Y-104442332D01*
X183663342Y-104642620D01*
X183666276Y-104644115D01*
X183666283Y-104644119D01*
X183988066Y-104808075D01*
X183991006Y-104809573D01*
X184334326Y-104941361D01*
X184689541Y-105036541D01*
X184882558Y-105067112D01*
X185049511Y-105093555D01*
X185049519Y-105093556D01*
X185052759Y-105094069D01*
X185420000Y-105113315D01*
X185787241Y-105094069D01*
X185790481Y-105093556D01*
X185790489Y-105093555D01*
X185957442Y-105067112D01*
X186150459Y-105036541D01*
X186505674Y-104941361D01*
X186848994Y-104809573D01*
X186851934Y-104808075D01*
X187173717Y-104644119D01*
X187173724Y-104644115D01*
X187176658Y-104642620D01*
X187485075Y-104442332D01*
X187770867Y-104210902D01*
X188030902Y-103950867D01*
X188262332Y-103665075D01*
X188462620Y-103356657D01*
X188629573Y-103028994D01*
X188761361Y-102685674D01*
X188856541Y-102330459D01*
X188914069Y-101967241D01*
X188933315Y-101600000D01*
X188914069Y-101232759D01*
X188856541Y-100869541D01*
X188761361Y-100514326D01*
X188629573Y-100171006D01*
X188462620Y-99843343D01*
X188262332Y-99534925D01*
X188030902Y-99249133D01*
X187770867Y-98989098D01*
X187485075Y-98757668D01*
X187176658Y-98557380D01*
X187173724Y-98555885D01*
X187173717Y-98555881D01*
X186851934Y-98391925D01*
X186848994Y-98390427D01*
X186505674Y-98258639D01*
X186150459Y-98163459D01*
X185957442Y-98132888D01*
X185790489Y-98106445D01*
X185790481Y-98106444D01*
X185787241Y-98105931D01*
X185420000Y-98086685D01*
X185052759Y-98105931D01*
X185049519Y-98106444D01*
X185049511Y-98106445D01*
X184882558Y-98132888D01*
X184689541Y-98163459D01*
X184334326Y-98258639D01*
X183991006Y-98390427D01*
X183988066Y-98391925D01*
X183666284Y-98555881D01*
X183666277Y-98555885D01*
X183663343Y-98557380D01*
X183354925Y-98757668D01*
X183069133Y-98989098D01*
X182809098Y-99249133D01*
X182577668Y-99534925D01*
X182377380Y-99843343D01*
X182210427Y-100171006D01*
X182078639Y-100514326D01*
X181983459Y-100869541D01*
X181925931Y-101232759D01*
X181906685Y-101600000D01*
X162898315Y-101600000D01*
X162879069Y-101232759D01*
X162821541Y-100869541D01*
X162726361Y-100514326D01*
X162594573Y-100171006D01*
X162427620Y-99843343D01*
X162227332Y-99534925D01*
X161995902Y-99249133D01*
X161735867Y-98989098D01*
X161450075Y-98757668D01*
X161141658Y-98557380D01*
X161138724Y-98555885D01*
X161138717Y-98555881D01*
X160816934Y-98391925D01*
X160813994Y-98390427D01*
X160470674Y-98258639D01*
X160115459Y-98163459D01*
X159922442Y-98132888D01*
X159755489Y-98106445D01*
X159755481Y-98106444D01*
X159752241Y-98105931D01*
X159385000Y-98086685D01*
X159017759Y-98105931D01*
X159014519Y-98106444D01*
X159014511Y-98106445D01*
X158847558Y-98132888D01*
X158654541Y-98163459D01*
X158299326Y-98258639D01*
X157956006Y-98390427D01*
X157953066Y-98391925D01*
X157631284Y-98555881D01*
X157631277Y-98555885D01*
X157628343Y-98557380D01*
X157319925Y-98757668D01*
X157034133Y-98989098D01*
X156774098Y-99249133D01*
X156542668Y-99534925D01*
X156342380Y-99843343D01*
X156175427Y-100171006D01*
X156043639Y-100514326D01*
X155948459Y-100869541D01*
X155890931Y-101232759D01*
X155871685Y-101600000D01*
X154813000Y-101600000D01*
X154813000Y-94586695D01*
X158657251Y-94586695D01*
X158657548Y-94591848D01*
X158657548Y-94591851D01*
X158669812Y-94804547D01*
X158670110Y-94809715D01*
X158671247Y-94814761D01*
X158671248Y-94814767D01*
X158672741Y-94821391D01*
X158719222Y-95027639D01*
X158779014Y-95174890D01*
X158797414Y-95220203D01*
X158803266Y-95234616D01*
X158919987Y-95425088D01*
X159066250Y-95593938D01*
X159238126Y-95736632D01*
X159431000Y-95849338D01*
X159639692Y-95929030D01*
X159644760Y-95930061D01*
X159644763Y-95930062D01*
X159752017Y-95951883D01*
X159858597Y-95973567D01*
X159863772Y-95973757D01*
X159863774Y-95973757D01*
X160076673Y-95981564D01*
X160076677Y-95981564D01*
X160081837Y-95981753D01*
X160086957Y-95981097D01*
X160086959Y-95981097D01*
X160298288Y-95954025D01*
X160298289Y-95954025D01*
X160303416Y-95953368D01*
X160308366Y-95951883D01*
X160512429Y-95890661D01*
X160512434Y-95890659D01*
X160517384Y-95889174D01*
X160717994Y-95790896D01*
X160899860Y-95661173D01*
X161058096Y-95503489D01*
X161117594Y-95420689D01*
X161185435Y-95326277D01*
X161188453Y-95322077D01*
X161190746Y-95317437D01*
X161192446Y-95314608D01*
X161244674Y-95266518D01*
X161300451Y-95253500D01*
X167345733Y-95253500D01*
X167356916Y-95254027D01*
X167364409Y-95255702D01*
X167372335Y-95255453D01*
X167372336Y-95255453D01*
X167432486Y-95253562D01*
X167436445Y-95253500D01*
X167464356Y-95253500D01*
X167468291Y-95253003D01*
X167468356Y-95252995D01*
X167480193Y-95252062D01*
X167512451Y-95251048D01*
X167516470Y-95250922D01*
X167524389Y-95250673D01*
X167543843Y-95245021D01*
X167563200Y-95241013D01*
X167575430Y-95239468D01*
X167575431Y-95239468D01*
X167583297Y-95238474D01*
X167590668Y-95235555D01*
X167590670Y-95235555D01*
X167624412Y-95222196D01*
X167630233Y-95220203D01*
X179480743Y-95220203D01*
X179481302Y-95224447D01*
X179481302Y-95224451D01*
X179486840Y-95266518D01*
X179518268Y-95505234D01*
X179594129Y-95782536D01*
X179595813Y-95786484D01*
X179675171Y-95972534D01*
X179706923Y-96046976D01*
X179854561Y-96293661D01*
X180034313Y-96518028D01*
X180242851Y-96715923D01*
X180476317Y-96883686D01*
X180480112Y-96885695D01*
X180480113Y-96885696D01*
X180501869Y-96897215D01*
X180730392Y-97018212D01*
X181000373Y-97117011D01*
X181281264Y-97178255D01*
X181309841Y-97180504D01*
X181504282Y-97195807D01*
X181504291Y-97195807D01*
X181506739Y-97196000D01*
X181662271Y-97196000D01*
X181664407Y-97195854D01*
X181664418Y-97195854D01*
X181872548Y-97181665D01*
X181872554Y-97181664D01*
X181876825Y-97181373D01*
X181881020Y-97180504D01*
X181881022Y-97180504D01*
X182017583Y-97152224D01*
X182158342Y-97123074D01*
X182429343Y-97027107D01*
X182684812Y-96895250D01*
X182688313Y-96892789D01*
X182688317Y-96892787D01*
X182802417Y-96812596D01*
X182920023Y-96729941D01*
X183130622Y-96534240D01*
X183312713Y-96311768D01*
X183462927Y-96066642D01*
X183578483Y-95803398D01*
X183657244Y-95526906D01*
X183696155Y-95253500D01*
X183697146Y-95246536D01*
X183697146Y-95246534D01*
X183697751Y-95242284D01*
X183697787Y-95235555D01*
X183699235Y-94959083D01*
X183699235Y-94959076D01*
X183699257Y-94954797D01*
X183695148Y-94923581D01*
X183663766Y-94685215D01*
X183661732Y-94669766D01*
X183585871Y-94392464D01*
X183571848Y-94359588D01*
X183474763Y-94131976D01*
X183474761Y-94131972D01*
X183473077Y-94128024D01*
X183325439Y-93881339D01*
X183145687Y-93656972D01*
X182996342Y-93515249D01*
X182940258Y-93462027D01*
X182940255Y-93462025D01*
X182937149Y-93459077D01*
X182703683Y-93291314D01*
X182681843Y-93279750D01*
X182604511Y-93238805D01*
X182449608Y-93156788D01*
X182179627Y-93057989D01*
X181898736Y-92996745D01*
X181867685Y-92994301D01*
X181675718Y-92979193D01*
X181675709Y-92979193D01*
X181673261Y-92979000D01*
X181517729Y-92979000D01*
X181515593Y-92979146D01*
X181515582Y-92979146D01*
X181307452Y-92993335D01*
X181307446Y-92993336D01*
X181303175Y-92993627D01*
X181298980Y-92994496D01*
X181298978Y-92994496D01*
X181195289Y-93015969D01*
X181021658Y-93051926D01*
X180750657Y-93147893D01*
X180746848Y-93149859D01*
X180554942Y-93248909D01*
X180495188Y-93279750D01*
X180491687Y-93282211D01*
X180491683Y-93282213D01*
X180396450Y-93349144D01*
X180259977Y-93445059D01*
X180244892Y-93459077D01*
X180092558Y-93600635D01*
X180049378Y-93640760D01*
X179867287Y-93863232D01*
X179717073Y-94108358D01*
X179715347Y-94112291D01*
X179715346Y-94112292D01*
X179696907Y-94154297D01*
X179601517Y-94371602D01*
X179522756Y-94648094D01*
X179482249Y-94932716D01*
X179482227Y-94937005D01*
X179482226Y-94937012D01*
X179480765Y-95215917D01*
X179480743Y-95220203D01*
X167630233Y-95220203D01*
X167635642Y-95218351D01*
X167670483Y-95208229D01*
X167670484Y-95208229D01*
X167678093Y-95206018D01*
X167684912Y-95201985D01*
X167684917Y-95201983D01*
X167695528Y-95195707D01*
X167713276Y-95187012D01*
X167732117Y-95179552D01*
X167767887Y-95153564D01*
X167777807Y-95147048D01*
X167809035Y-95128580D01*
X167809038Y-95128578D01*
X167815862Y-95124542D01*
X167830183Y-95110221D01*
X167845217Y-95097380D01*
X167855194Y-95090131D01*
X167861607Y-95085472D01*
X167889798Y-95051395D01*
X167897788Y-95042616D01*
X170247747Y-92692657D01*
X170256037Y-92685113D01*
X170262518Y-92681000D01*
X170309159Y-92631332D01*
X170311913Y-92628491D01*
X170331634Y-92608770D01*
X170334112Y-92605575D01*
X170341818Y-92596553D01*
X170366658Y-92570101D01*
X170372086Y-92564321D01*
X170378323Y-92552975D01*
X170381846Y-92546568D01*
X170392699Y-92530045D01*
X170400253Y-92520306D01*
X170405113Y-92514041D01*
X170422676Y-92473457D01*
X170427883Y-92462827D01*
X170449195Y-92424060D01*
X170451166Y-92416383D01*
X170451168Y-92416378D01*
X170454232Y-92404442D01*
X170460638Y-92385730D01*
X170460849Y-92385244D01*
X170468681Y-92367145D01*
X170469921Y-92359317D01*
X170469923Y-92359310D01*
X170475599Y-92323476D01*
X170478005Y-92311856D01*
X170487028Y-92276711D01*
X170487028Y-92276710D01*
X170489000Y-92269030D01*
X170489000Y-92248776D01*
X170490551Y-92229065D01*
X170492480Y-92216886D01*
X170493720Y-92209057D01*
X170489559Y-92165038D01*
X170489000Y-92153181D01*
X170489000Y-91593594D01*
X170509002Y-91525473D01*
X170525901Y-91504503D01*
X171411969Y-90618435D01*
X171474280Y-90584411D01*
X171545096Y-90589476D01*
X171601931Y-90632023D01*
X171607929Y-90641116D01*
X171638411Y-90684649D01*
X171648886Y-90693023D01*
X171662333Y-90685955D01*
X172610905Y-89737384D01*
X172673217Y-89703359D01*
X172744033Y-89708424D01*
X172789095Y-89737384D01*
X173738389Y-90686678D01*
X173750162Y-90693106D01*
X173762176Y-90683811D01*
X173790466Y-90643407D01*
X173795946Y-90633917D01*
X173884326Y-90444387D01*
X173888072Y-90434095D01*
X173942196Y-90232099D01*
X173944099Y-90221304D01*
X173962326Y-90012975D01*
X173962326Y-90002025D01*
X173944099Y-89793696D01*
X173942196Y-89782901D01*
X173888072Y-89580905D01*
X173884326Y-89570613D01*
X173874831Y-89550252D01*
X173864169Y-89480060D01*
X173893148Y-89415247D01*
X173952567Y-89376390D01*
X173989025Y-89371000D01*
X174081646Y-89371000D01*
X174149767Y-89391002D01*
X174184858Y-89424728D01*
X174192678Y-89435896D01*
X174263330Y-89536797D01*
X174272251Y-89549538D01*
X174427962Y-89705249D01*
X174608346Y-89831556D01*
X174613328Y-89833879D01*
X174613333Y-89833882D01*
X174740768Y-89893305D01*
X174794053Y-89940222D01*
X174813514Y-90008499D01*
X174792972Y-90076459D01*
X174740768Y-90121695D01*
X174613334Y-90181118D01*
X174613329Y-90181121D01*
X174608347Y-90183444D01*
X174603840Y-90186600D01*
X174603838Y-90186601D01*
X174432473Y-90306592D01*
X174432470Y-90306594D01*
X174427962Y-90309751D01*
X174272251Y-90465462D01*
X174269094Y-90469970D01*
X174269092Y-90469973D01*
X174149101Y-90641338D01*
X174145944Y-90645847D01*
X174143621Y-90650829D01*
X174143618Y-90650834D01*
X174123907Y-90693106D01*
X174052880Y-90845424D01*
X173995885Y-91058129D01*
X173976693Y-91277500D01*
X173995885Y-91496871D01*
X174052880Y-91709576D01*
X174096415Y-91802938D01*
X174143618Y-91904166D01*
X174143621Y-91904171D01*
X174145944Y-91909153D01*
X174149100Y-91913660D01*
X174149101Y-91913662D01*
X174238658Y-92041562D01*
X174272251Y-92089538D01*
X174427962Y-92245249D01*
X174432471Y-92248406D01*
X174432473Y-92248408D01*
X174548694Y-92329787D01*
X174593022Y-92385244D01*
X174600331Y-92455864D01*
X174568300Y-92519224D01*
X174507099Y-92555209D01*
X174476423Y-92559000D01*
X174441866Y-92559000D01*
X174379684Y-92565755D01*
X174243295Y-92616885D01*
X174216708Y-92636811D01*
X174162828Y-92677192D01*
X174096321Y-92702039D01*
X174026939Y-92686986D01*
X173976709Y-92636811D01*
X173961743Y-92565381D01*
X173962828Y-92552982D01*
X173962828Y-92552975D01*
X173963307Y-92547500D01*
X173944115Y-92328129D01*
X173887120Y-92115424D01*
X173799068Y-91926595D01*
X173796382Y-91920834D01*
X173796379Y-91920829D01*
X173794056Y-91915847D01*
X173785877Y-91904166D01*
X173670908Y-91739973D01*
X173670906Y-91739970D01*
X173667749Y-91735462D01*
X173512038Y-91579751D01*
X173331654Y-91453444D01*
X173326672Y-91451121D01*
X173326667Y-91451118D01*
X173198641Y-91391419D01*
X173145356Y-91344502D01*
X173125895Y-91276224D01*
X173146437Y-91208264D01*
X173198641Y-91163029D01*
X173326416Y-91103447D01*
X173335912Y-91097964D01*
X173377148Y-91069090D01*
X173385523Y-91058612D01*
X173378457Y-91045168D01*
X172712811Y-90379521D01*
X172698868Y-90371908D01*
X172697034Y-90372039D01*
X172690420Y-90376290D01*
X172020820Y-91045891D01*
X172014393Y-91057661D01*
X172023687Y-91069675D01*
X172064088Y-91097964D01*
X172073584Y-91103447D01*
X172201359Y-91163029D01*
X172254644Y-91209946D01*
X172274105Y-91278224D01*
X172253563Y-91346184D01*
X172201359Y-91391419D01*
X172073334Y-91451118D01*
X172073329Y-91451121D01*
X172068347Y-91453444D01*
X172063840Y-91456600D01*
X172063838Y-91456601D01*
X171892473Y-91576592D01*
X171892470Y-91576594D01*
X171887962Y-91579751D01*
X171732251Y-91735462D01*
X171729094Y-91739970D01*
X171729092Y-91739973D01*
X171614123Y-91904166D01*
X171605944Y-91915847D01*
X171603621Y-91920829D01*
X171603618Y-91920834D01*
X171600932Y-91926595D01*
X171512880Y-92115424D01*
X171455885Y-92328129D01*
X171436693Y-92547500D01*
X171455885Y-92766871D01*
X171512880Y-92979576D01*
X171550132Y-93059464D01*
X171603618Y-93174166D01*
X171603621Y-93174171D01*
X171605944Y-93179153D01*
X171609100Y-93183660D01*
X171609101Y-93183662D01*
X171726831Y-93351797D01*
X171732251Y-93359538D01*
X171887962Y-93515249D01*
X171892471Y-93518406D01*
X171892473Y-93518408D01*
X171915762Y-93534715D01*
X172068346Y-93641556D01*
X172267924Y-93734620D01*
X172480629Y-93791615D01*
X172700000Y-93810807D01*
X172919371Y-93791615D01*
X173132076Y-93734620D01*
X173331654Y-93641556D01*
X173484238Y-93534715D01*
X173507527Y-93518408D01*
X173507529Y-93518406D01*
X173512038Y-93515249D01*
X173667749Y-93359538D01*
X173673170Y-93351797D01*
X173752287Y-93238805D01*
X173807744Y-93194477D01*
X173878363Y-93187168D01*
X173941724Y-93219199D01*
X173977709Y-93280400D01*
X173981500Y-93311076D01*
X173981500Y-94615634D01*
X173988255Y-94677816D01*
X174039385Y-94814205D01*
X174126739Y-94930761D01*
X174243295Y-95018115D01*
X174379684Y-95069245D01*
X174441866Y-95076000D01*
X176038134Y-95076000D01*
X176100316Y-95069245D01*
X176236705Y-95018115D01*
X176353261Y-94930761D01*
X176440615Y-94814205D01*
X176491745Y-94677816D01*
X176498500Y-94615634D01*
X176498500Y-93019366D01*
X176491745Y-92957184D01*
X176440615Y-92820795D01*
X176353261Y-92704239D01*
X176236705Y-92616885D01*
X176100316Y-92565755D01*
X176038134Y-92559000D01*
X176003577Y-92559000D01*
X175935456Y-92538998D01*
X175888963Y-92485342D01*
X175878859Y-92415068D01*
X175908353Y-92350488D01*
X175931306Y-92329787D01*
X176047527Y-92248408D01*
X176047529Y-92248406D01*
X176052038Y-92245249D01*
X176207749Y-92089538D01*
X176241343Y-92041562D01*
X176330899Y-91913662D01*
X176330900Y-91913660D01*
X176334056Y-91909153D01*
X176336379Y-91904171D01*
X176336382Y-91904166D01*
X176383585Y-91802938D01*
X176427120Y-91709576D01*
X176484115Y-91496871D01*
X176503307Y-91277500D01*
X176484115Y-91058129D01*
X176427120Y-90845424D01*
X176356093Y-90693106D01*
X176336382Y-90650834D01*
X176336379Y-90650829D01*
X176334056Y-90645847D01*
X176330899Y-90641338D01*
X176210908Y-90469973D01*
X176210906Y-90469970D01*
X176207749Y-90465462D01*
X176052038Y-90309751D01*
X175871654Y-90183444D01*
X175866672Y-90181121D01*
X175866667Y-90181118D01*
X175739232Y-90121695D01*
X175685947Y-90074778D01*
X175666486Y-90006501D01*
X175687028Y-89938541D01*
X175739232Y-89893305D01*
X175866667Y-89833882D01*
X175866672Y-89833879D01*
X175871654Y-89831556D01*
X176052038Y-89705249D01*
X176207749Y-89549538D01*
X176216671Y-89536797D01*
X176330899Y-89373662D01*
X176330900Y-89373660D01*
X176334056Y-89369153D01*
X176336379Y-89364171D01*
X176336382Y-89364166D01*
X176424795Y-89174561D01*
X176427120Y-89169576D01*
X176484115Y-88956871D01*
X176503307Y-88737500D01*
X176484115Y-88518129D01*
X176427120Y-88305424D01*
X176359064Y-88159476D01*
X176336382Y-88110834D01*
X176336379Y-88110829D01*
X176334056Y-88105847D01*
X176318757Y-88083998D01*
X176210908Y-87929973D01*
X176210906Y-87929970D01*
X176207749Y-87925462D01*
X176052038Y-87769751D01*
X175871654Y-87643444D01*
X175866672Y-87641121D01*
X175866667Y-87641118D01*
X175739232Y-87581695D01*
X175685947Y-87534778D01*
X175666486Y-87466501D01*
X175687028Y-87398541D01*
X175739232Y-87353305D01*
X175866667Y-87293882D01*
X175866672Y-87293879D01*
X175871654Y-87291556D01*
X176052038Y-87165249D01*
X176207749Y-87009538D01*
X176212072Y-87003365D01*
X176330899Y-86833662D01*
X176330900Y-86833660D01*
X176334056Y-86829153D01*
X176336379Y-86824171D01*
X176336382Y-86824166D01*
X176424795Y-86634561D01*
X176427120Y-86629576D01*
X176484115Y-86416871D01*
X176503307Y-86197500D01*
X176484115Y-85978129D01*
X176427120Y-85765424D01*
X176379796Y-85663936D01*
X176336382Y-85570834D01*
X176336379Y-85570829D01*
X176334056Y-85565847D01*
X176301781Y-85519753D01*
X176210908Y-85389973D01*
X176210906Y-85389970D01*
X176207749Y-85385462D01*
X176052038Y-85229751D01*
X176006144Y-85197615D01*
X175876962Y-85107161D01*
X175871654Y-85103444D01*
X175672076Y-85010380D01*
X175459371Y-84953385D01*
X175240000Y-84934193D01*
X175020629Y-84953385D01*
X174807924Y-85010380D01*
X174714562Y-85053915D01*
X174613334Y-85101118D01*
X174613329Y-85101121D01*
X174608347Y-85103444D01*
X174603840Y-85106600D01*
X174603838Y-85106601D01*
X174432473Y-85226592D01*
X174432470Y-85226594D01*
X174427962Y-85229751D01*
X174272251Y-85385462D01*
X174269094Y-85389970D01*
X174269092Y-85389973D01*
X174242743Y-85427604D01*
X174212357Y-85471000D01*
X174184859Y-85510271D01*
X174129402Y-85554599D01*
X174081646Y-85564000D01*
X173989025Y-85564000D01*
X173920904Y-85543998D01*
X173874411Y-85490342D01*
X173864307Y-85420068D01*
X173874831Y-85384748D01*
X173884326Y-85364387D01*
X173888072Y-85354095D01*
X173942196Y-85152099D01*
X173944099Y-85141304D01*
X173962326Y-84932975D01*
X173962326Y-84922025D01*
X173944099Y-84713696D01*
X173942196Y-84702901D01*
X173888072Y-84500905D01*
X173884326Y-84490613D01*
X173795946Y-84301083D01*
X173790466Y-84291593D01*
X173761589Y-84250351D01*
X173751113Y-84241977D01*
X173737666Y-84249045D01*
X173059210Y-84927500D01*
X172789095Y-85197616D01*
X172726783Y-85231641D01*
X172655967Y-85226576D01*
X172610905Y-85197615D01*
X172340790Y-84927500D01*
X171661613Y-84248324D01*
X171649839Y-84241894D01*
X171637824Y-84251190D01*
X171609534Y-84291593D01*
X171604054Y-84301083D01*
X171515674Y-84490613D01*
X171511928Y-84500905D01*
X171457804Y-84702901D01*
X171455901Y-84713696D01*
X171437674Y-84922025D01*
X171437674Y-84932975D01*
X171455901Y-85141304D01*
X171457804Y-85152099D01*
X171511928Y-85354095D01*
X171515674Y-85364387D01*
X171525169Y-85384748D01*
X171535831Y-85454940D01*
X171506852Y-85519753D01*
X171447433Y-85558610D01*
X171410975Y-85564000D01*
X170424868Y-85564000D01*
X170413685Y-85563473D01*
X170406192Y-85561798D01*
X170398266Y-85562047D01*
X170398265Y-85562047D01*
X170338102Y-85563938D01*
X170334144Y-85564000D01*
X170306244Y-85564000D01*
X170302254Y-85564504D01*
X170290420Y-85565436D01*
X170246211Y-85566826D01*
X170238597Y-85569038D01*
X170238592Y-85569039D01*
X170226759Y-85572477D01*
X170207396Y-85576488D01*
X170187303Y-85579026D01*
X170179936Y-85581943D01*
X170179931Y-85581944D01*
X170146192Y-85595302D01*
X170134965Y-85599146D01*
X170092507Y-85611482D01*
X170085681Y-85615519D01*
X170075072Y-85621793D01*
X170057324Y-85630488D01*
X170038483Y-85637948D01*
X170032067Y-85642610D01*
X170032066Y-85642610D01*
X170002713Y-85663936D01*
X169992793Y-85670452D01*
X169961565Y-85688920D01*
X169961562Y-85688922D01*
X169954738Y-85692958D01*
X169940417Y-85707279D01*
X169925384Y-85720119D01*
X169908993Y-85732028D01*
X169883103Y-85763324D01*
X169880812Y-85766093D01*
X169872822Y-85774874D01*
X169417699Y-86229996D01*
X169355387Y-86264021D01*
X169328604Y-86266900D01*
X168489000Y-86266900D01*
X168420879Y-86246898D01*
X168374386Y-86193242D01*
X168363000Y-86140900D01*
X168363000Y-85997115D01*
X168358525Y-85981876D01*
X168357135Y-85980671D01*
X168349452Y-85979000D01*
X165665116Y-85979000D01*
X165649877Y-85983475D01*
X165648672Y-85984865D01*
X165647001Y-85992548D01*
X165647001Y-86140900D01*
X165626999Y-86209021D01*
X165573343Y-86255514D01*
X165521001Y-86266900D01*
X163913667Y-86266900D01*
X163902484Y-86266373D01*
X163894991Y-86264698D01*
X163887065Y-86264947D01*
X163887064Y-86264947D01*
X163826914Y-86266838D01*
X163822955Y-86266900D01*
X163795044Y-86266900D01*
X163791110Y-86267397D01*
X163791109Y-86267397D01*
X163791044Y-86267405D01*
X163779207Y-86268338D01*
X163747390Y-86269338D01*
X163742929Y-86269478D01*
X163735010Y-86269727D01*
X163717354Y-86274856D01*
X163715558Y-86275378D01*
X163696206Y-86279386D01*
X163689135Y-86280280D01*
X163676103Y-86281926D01*
X163668734Y-86284843D01*
X163668732Y-86284844D01*
X163634997Y-86298200D01*
X163623769Y-86302045D01*
X163581307Y-86314382D01*
X163574484Y-86318417D01*
X163574482Y-86318418D01*
X163563872Y-86324693D01*
X163546124Y-86333388D01*
X163527283Y-86340848D01*
X163520867Y-86345510D01*
X163520866Y-86345510D01*
X163491513Y-86366836D01*
X163481593Y-86373352D01*
X163450365Y-86391820D01*
X163450362Y-86391822D01*
X163443538Y-86395858D01*
X163429217Y-86410179D01*
X163414184Y-86423019D01*
X163397793Y-86434928D01*
X163392742Y-86441034D01*
X163369602Y-86469005D01*
X163361612Y-86477784D01*
X161208229Y-88631166D01*
X161145917Y-88665192D01*
X161075101Y-88660127D01*
X161025940Y-88626870D01*
X160953151Y-88546876D01*
X160953148Y-88546873D01*
X160949670Y-88543051D01*
X160945619Y-88539852D01*
X160945615Y-88539848D01*
X160778414Y-88407800D01*
X160778410Y-88407798D01*
X160774359Y-88404598D01*
X160733053Y-88381796D01*
X160683084Y-88331364D01*
X160668312Y-88261921D01*
X160693428Y-88195516D01*
X160720780Y-88168909D01*
X160764603Y-88137650D01*
X160899860Y-88041173D01*
X160903705Y-88037342D01*
X161015976Y-87925462D01*
X161058096Y-87883489D01*
X161117594Y-87800689D01*
X161185435Y-87706277D01*
X161188453Y-87702077D01*
X161219284Y-87639696D01*
X161285136Y-87506453D01*
X161285137Y-87506451D01*
X161287430Y-87501811D01*
X161352370Y-87288069D01*
X161381529Y-87066590D01*
X161382161Y-87040735D01*
X161383074Y-87003365D01*
X161383074Y-87003361D01*
X161383156Y-87000000D01*
X161364852Y-86777361D01*
X161310431Y-86560702D01*
X161221354Y-86355840D01*
X161173537Y-86281926D01*
X161102822Y-86172617D01*
X161102820Y-86172614D01*
X161100014Y-86168277D01*
X161096540Y-86164459D01*
X161096533Y-86164450D01*
X160952435Y-86006088D01*
X160921383Y-85942242D01*
X160929779Y-85871744D01*
X160974956Y-85816976D01*
X161001400Y-85803307D01*
X161108052Y-85763325D01*
X161123649Y-85754786D01*
X161225724Y-85678285D01*
X161238285Y-85665724D01*
X161314786Y-85563649D01*
X161323324Y-85548054D01*
X161359001Y-85452885D01*
X165647000Y-85452885D01*
X165651475Y-85468124D01*
X165652865Y-85469329D01*
X165660548Y-85471000D01*
X166732885Y-85471000D01*
X166748124Y-85466525D01*
X166749329Y-85465135D01*
X166751000Y-85457452D01*
X166751000Y-85452885D01*
X167259000Y-85452885D01*
X167263475Y-85468124D01*
X167264865Y-85469329D01*
X167272548Y-85471000D01*
X168344884Y-85471000D01*
X168360123Y-85466525D01*
X168361328Y-85465135D01*
X168362999Y-85457452D01*
X168362999Y-84830331D01*
X168362629Y-84823510D01*
X168357105Y-84772648D01*
X168353479Y-84757396D01*
X168308324Y-84636946D01*
X168299786Y-84621351D01*
X168223285Y-84519276D01*
X168210724Y-84506715D01*
X168108649Y-84430214D01*
X168093054Y-84421676D01*
X167972606Y-84376522D01*
X167957351Y-84372895D01*
X167906486Y-84367369D01*
X167899672Y-84367000D01*
X167277115Y-84367000D01*
X167261876Y-84371475D01*
X167260671Y-84372865D01*
X167259000Y-84380548D01*
X167259000Y-85452885D01*
X166751000Y-85452885D01*
X166751000Y-84385116D01*
X166746525Y-84369877D01*
X166745135Y-84368672D01*
X166737452Y-84367001D01*
X166110331Y-84367001D01*
X166103510Y-84367371D01*
X166052648Y-84372895D01*
X166037396Y-84376521D01*
X165916946Y-84421676D01*
X165901351Y-84430214D01*
X165799276Y-84506715D01*
X165786715Y-84519276D01*
X165710214Y-84621351D01*
X165701676Y-84636946D01*
X165656522Y-84757394D01*
X165652895Y-84772649D01*
X165647369Y-84823514D01*
X165647000Y-84830328D01*
X165647000Y-85452885D01*
X161359001Y-85452885D01*
X161368478Y-85427606D01*
X161372105Y-85412351D01*
X161377631Y-85361486D01*
X161378000Y-85354672D01*
X161378000Y-84732115D01*
X161373525Y-84716876D01*
X161372135Y-84715671D01*
X161364452Y-84714000D01*
X158680116Y-84714000D01*
X158664877Y-84718475D01*
X158663672Y-84719865D01*
X158662001Y-84727548D01*
X158662001Y-85354669D01*
X158662371Y-85361490D01*
X158667895Y-85412352D01*
X158671521Y-85427604D01*
X158716676Y-85548054D01*
X158725214Y-85563649D01*
X158801715Y-85665724D01*
X158814276Y-85678285D01*
X158916351Y-85754786D01*
X158931946Y-85763324D01*
X159040827Y-85804142D01*
X159097591Y-85846784D01*
X159122291Y-85913345D01*
X159107083Y-85982694D01*
X159087691Y-86009175D01*
X158964200Y-86138401D01*
X158960629Y-86142138D01*
X158957715Y-86146410D01*
X158957714Y-86146411D01*
X158900696Y-86229996D01*
X158834743Y-86326680D01*
X158740688Y-86529305D01*
X158680989Y-86744570D01*
X158657251Y-86966695D01*
X158657548Y-86971848D01*
X158657548Y-86971851D01*
X158663011Y-87066590D01*
X158670110Y-87189715D01*
X158671247Y-87194761D01*
X158671248Y-87194767D01*
X158691119Y-87282939D01*
X158719222Y-87407639D01*
X158803266Y-87614616D01*
X158847544Y-87686871D01*
X158900721Y-87773648D01*
X158919987Y-87805088D01*
X159066250Y-87973938D01*
X159238126Y-88116632D01*
X159308595Y-88157811D01*
X159311445Y-88159476D01*
X159360169Y-88211114D01*
X159373240Y-88280897D01*
X159346509Y-88346669D01*
X159306055Y-88380027D01*
X159293607Y-88386507D01*
X159289474Y-88389610D01*
X159289471Y-88389612D01*
X159119100Y-88517530D01*
X159114965Y-88520635D01*
X158960629Y-88682138D01*
X158834743Y-88866680D01*
X158740688Y-89069305D01*
X158680989Y-89284570D01*
X158657251Y-89506695D01*
X158657548Y-89511848D01*
X158657548Y-89511851D01*
X158665227Y-89645027D01*
X158670110Y-89729715D01*
X158671247Y-89734761D01*
X158671248Y-89734767D01*
X158684529Y-89793696D01*
X158719222Y-89947639D01*
X158771530Y-90076459D01*
X158796662Y-90138351D01*
X158803266Y-90154616D01*
X158851307Y-90233012D01*
X158900721Y-90313648D01*
X158919987Y-90345088D01*
X159066250Y-90513938D01*
X159238126Y-90656632D01*
X159286072Y-90684649D01*
X159311445Y-90699476D01*
X159360169Y-90751114D01*
X159373240Y-90820897D01*
X159346509Y-90886669D01*
X159306055Y-90920027D01*
X159293607Y-90926507D01*
X159289474Y-90929610D01*
X159289471Y-90929612D01*
X159119100Y-91057530D01*
X159114965Y-91060635D01*
X158960629Y-91222138D01*
X158834743Y-91406680D01*
X158817976Y-91442801D01*
X158747981Y-91593594D01*
X158740688Y-91609305D01*
X158680989Y-91824570D01*
X158657251Y-92046695D01*
X158657548Y-92051848D01*
X158657548Y-92051851D01*
X158667064Y-92216886D01*
X158670110Y-92269715D01*
X158671247Y-92274761D01*
X158671248Y-92274767D01*
X158688313Y-92350488D01*
X158719222Y-92487639D01*
X158767113Y-92605581D01*
X158799934Y-92686409D01*
X158803266Y-92694616D01*
X158847544Y-92766871D01*
X158913292Y-92874162D01*
X158919987Y-92885088D01*
X159066250Y-93053938D01*
X159115357Y-93094707D01*
X159226727Y-93187168D01*
X159238126Y-93196632D01*
X159276745Y-93219199D01*
X159311445Y-93239476D01*
X159360169Y-93291114D01*
X159373240Y-93360897D01*
X159346509Y-93426669D01*
X159306055Y-93460027D01*
X159293607Y-93466507D01*
X159289474Y-93469610D01*
X159289471Y-93469612D01*
X159119100Y-93597530D01*
X159114965Y-93600635D01*
X158960629Y-93762138D01*
X158834743Y-93946680D01*
X158817976Y-93982801D01*
X158752278Y-94124337D01*
X158740688Y-94149305D01*
X158680989Y-94364570D01*
X158680440Y-94369707D01*
X158679796Y-94375730D01*
X158657251Y-94586695D01*
X154813000Y-94586695D01*
X154813000Y-84187885D01*
X158662000Y-84187885D01*
X158666475Y-84203124D01*
X158667865Y-84204329D01*
X158675548Y-84206000D01*
X159747885Y-84206000D01*
X159763124Y-84201525D01*
X159764329Y-84200135D01*
X159766000Y-84192452D01*
X159766000Y-84187885D01*
X160274000Y-84187885D01*
X160278475Y-84203124D01*
X160279865Y-84204329D01*
X160287548Y-84206000D01*
X161359884Y-84206000D01*
X161375123Y-84201525D01*
X161376328Y-84200135D01*
X161377999Y-84192452D01*
X161377999Y-83876387D01*
X172014477Y-83876387D01*
X172021545Y-83889834D01*
X172687189Y-84555479D01*
X172701132Y-84563092D01*
X172702966Y-84562961D01*
X172709580Y-84558710D01*
X173379180Y-83889109D01*
X173385607Y-83877339D01*
X173376313Y-83865325D01*
X173335912Y-83837036D01*
X173326416Y-83831553D01*
X173237741Y-83790203D01*
X179480743Y-83790203D01*
X179518268Y-84075234D01*
X179594129Y-84352536D01*
X179706923Y-84616976D01*
X179718693Y-84636642D01*
X179834612Y-84830328D01*
X179854561Y-84863661D01*
X180034313Y-85088028D01*
X180101830Y-85152099D01*
X180187765Y-85233648D01*
X180242851Y-85285923D01*
X180476317Y-85453686D01*
X180480112Y-85455695D01*
X180480113Y-85455696D01*
X180505861Y-85469329D01*
X180730392Y-85588212D01*
X180835951Y-85626841D01*
X180942204Y-85665724D01*
X181000373Y-85687011D01*
X181281264Y-85748255D01*
X181309841Y-85750504D01*
X181504282Y-85765807D01*
X181504291Y-85765807D01*
X181506739Y-85766000D01*
X181662271Y-85766000D01*
X181664407Y-85765854D01*
X181664418Y-85765854D01*
X181872548Y-85751665D01*
X181872554Y-85751664D01*
X181876825Y-85751373D01*
X181881020Y-85750504D01*
X181881022Y-85750504D01*
X182027741Y-85720120D01*
X182158342Y-85693074D01*
X182429343Y-85597107D01*
X182684812Y-85465250D01*
X182688313Y-85462789D01*
X182688317Y-85462787D01*
X182803884Y-85381565D01*
X182920023Y-85299941D01*
X183079120Y-85152099D01*
X183127479Y-85107161D01*
X183127481Y-85107158D01*
X183130622Y-85104240D01*
X183312713Y-84881768D01*
X183462927Y-84636642D01*
X183578483Y-84373398D01*
X183580201Y-84367369D01*
X183656068Y-84101034D01*
X183657244Y-84096906D01*
X183697751Y-83812284D01*
X183697845Y-83794451D01*
X183699235Y-83529083D01*
X183699235Y-83529076D01*
X183699257Y-83524797D01*
X183697000Y-83507649D01*
X183662292Y-83244022D01*
X183661732Y-83239766D01*
X183585871Y-82962464D01*
X183473077Y-82698024D01*
X183325439Y-82451339D01*
X183145687Y-82226972D01*
X182937149Y-82029077D01*
X182703683Y-81861314D01*
X182681843Y-81849750D01*
X182658654Y-81837472D01*
X182449608Y-81726788D01*
X182179627Y-81627989D01*
X181898736Y-81566745D01*
X181867685Y-81564301D01*
X181675718Y-81549193D01*
X181675709Y-81549193D01*
X181673261Y-81549000D01*
X181517729Y-81549000D01*
X181515593Y-81549146D01*
X181515582Y-81549146D01*
X181307452Y-81563335D01*
X181307446Y-81563336D01*
X181303175Y-81563627D01*
X181298980Y-81564496D01*
X181298978Y-81564496D01*
X181162416Y-81592777D01*
X181021658Y-81621926D01*
X180750657Y-81717893D01*
X180495188Y-81849750D01*
X180491687Y-81852211D01*
X180491683Y-81852213D01*
X180481594Y-81859304D01*
X180259977Y-82015059D01*
X180049378Y-82210760D01*
X179867287Y-82433232D01*
X179717073Y-82678358D01*
X179601517Y-82941602D01*
X179522756Y-83218094D01*
X179482249Y-83502716D01*
X179482227Y-83507005D01*
X179482226Y-83507012D01*
X179481009Y-83739428D01*
X179480743Y-83790203D01*
X173237741Y-83790203D01*
X173136887Y-83743174D01*
X173126595Y-83739428D01*
X172924599Y-83685304D01*
X172913804Y-83683401D01*
X172705475Y-83665174D01*
X172694525Y-83665174D01*
X172486196Y-83683401D01*
X172475401Y-83685304D01*
X172273405Y-83739428D01*
X172263113Y-83743174D01*
X172073583Y-83831554D01*
X172064093Y-83837034D01*
X172022851Y-83865911D01*
X172014477Y-83876387D01*
X161377999Y-83876387D01*
X161377999Y-83565331D01*
X161377629Y-83558510D01*
X161372105Y-83507648D01*
X161368479Y-83492396D01*
X161323324Y-83371946D01*
X161314786Y-83356351D01*
X161238285Y-83254276D01*
X161225724Y-83241715D01*
X161123649Y-83165214D01*
X161108054Y-83156676D01*
X160987606Y-83111522D01*
X160972351Y-83107895D01*
X160921486Y-83102369D01*
X160914672Y-83102000D01*
X160292115Y-83102000D01*
X160276876Y-83106475D01*
X160275671Y-83107865D01*
X160274000Y-83115548D01*
X160274000Y-84187885D01*
X159766000Y-84187885D01*
X159766000Y-83120116D01*
X159761525Y-83104877D01*
X159760135Y-83103672D01*
X159752452Y-83102001D01*
X159125331Y-83102001D01*
X159118510Y-83102371D01*
X159067648Y-83107895D01*
X159052396Y-83111521D01*
X158931946Y-83156676D01*
X158916351Y-83165214D01*
X158814276Y-83241715D01*
X158801715Y-83254276D01*
X158725214Y-83356351D01*
X158716676Y-83371946D01*
X158671522Y-83492394D01*
X158667895Y-83507649D01*
X158662369Y-83558514D01*
X158662000Y-83565328D01*
X158662000Y-84187885D01*
X154813000Y-84187885D01*
X154813000Y-76835000D01*
X155871685Y-76835000D01*
X155890931Y-77202241D01*
X155948459Y-77565459D01*
X156043639Y-77920674D01*
X156175427Y-78263994D01*
X156342380Y-78591657D01*
X156542668Y-78900075D01*
X156774098Y-79185867D01*
X157034133Y-79445902D01*
X157319925Y-79677332D01*
X157628342Y-79877620D01*
X157631276Y-79879115D01*
X157631283Y-79879119D01*
X157953066Y-80043075D01*
X157956006Y-80044573D01*
X158299326Y-80176361D01*
X158654541Y-80271541D01*
X158847558Y-80302112D01*
X159014511Y-80328555D01*
X159014519Y-80328556D01*
X159017759Y-80329069D01*
X159385000Y-80348315D01*
X159752241Y-80329069D01*
X159755481Y-80328556D01*
X159755489Y-80328555D01*
X159922442Y-80302112D01*
X160115459Y-80271541D01*
X160470674Y-80176361D01*
X160813994Y-80044573D01*
X160816934Y-80043075D01*
X161138717Y-79879119D01*
X161138724Y-79879115D01*
X161141658Y-79877620D01*
X161450075Y-79677332D01*
X161735867Y-79445902D01*
X161995902Y-79185867D01*
X162227332Y-78900075D01*
X162427620Y-78591657D01*
X162594573Y-78263994D01*
X162726361Y-77920674D01*
X162821541Y-77565459D01*
X162879069Y-77202241D01*
X162898315Y-76835000D01*
X181906685Y-76835000D01*
X181925931Y-77202241D01*
X181983459Y-77565459D01*
X182078639Y-77920674D01*
X182210427Y-78263994D01*
X182377380Y-78591657D01*
X182577668Y-78900075D01*
X182809098Y-79185867D01*
X183069133Y-79445902D01*
X183354925Y-79677332D01*
X183663342Y-79877620D01*
X183666276Y-79879115D01*
X183666283Y-79879119D01*
X183988066Y-80043075D01*
X183991006Y-80044573D01*
X184334326Y-80176361D01*
X184689541Y-80271541D01*
X184882558Y-80302112D01*
X185049511Y-80328555D01*
X185049519Y-80328556D01*
X185052759Y-80329069D01*
X185420000Y-80348315D01*
X185787241Y-80329069D01*
X185790481Y-80328556D01*
X185790489Y-80328555D01*
X185957442Y-80302112D01*
X186150459Y-80271541D01*
X186505674Y-80176361D01*
X186848994Y-80044573D01*
X186851934Y-80043075D01*
X187173717Y-79879119D01*
X187173724Y-79879115D01*
X187176658Y-79877620D01*
X187485075Y-79677332D01*
X187770867Y-79445902D01*
X188030902Y-79185867D01*
X188262332Y-78900075D01*
X188462620Y-78591657D01*
X188629573Y-78263994D01*
X188761361Y-77920674D01*
X188856541Y-77565459D01*
X188914069Y-77202241D01*
X188933315Y-76835000D01*
X188914069Y-76467759D01*
X188856541Y-76104541D01*
X188761361Y-75749326D01*
X188629573Y-75406006D01*
X188462620Y-75078343D01*
X188262332Y-74769925D01*
X188030902Y-74484133D01*
X187770867Y-74224098D01*
X187485075Y-73992668D01*
X187176658Y-73792380D01*
X187173724Y-73790885D01*
X187173717Y-73790881D01*
X186851934Y-73626925D01*
X186848994Y-73625427D01*
X186505674Y-73493639D01*
X186150459Y-73398459D01*
X185957442Y-73367888D01*
X185790489Y-73341445D01*
X185790481Y-73341444D01*
X185787241Y-73340931D01*
X185420000Y-73321685D01*
X185052759Y-73340931D01*
X185049519Y-73341444D01*
X185049511Y-73341445D01*
X184882558Y-73367888D01*
X184689541Y-73398459D01*
X184334326Y-73493639D01*
X183991006Y-73625427D01*
X183988066Y-73626925D01*
X183666284Y-73790881D01*
X183666277Y-73790885D01*
X183663343Y-73792380D01*
X183354925Y-73992668D01*
X183069133Y-74224098D01*
X182809098Y-74484133D01*
X182577668Y-74769925D01*
X182377380Y-75078343D01*
X182210427Y-75406006D01*
X182078639Y-75749326D01*
X181983459Y-76104541D01*
X181925931Y-76467759D01*
X181906685Y-76835000D01*
X162898315Y-76835000D01*
X162879069Y-76467759D01*
X162821541Y-76104541D01*
X162726361Y-75749326D01*
X162594573Y-75406006D01*
X162427620Y-75078343D01*
X162227332Y-74769925D01*
X161995902Y-74484133D01*
X161735867Y-74224098D01*
X161450075Y-73992668D01*
X161141658Y-73792380D01*
X161138724Y-73790885D01*
X161138717Y-73790881D01*
X160816934Y-73626925D01*
X160813994Y-73625427D01*
X160470674Y-73493639D01*
X160115459Y-73398459D01*
X159922442Y-73367888D01*
X159755489Y-73341445D01*
X159755481Y-73341444D01*
X159752241Y-73340931D01*
X159385000Y-73321685D01*
X159017759Y-73340931D01*
X159014519Y-73341444D01*
X159014511Y-73341445D01*
X158847558Y-73367888D01*
X158654541Y-73398459D01*
X158299326Y-73493639D01*
X157956006Y-73625427D01*
X157953066Y-73626925D01*
X157631284Y-73790881D01*
X157631277Y-73790885D01*
X157628343Y-73792380D01*
X157319925Y-73992668D01*
X157034133Y-74224098D01*
X156774098Y-74484133D01*
X156542668Y-74769925D01*
X156342380Y-75078343D01*
X156175427Y-75406006D01*
X156043639Y-75749326D01*
X155948459Y-76104541D01*
X155890931Y-76467759D01*
X155871685Y-76835000D01*
X154813000Y-76835000D01*
X154813000Y-72389000D01*
X154833002Y-72320879D01*
X154886658Y-72274386D01*
X154939000Y-72263000D01*
X189231000Y-72263000D01*
X189299121Y-72283002D01*
G37*
%TD.AperFunction*%
%TD*%
M02*
