M48
; DRILL file {KiCad (6.0.1)} date Mon Feb 21 12:58:56 2022
; FORMAT={-:-/ absolute / inch / decimal}
; #@! TF.CreationDate,2022-02-21T12:58:56+02:00
; #@! TF.GenerationSoftware,Kicad,Pcbnew,(6.0.1)
; #@! TF.FileFunction,Plated,1,2,PTH
FMAT,2
INCH
; #@! TA.AperFunction,Plated,PTH,ViaDrill
T1C0.0157
; #@! TA.AperFunction,Plated,PTH,ViaDrill
T2C0.0197
; #@! TA.AperFunction,Plated,PTH,ComponentDrill
T3C0.0299
; #@! TA.AperFunction,Plated,PTH,ComponentDrill
T4C0.0300
; #@! TA.AperFunction,Plated,PTH,ComponentDrill
T5C0.0315
; #@! TA.AperFunction,Plated,PTH,ComponentDrill
T6C0.0374
; #@! TA.AperFunction,Plated,PTH,ComponentDrill
T7C0.0394
; #@! TA.AperFunction,Plated,PTH,ComponentDrill
T8C0.0512
; #@! TA.AperFunction,Plated,PTH,ComponentDrill
T9C0.0906
; #@! TA.AperFunction,Plated,PTH,ComponentDrill
T10C0.1260
%
G90
G05
T1
X4.5717Y-4.1932
X4.6777Y-3.0207
X4.7675Y-3.5779
X4.8146Y-3.6818
X5.0222Y-3.5787
X5.0694Y-3.6826
X5.3606Y-2.639
X5.507Y-3.739
X5.7356Y-3.4401
X5.9751Y-3.9109
X6.0Y-3.807
X6.1034Y-3.9105
X6.1684Y-3.938
X6.2438Y-3.932
X6.2513Y-3.823
X6.2579Y-3.9719
X6.5306Y-4.0292
T2
X4.16Y-3.65
X4.46Y-4.02
X4.54Y-3.64
X4.66Y-2.9
X4.7798Y-2.7399
X4.78Y-2.92
X4.9835Y-3.3881
X6.38Y-3.4
X6.54Y-4.24
T3
X4.3008Y-3.4814
X4.3008Y-3.5814
X4.3008Y-3.6814
X4.3008Y-3.7814
X4.4008Y-3.5314
X4.4008Y-3.6314
X4.4008Y-3.7314
X4.4008Y-3.8314
T4
X4.1986Y-4.1155
X4.1986Y-4.2155
X4.1986Y-4.3155
X4.1986Y-4.4155
X6.35Y-3.65
X6.35Y-3.75
X6.35Y-3.85
X6.35Y-3.95
X6.705Y-3.465
X6.705Y-3.565
X6.705Y-3.665
X6.705Y-3.765
X6.705Y-3.865
X6.705Y-3.965
X6.705Y-4.065
X6.705Y-4.165
X7.205Y-3.465
X7.205Y-3.565
X7.205Y-3.665
X7.205Y-3.765
X7.205Y-3.865
X7.205Y-3.965
X7.205Y-4.065
X7.205Y-4.165
T5
X4.42Y-2.7031
X4.42Y-2.9
X4.42Y-3.0016
X4.42Y-3.1984
X4.6216Y-3.22
X4.8184Y-3.22
X5.03Y-2.7031
X5.03Y-2.9
X5.03Y-3.0016
X5.03Y-3.1984
X5.185Y-3.0016
X5.185Y-3.1984
X5.186Y-2.7031
X5.186Y-2.9
X5.3604Y-2.7204
X5.3604Y-2.8204
X5.3604Y-2.9204
X5.3604Y-3.0204
X5.6604Y-2.7204
X5.6604Y-2.8204
X5.6604Y-2.9204
X5.6604Y-3.0204
X5.8304Y-2.7223
X5.8304Y-2.8223
X5.8304Y-2.9223
X5.8304Y-3.0223
X6.1304Y-2.7223
X6.1304Y-2.8223
X6.1304Y-2.9223
X6.1304Y-3.0223
X6.8816Y-3.33
X7.0784Y-3.33
X7.1731Y-3.33
X7.37Y-3.33
T6
X4.1893Y-2.9008
X4.1893Y-2.9992
X4.268Y-2.9008
X4.268Y-2.9992
T7
X4.6Y-3.5
X4.6Y-4.1
X4.7Y-3.5
X4.7Y-4.1
X4.8Y-3.5
X4.8Y-4.1
X4.9Y-3.5
X4.9Y-4.1
X4.9498Y-4.36
X5.0Y-3.5
X5.0Y-4.1
X5.0498Y-4.36
X5.1Y-3.5
X5.1Y-4.1
X5.2Y-3.5
X5.2Y-4.1
X5.2606Y-4.36
X5.3Y-3.5
X5.3Y-4.1
X5.3606Y-4.36
X5.4Y-3.5
X5.4Y-4.1
X5.4606Y-4.36
X5.5Y-3.5
X5.5Y-4.1
X5.6Y-3.5
X5.6Y-4.1
X5.7Y-3.5
X5.7Y-4.1
X5.8Y-3.5
X5.8Y-4.1
X5.9Y-3.5
X5.9Y-4.1
X6.0Y-3.5
X6.0Y-4.1
X6.0Y-4.4
X6.0382Y-3.1593
X6.0382Y-3.2593
X6.1Y-3.5
X6.1Y-4.1
X6.1Y-4.4
X6.2Y-3.5
X6.2Y-4.1
X6.27Y-2.75
X6.27Y-2.85
X6.27Y-2.95
X6.27Y-3.05
X6.27Y-3.15
X6.27Y-3.25
X6.3Y-3.5
X6.3Y-4.1
X6.4Y-3.5
X6.4Y-4.1
X6.5Y-3.5
X6.5Y-4.1
X6.77Y-2.75
X6.77Y-2.85
X6.77Y-2.95
X6.77Y-3.05
X6.77Y-3.15
X6.77Y-3.25
X6.8948Y-4.38
X6.9948Y-4.38
X7.345Y-3.67
X7.345Y-3.77
X7.345Y-3.87
X7.345Y-3.97
T8
X7.0Y-3.05
X7.2Y-3.05
T9
X4.0767Y-2.7138
X4.0767Y-3.1862
T10
X4.7Y-4.38
X6.5Y-2.85
X7.25Y-4.3504
T0
M30
