%TF.GenerationSoftware,KiCad,Pcbnew,(6.0.1)*%
%TF.CreationDate,2022-02-21T12:58:46+02:00*%
%TF.ProjectId,RegulusFocuser-V1,52656775-6c75-4734-966f-63757365722d,rev?*%
%TF.SameCoordinates,Original*%
%TF.FileFunction,Soldermask,Top*%
%TF.FilePolarity,Negative*%
%FSLAX46Y46*%
G04 Gerber Fmt 4.6, Leading zero omitted, Abs format (unit mm)*
G04 Created by KiCad (PCBNEW (6.0.1)) date 2022-02-21 12:58:46*
%MOMM*%
%LPD*%
G01*
G04 APERTURE LIST*
G04 Aperture macros list*
%AMRoundRect*
0 Rectangle with rounded corners*
0 $1 Rounding radius*
0 $2 $3 $4 $5 $6 $7 $8 $9 X,Y pos of 4 corners*
0 Add a 4 corners polygon primitive as box body*
4,1,4,$2,$3,$4,$5,$6,$7,$8,$9,$2,$3,0*
0 Add four circle primitives for the rounded corners*
1,1,$1+$1,$2,$3*
1,1,$1+$1,$4,$5*
1,1,$1+$1,$6,$7*
1,1,$1+$1,$8,$9*
0 Add four rect primitives between the rounded corners*
20,1,$1+$1,$2,$3,$4,$5,0*
20,1,$1+$1,$4,$5,$6,$7,0*
20,1,$1+$1,$6,$7,$8,$9,0*
20,1,$1+$1,$8,$9,$2,$3,0*%
G04 Aperture macros list end*
%ADD10RoundRect,0.250000X-0.625000X0.400000X-0.625000X-0.400000X0.625000X-0.400000X0.625000X0.400000X0*%
%ADD11RoundRect,0.250000X0.625000X-0.400000X0.625000X0.400000X-0.625000X0.400000X-0.625000X-0.400000X0*%
%ADD12C,1.600000*%
%ADD13RoundRect,0.425000X-0.425000X0.425000X-0.425000X-0.425000X0.425000X-0.425000X0.425000X0.425000X0*%
%ADD14C,1.700000*%
%ADD15C,1.524000*%
%ADD16RoundRect,0.237500X-0.287500X-0.237500X0.287500X-0.237500X0.287500X0.237500X-0.287500X0.237500X0*%
%ADD17RoundRect,0.250001X-0.462499X-0.624999X0.462499X-0.624999X0.462499X0.624999X-0.462499X0.624999X0*%
%ADD18R,1.600000X1.600000*%
%ADD19C,4.000000*%
%ADD20C,5.600000*%
%ADD21R,1.700000X1.700000*%
%ADD22O,1.700000X1.700000*%
%ADD23O,1.600000X1.600000*%
%ADD24R,1.750000X0.450000*%
%ADD25C,3.200000*%
%ADD26R,1.500000X1.500000*%
%ADD27C,1.500000*%
%ADD28R,2.600000X2.600000*%
%ADD29C,2.600000*%
%ADD30RoundRect,0.381000X0.381000X0.381000X-0.381000X0.381000X-0.381000X-0.381000X0.381000X-0.381000X0*%
G04 APERTURE END LIST*
D10*
%TO.C,R8*%
X129540000Y-94970000D03*
X129540000Y-98070000D03*
%TD*%
D11*
%TO.C,R7*%
X127000000Y-98070000D03*
X127000000Y-94970000D03*
%TD*%
D12*
%TO.C,C4*%
X131699000Y-76240000D03*
X131699000Y-81240000D03*
%TD*%
D13*
%TO.C,MC1*%
X116840000Y-104140000D03*
D14*
X119380000Y-104140000D03*
X121920000Y-104140000D03*
X124460000Y-104140000D03*
X127000000Y-104140000D03*
X129540000Y-104140000D03*
X132080000Y-104140000D03*
X134620000Y-104140000D03*
X137160000Y-104140000D03*
X139700000Y-104140000D03*
X142240000Y-104140000D03*
X144780000Y-104140000D03*
X147320000Y-104140000D03*
X149860000Y-104140000D03*
X152400000Y-104140000D03*
X154940000Y-104140000D03*
X157480000Y-104140000D03*
X160020000Y-104140000D03*
X162560000Y-104140000D03*
X165100000Y-104140000D03*
X165100000Y-88900000D03*
X162560000Y-88900000D03*
X160020000Y-88900000D03*
X157480000Y-88900000D03*
X154940000Y-88900000D03*
X152400000Y-88900000D03*
X149860000Y-88900000D03*
X147320000Y-88900000D03*
X144780000Y-88900000D03*
X142240000Y-88900000D03*
X139700000Y-88900000D03*
X137160000Y-88900000D03*
X134620000Y-88900000D03*
X132080000Y-88900000D03*
X129540000Y-88900000D03*
X127000000Y-88900000D03*
X124460000Y-88900000D03*
X121920000Y-88900000D03*
X119380000Y-88900000D03*
X116840000Y-88900000D03*
D15*
X161290000Y-100330000D03*
X161290000Y-97790000D03*
X161290000Y-95250000D03*
X161290000Y-92710000D03*
%TD*%
D12*
%TO.C,C2*%
X112268000Y-76240000D03*
X112268000Y-81240000D03*
%TD*%
%TO.C,C3*%
X131724400Y-73660000D03*
X131724400Y-68660000D03*
%TD*%
D11*
%TO.C,R6*%
X124460000Y-98070000D03*
X124460000Y-94970000D03*
%TD*%
D14*
%TO.C,U3*%
X159258000Y-69850000D03*
X159258000Y-72390000D03*
X159258000Y-74930000D03*
X159258000Y-77470000D03*
X159258000Y-80010000D03*
X159258000Y-82550000D03*
X171958000Y-82550000D03*
X171958000Y-80010000D03*
X171958000Y-77470000D03*
X171958000Y-74930000D03*
X171958000Y-72390000D03*
X171958000Y-69850000D03*
%TD*%
D11*
%TO.C,R14*%
X152400000Y-98070000D03*
X152400000Y-94970000D03*
%TD*%
%TO.C,R5*%
X121920000Y-98070000D03*
X121920000Y-94970000D03*
%TD*%
D16*
%TO.C,D3*%
X130951000Y-83820000D03*
X132701000Y-83820000D03*
%TD*%
D17*
%TO.C,D1*%
X143292500Y-111252000D03*
X146267500Y-111252000D03*
%TD*%
D12*
%TO.C,C9*%
X174792000Y-84582000D03*
X179792000Y-84582000D03*
%TD*%
D18*
%TO.C,J1*%
X108407500Y-76180000D03*
D12*
X108407500Y-73680000D03*
X106407500Y-73680000D03*
X106407500Y-76180000D03*
D19*
X103547500Y-80930000D03*
X103547500Y-68930000D03*
%TD*%
D20*
%TO.C,MH2*%
X119380000Y-111252000D03*
%TD*%
D21*
%TO.C,J4*%
X153369100Y-80247200D03*
D22*
X153369100Y-82787200D03*
%TD*%
D21*
%TO.C,J8*%
X125725000Y-110744000D03*
D22*
X128265000Y-110744000D03*
%TD*%
D11*
%TO.C,R11*%
X142243700Y-83338000D03*
X142243700Y-80238000D03*
%TD*%
D18*
%TO.C,U4*%
X136154000Y-69098000D03*
D23*
X136154000Y-71638000D03*
X136154000Y-74178000D03*
X136154000Y-76718000D03*
X143774000Y-76718000D03*
X143774000Y-74178000D03*
X143774000Y-71638000D03*
X143774000Y-69098000D03*
%TD*%
D10*
%TO.C,R13*%
X149860000Y-80238000D03*
X149860000Y-83338000D03*
%TD*%
D21*
%TO.C,J7*%
X175128000Y-111252000D03*
D22*
X177668000Y-111252000D03*
%TD*%
D20*
%TO.C,MH1*%
X165100000Y-72390000D03*
%TD*%
D10*
%TO.C,R3*%
X137160000Y-80238000D03*
X137160000Y-83338000D03*
%TD*%
D24*
%TO.C,U1*%
X116288000Y-68927000D03*
X116288000Y-69577000D03*
X116288000Y-70227000D03*
X116288000Y-70877000D03*
X116288000Y-71527000D03*
X116288000Y-72177000D03*
X116288000Y-72827000D03*
X116288000Y-73477000D03*
X116288000Y-74127000D03*
X116288000Y-74777000D03*
X116288000Y-75427000D03*
X116288000Y-76077000D03*
X116288000Y-76727000D03*
X116288000Y-77377000D03*
X123488000Y-77377000D03*
X123488000Y-76727000D03*
X123488000Y-76077000D03*
X123488000Y-75427000D03*
X123488000Y-74777000D03*
X123488000Y-74127000D03*
X123488000Y-73477000D03*
X123488000Y-72827000D03*
X123488000Y-72177000D03*
X123488000Y-71527000D03*
X123488000Y-70877000D03*
X123488000Y-70227000D03*
X123488000Y-69577000D03*
X123488000Y-68927000D03*
%TD*%
D25*
%TO.C,J2*%
X102890000Y-98587500D03*
X102890000Y-87157500D03*
D26*
X109240000Y-88427500D03*
D27*
X111780000Y-89697500D03*
X109240000Y-90967500D03*
X111780000Y-92237500D03*
X109240000Y-93507500D03*
X111780000Y-94777500D03*
X109240000Y-96047500D03*
X111780000Y-97317500D03*
%TD*%
D15*
%TO.C,U5*%
X170307000Y-88011000D03*
X170307000Y-90551000D03*
X170307000Y-93091000D03*
X170307000Y-95631000D03*
X170307000Y-98171000D03*
X170307000Y-100711000D03*
X170307000Y-103251000D03*
X170307000Y-105791000D03*
X183007000Y-105791000D03*
X183007000Y-103251000D03*
X183007000Y-100711000D03*
X183007000Y-98171000D03*
X183007000Y-95631000D03*
X183007000Y-93091000D03*
X183007000Y-90551000D03*
X183007000Y-88011000D03*
%TD*%
D28*
%TO.C,J5*%
X182880100Y-77470000D03*
D29*
X177800100Y-77470000D03*
%TD*%
D11*
%TO.C,R16*%
X157480000Y-98070000D03*
X157480000Y-94970000D03*
%TD*%
%TO.C,R4*%
X147320000Y-83338000D03*
X147320000Y-80238000D03*
%TD*%
%TO.C,R15*%
X154940000Y-98070000D03*
X154940000Y-94970000D03*
%TD*%
%TO.C,R9*%
X132080000Y-98070000D03*
X132080000Y-94970000D03*
%TD*%
D12*
%TO.C,C5*%
X117388000Y-81788000D03*
X122388000Y-81788000D03*
%TD*%
%TO.C,C1*%
X112268000Y-73660000D03*
X112268000Y-68660000D03*
%TD*%
%TO.C,C7*%
X127762000Y-73660000D03*
X127762000Y-68660000D03*
%TD*%
D20*
%TO.C,MH3*%
X184150000Y-110500000D03*
%TD*%
D10*
%TO.C,R12*%
X139700000Y-80238000D03*
X139700000Y-83338000D03*
%TD*%
D18*
%TO.C,U2*%
X148092000Y-69146000D03*
D23*
X148092000Y-71686000D03*
X148092000Y-74226000D03*
X148092000Y-76766000D03*
X155712000Y-76766000D03*
X155712000Y-74226000D03*
X155712000Y-71686000D03*
X155712000Y-69146000D03*
%TD*%
D10*
%TO.C,R2*%
X144780000Y-80238000D03*
X144780000Y-83338000D03*
%TD*%
D11*
%TO.C,R10*%
X149860000Y-98070000D03*
X149860000Y-94970000D03*
%TD*%
D12*
%TO.C,C6*%
X127762000Y-76240000D03*
X127762000Y-81240000D03*
%TD*%
D11*
%TO.C,R1*%
X119380000Y-98070000D03*
X119380000Y-94970000D03*
%TD*%
D12*
%TO.C,C8*%
X187198000Y-84582000D03*
X182198000Y-84582000D03*
%TD*%
D21*
%TO.C,J9*%
X152400000Y-111760000D03*
D22*
X154940000Y-111760000D03*
%TD*%
D16*
%TO.C,D2*%
X127141000Y-83820000D03*
X128891000Y-83820000D03*
%TD*%
D21*
%TO.C,J3*%
X133619000Y-110744000D03*
D22*
X136159000Y-110744000D03*
X138699000Y-110744000D03*
%TD*%
D15*
%TO.C,BZ1*%
X106644200Y-109614100D03*
D30*
X106644200Y-112154100D03*
D15*
X106644200Y-107074100D03*
X106644200Y-104534100D03*
%TD*%
D21*
%TO.C,J6*%
X186563000Y-93218000D03*
D22*
X186563000Y-95758000D03*
X186563000Y-98298000D03*
X186563000Y-100838000D03*
%TD*%
M02*
